<svg width="32" height="32" viewBox="0 0 32 32" fill="none" xmlns="http://www.w3.org/2000/svg">
<path d="M12 28C14.208 28 16 26.208 16 24V20H12C9.792 20 8 21.792 8 24C8 26.208 9.792 28 12 28Z" fill="#0ACF83"/>
<path d="M8 16C8 13.792 9.792 12 12 12H16V20H12C9.792 20 8 18.208 8 16Z" fill="#A259FF"/>
<path d="M8 8C8 5.792 9.792 4 12 4H16V12H12C9.792 12 8 10.208 8 8Z" fill="#F24E1E"/>
<path d="M16 4H20C22.208 4 24 5.792 24 8C24 10.208 22.208 12 20 12H16V4Z" fill="#FF7262"/>
<path d="M24 16C24 18.208 22.208 20 20 20C17.792 20 16 18.208 16 16C16 13.792 17.792 12 20 12C22.208 12 24 13.792 24 16Z" fill="#1ABCFE"/>
</svg>
