<svg xmlns="http://www.w3.org/2000/svg" data-name="Layer 1" viewBox="0 0 164 43"><defs><radialGradient id="b" cx="-315.212" cy="327.614" r=".752" gradientTransform="matrix(8.982 15.985 15.985 -8.982 -2381.936 8000.04)" gradientUnits="userSpaceOnUse"><stop offset="0" stop-color="#92b3c8"/><stop offset=".601" stop-color="#0f2067"/><stop offset="1" stop-color="#d04290"/></radialGradient><linearGradient id="a" x1="-329.967" x2="-329.176" y1="312.825" y2="311.817" gradientTransform="matrix(42.783 0 0 -43 14122.522 13452.845)" gradientUnits="userSpaceOnUse"><stop offset="0" stop-color="#f6a705"/><stop offset="1" stop-color="#d04290"/></linearGradient></defs><g data-name="Logo Nucleus Colour-64px-No-padding"><g data-name="Logo Nucleus Colour"><rect width="164" height="43" fill="none" data-name="exclusion zone"/><path fill="url(#a)" fill-rule="evenodd" d="M13.959 39.449a19.305 19.305 0 0014.763.042l.9 1.858a21.356 21.356 0 01-16.567-.042zm25.96-12.365l2 .465a21.54 21.54 0 01-10.455 12.922l-.9-1.856a19.477 19.477 0 009.355-11.531zm-37.062-.025a19.479 19.479 0 009.267 11.5l-.9 1.856A21.538 21.538 0 01.853 27.523zM38.813 9.005a21.5 21.5 0 013.97 12.484 21.747 21.747 0 01-.383 4.071l-2-.464a19.657 19.657 0 00.332-3.607 19.427 19.427 0 00-3.517-11.184zm-34.887.062l1.6 1.3a19.438 19.438 0 00-3.474 11.122 19.654 19.654 0 00.327 3.581l-2 .463A21.8 21.8 0 010 21.489 21.491 21.491 0 013.926 9.067zM20.313.006v2.066A19.254 19.254 0 006.775 8.754l-1.6-1.3A21.3 21.3 0 0120.313.006zM22.351 0a21.3 21.3 0 0115.2 7.4l-1.6 1.3a19.253 19.253 0 00-13.606-6.63z"/><path fill="#0f2067" fill-rule="evenodd" d="M96.739 12.294a12.17 12.17 0 013.068.378 7.679 7.679 0 012.6 1.2 5.916 5.916 0 011.806 2.158 7.22 7.22 0 01.7 3.117l.01.508h-5.7v-.5a2.268 2.268 0 00-.6-1.795 3.155 3.155 0 00-2.047-.543 3.084 3.084 0 00-1.949.608 4.813 4.813 0 00-1.349 1.63 8.269 8.269 0 00-.764 2.224 11.864 11.864 0 00-.239 2.262 5.566 5.566 0 00.151 1.316 2.476 2.476 0 00.467.976 2.406 2.406 0 00.838.655 2.959 2.959 0 001.291.248 3.038 3.038 0 001.21-.224 3.491 3.491 0 00.958-.607 3.228 3.228 0 00.689-.872 6.376 6.376 0 00.475-1.116l.11-.347h5.747l-.217.656a10.643 10.643 0 01-3.424 5.165 9.256 9.256 0 01-5.879 1.837 8.706 8.706 0 01-5.934-1.888c-1.44-1.269-2.17-3.254-2.17-5.9a13.452 13.452 0 01.67-4.264 10.749 10.749 0 011.979-3.56 9.373 9.373 0 013.194-2.438 10.056 10.056 0 014.309-.884zm-20.3 0l-2.2 10.911a3.251 3.251 0 00-.1.42l-.1.587a5.274 5.274 0 00-.06.54c-.01.18-.016.322-.016.428a1.035 1.035 0 00.5.878 2.066 2.066 0 001.244.418 3.448 3.448 0 001.628-.369 4.119 4.119 0 001.231-.983 5.683 5.683 0 00.871-1.431 9.312 9.312 0 00.543-1.7l1.978-9.7H87.6l-3.736 18.5h-5.446l.307-1.424a7.623 7.623 0 01-5.169 1.864c-2.362 0-3.978-.795-4.8-2.32l1.769-8.637.007-.033v-.034c.016-.116.048-.29.095-.517.058-.269.114-.556.171-.862s.11-.611.156-.908a6.14 6.14 0 00.083-.929A7.227 7.227 0 0070.459 14l.347-1.7zm77.356.292a14.131 14.131 0 015.446-.053 6.9 6.9 0 012.447.908 4.84 4.84 0 011.718 1.853 5.975 5.975 0 01.59 2.95l-.01.488h-5.344l-.015-.483a1.9 1.9 0 00-.5-1.358 2.339 2.339 0 00-1.66-.467 4.463 4.463 0 00-1.866.333.831.831 0 00-.526.851.7.7 0 00.3.57 4.532 4.532 0 001.5.667l2.364.761a12.928 12.928 0 011.84.718 6.247 6.247 0 011.549 1.058 4.648 4.648 0 011.077 1.53 5.054 5.054 0 01.391 2.049 5.365 5.365 0 01-.793 2.959 6.155 6.155 0 01-2.037 1.954 8.846 8.846 0 01-2.776 1.049 15.4 15.4 0 01-3.051.306 13.288 13.288 0 01-2.653-.274 8.108 8.108 0 01-2.489-.931 5.609 5.609 0 01-1.874-1.77 5 5 0 01-.746-2.8v-1.19h5.336v1.059a1.248 1.248 0 00.209.736 1.914 1.914 0 00.622.564 3.628 3.628 0 00.964.376 4.86 4.86 0 002.067.043 2.555 2.555 0 00.807-.289 1.618 1.618 0 00.538-.48 1.186 1.186 0 00.175-.686 1.06 1.06 0 00-.273-.859 3.774 3.774 0 00-1.085-.549l-3.606-1.151a13.447 13.447 0 01-1.641-.652 4.625 4.625 0 01-1.3-.925 3.763 3.763 0 01-.841-1.366 5.619 5.619 0 01-.279-1.884 4.829 4.829 0 01.8-2.825 6.1 6.1 0 012-1.813 8.967 8.967 0 012.63-.977zm-16.255-.292l-2.2 10.911a3.067 3.067 0 00-.1.419 92.56 92.56 0 01-.1.588 5.274 5.274 0 00-.06.54c-.011.18-.016.322-.016.428a1.035 1.035 0 00.5.878 2.074 2.074 0 001.246.418 3.46 3.46 0 001.631-.369 4.115 4.115 0 001.233-.983 5.685 5.685 0 00.872-1.431 9.316 9.316 0 00.544-1.7l1.981-9.7h5.644l-3.742 18.5h-5.456l.307-1.424a7.641 7.641 0 01-5.177 1.864c-2.986 0-4.784-1.265-5.286-3.672a14.276 14.276 0 00.966-2.058s.3-.777.529-1.617a14.051 14.051 0 00.324-1.526 15.348 15.348 0 00.136-2 10.921 10.921 0 00-.432-3.124l1.009-4.938zm-16.108 0a11.346 11.346 0 013.4.484 7.185 7.185 0 012.689 1.507 6.911 6.911 0 011.742 2.521 9.01 9.01 0 01.615 3.439 15.163 15.163 0 01-.273 2.762l-.075.407h-12.514v.491a2.753 2.753 0 00.777 2.054 3.418 3.418 0 002.486.778 2.871 2.871 0 001.056-.18 3.2 3.2 0 00.829-.47 3.466 3.466 0 00.634-.663q.306-.42.565-.808l.147-.22h5.671l-.262.679a12.6 12.6 0 01-1.375 2.644 7.894 7.894 0 01-1.935 1.953 8.043 8.043 0 01-2.617 1.179 13.6 13.6 0 01-3.372.378 10.445 10.445 0 01-3.27-.487 6.765 6.765 0 01-2.577-1.512 6.9 6.9 0 01-1.654-2.5 9.347 9.347 0 01-.579-3.415 12.468 12.468 0 01.688-4.105 11.437 11.437 0 011.948-3.516 9.457 9.457 0 013.113-2.47 9.172 9.172 0 014.145-.93zm-7.347-6.141l-5.119 24.565h-5.577l5.086-24.565zm-49.71 5.629c3.533 0 5.4 1.8 5.4 5.194a5.128 5.128 0 01-.071.771q-.066.43-.149.877t-.165.84c-.051.244-.088.44-.108.589l-2.171 10.665H61.5l2.173-10.837c.04-.251.1-.613.177-1.065a6.315 6.315 0 00.107-.962 1.033 1.033 0 00-.5-.875 2.058 2.058 0 00-1.24-.417 3.437 3.437 0 00-1.622.368 4.122 4.122 0 00-1.225.982 5.635 5.635 0 00-.867 1.428 9.27 9.27 0 00-.541 1.7L56 30.718h-5.578l3.687-18.463h5.423l-.3 1.406a7.529 7.529 0 015.143-1.879zm57.334 4.5a4.052 4.052 0 00-1.581.287 3.928 3.928 0 00-1.19.772 4.487 4.487 0 00-.857 1.142c-.135.254-.26.519-.372.789h6.7a8.074 8.074 0 00-.1-.852 3.315 3.315 0 00-.391-1.118 1.918 1.918 0 00-.777-.735 3.048 3.048 0 00-1.432-.287z"/><path fill="url(#b)" fill-rule="evenodd" d="M30.559 21.506a9.168 9.168 0 11-9.168-9.212 9.189 9.189 0 019.168 9.212"/></g></g></svg>