<svg width="84" height="84" viewBox="0 0 84 84" fill="none" xmlns="http://www.w3.org/2000/svg">
<path d="M29.5837 35.4141V44.9141H26.417V35.4141H29.5837Z" fill="white"/>
<path d="M29.1285 31.7922C28.825 32.0957 28.4489 32.2474 28.0003 32.2474C27.5517 32.2474 27.1757 32.0957 26.8722 31.7922C26.5687 31.4887 26.417 31.1127 26.417 30.6641C26.417 30.2155 26.5687 29.8394 26.8722 29.5359C27.1757 29.2325 27.5517 29.0807 28.0003 29.0807C28.4489 29.0807 28.825 29.2325 29.1285 29.5359C29.4319 29.8394 29.5837 30.2155 29.5837 30.6641C29.5837 31.1127 29.4319 31.4887 29.1285 31.7922Z" fill="white"/>
<path fill-rule="evenodd" clip-rule="evenodd" d="M23.9996 13C10.745 13 0 23.745 0 36.9996C0 50.2524 10.7422 60.9967 23.995 60.9992L28 61L24 71L42 61C47.4249 61 53.8424 60.9994 60.0068 60.9986C73.2596 60.997 84 50.2526 84 36.9998C84 23.7451 73.2549 13 60.0002 13H23.9996ZM21.8253 51.5839C23.7517 52.4151 25.81 52.8307 28.0003 52.8307C30.1906 52.8307 32.2489 52.4151 34.1753 51.5839C36.1017 50.7526 37.7774 49.6245 39.2024 48.1995C40.6274 46.7745 41.7555 45.0988 42.5868 43.1724C43.418 41.246 43.8337 39.1877 43.8337 36.9974C43.8337 34.8071 43.418 32.7488 42.5868 30.8224C41.7555 28.896 40.6274 27.2203 39.2024 25.7953C37.7774 24.3703 36.1017 23.2422 34.1753 22.4109C32.2489 21.5797 30.1906 21.1641 28.0003 21.1641C25.81 21.1641 23.7517 21.5797 21.8253 22.4109C19.8989 23.2422 18.2232 24.3703 16.7982 25.7953C15.3732 27.2203 14.2451 28.896 13.4139 30.8224C12.5826 32.7488 12.167 34.8071 12.167 36.9974C12.167 39.1877 12.5826 41.246 13.4139 43.1724C14.2451 45.0988 15.3732 46.7745 16.7982 48.1995C18.2232 49.6245 19.8989 50.7526 21.8253 51.5839ZM57.7016 42.4005H62.5C62.5125 41.4346 62.6443 40.6004 62.8952 39.8979C63.1586 39.1953 63.6479 38.5242 64.3629 37.8844C65.1909 37.1066 65.9498 36.3539 66.6398 35.6263C67.3298 34.8987 67.888 34.1147 68.3145 33.2742C68.741 32.4211 68.9543 31.4489 68.9543 30.3575C68.9543 28.7894 68.6219 27.4597 67.957 26.3683C67.2921 25.2643 66.3324 24.4301 65.078 23.8656C63.8235 23.2885 62.3181 23 60.5618 23C58.9686 23 57.5323 23.276 56.2527 23.828C54.9731 24.3674 53.9507 25.2016 53.1855 26.3306C52.4328 27.4471 52.0376 28.8647 52 30.5833H57.457C57.4695 29.8056 57.6201 29.1783 57.9086 28.7016C58.2097 28.2249 58.5923 27.8737 59.0565 27.6479C59.5206 27.4095 60.0224 27.2903 60.5618 27.2903C61.2142 27.2903 61.7536 27.4158 62.1801 27.6667C62.6192 27.9176 62.9453 28.2876 63.1586 28.7769C63.3844 29.2536 63.4973 29.8557 63.4973 30.5833C63.4973 31.2106 63.3719 31.7814 63.121 32.2957C62.8701 32.7975 62.5251 33.2867 62.086 33.7634C61.647 34.2401 61.1326 34.7419 60.543 35.2688C59.8405 35.9211 59.276 36.5798 58.8495 37.2446C58.4355 37.9095 58.1407 38.6559 57.9651 39.4839C57.802 40.2993 57.7142 41.2715 57.7016 42.4005ZM57.9651 46.2204C57.4131 46.7473 57.1371 47.4122 57.1371 48.2151C57.1371 48.9928 57.4131 49.6514 57.9651 50.1909C58.517 50.7303 59.2572 51 60.1855 51C61.1013 51 61.8351 50.7303 62.3871 50.1909C62.9516 49.6514 63.2339 48.9928 63.2339 48.2151C63.2339 47.4122 62.9516 46.7473 62.3871 46.2204C61.8351 45.681 61.1013 45.4113 60.1855 45.4113C59.2572 45.4113 58.517 45.681 57.9651 46.2204Z" fill="white"/>
<path d="M62.5 42.4005H57.7016C57.7142 41.2715 57.802 40.2993 57.9651 39.4839C58.1407 38.6559 58.4355 37.9095 58.8495 37.2446C59.276 36.5798 59.8405 35.9211 60.543 35.2688C61.1326 34.7419 61.647 34.2401 62.086 33.7634C62.5251 33.2867 62.8701 32.7975 63.121 32.2957C63.3719 31.7814 63.4973 31.2106 63.4973 30.5833C63.4973 29.8557 63.3844 29.2536 63.1586 28.7769C62.9453 28.2876 62.6192 27.9176 62.1801 27.6667C61.7536 27.4158 61.2142 27.2903 60.5618 27.2903C60.0224 27.2903 59.5206 27.4095 59.0565 27.6479C58.5923 27.8737 58.2097 28.2249 57.9086 28.7016C57.6201 29.1783 57.4695 29.8056 57.457 30.5833H52C52.0376 28.8647 52.4328 27.4471 53.1855 26.3306C53.9507 25.2016 54.9731 24.3674 56.2527 23.828C57.5323 23.276 58.9686 23 60.5618 23C62.3181 23 63.8235 23.2885 65.078 23.8656C66.3324 24.4301 67.2921 25.2643 67.957 26.3683C68.6219 27.4597 68.9543 28.7894 68.9543 30.3575C68.9543 31.4489 68.741 32.4211 68.3145 33.2742C67.888 34.1147 67.3298 34.8987 66.6398 35.6263C65.9498 36.3539 65.1909 37.1066 64.3629 37.8844C63.6479 38.5242 63.1586 39.1953 62.8952 39.8979C62.6443 40.6004 62.5125 41.4346 62.5 42.4005ZM57.1371 48.2151C57.1371 47.4122 57.4131 46.7473 57.9651 46.2204C58.517 45.681 59.2572 45.4113 60.1855 45.4113C61.1013 45.4113 61.8351 45.681 62.3871 46.2204C62.9516 46.7473 63.2339 47.4122 63.2339 48.2151C63.2339 48.9928 62.9516 49.6514 62.3871 50.1909C61.8351 50.7303 61.1013 51 60.1855 51C59.2572 51 58.517 50.7303 57.9651 50.1909C57.4131 49.6514 57.1371 48.9928 57.1371 48.2151Z" fill="white" fill-opacity="0.3"/>
</svg>
