<svg width="84" height="84" viewBox="0 0 84 84" fill="none" xmlns="http://www.w3.org/2000/svg">
<path d="M0 3.99219C0 1.78305 1.79086 -0.0078125 4 -0.0078125H20C22.2091 -0.0078125 24 1.78305 24 3.99219V19.9922C24 22.2013 22.2091 23.9922 20 23.9922H4C1.79086 23.9922 0 22.2013 0 19.9922V3.99219Z" fill="black" fill-opacity="0.5"/>
<path d="M60 63.9922C60 61.783 61.7909 59.9922 64 59.9922H80C82.2091 59.9922 84 61.783 84 63.9922V79.9922C84 82.2013 82.2091 83.9922 80 83.9922H64C61.7909 83.9922 60 82.2013 60 79.9922V63.9922Z" fill="black" fill-opacity="0.5"/>
<path d="M68.0137 -0.00390625L81.8582 23.9756H70.0137V41.5977C70.0137 41.7321 70.007 41.865 69.9941 41.9961H70C70 44.2052 68.2091 45.9961 66 45.9961H14V60.162C19.6754 61.1142 24 66.0501 24 71.9961C24 78.6235 18.6274 83.9961 12 83.9961C5.37258 83.9961 0 78.6235 0 71.9961C0 66.0501 4.32457 61.1142 10 60.162V45.9961C10 43.787 11.7909 41.9961 14 41.9961H66.0137V23.9756H54.1691L68.0137 -0.00390625Z" fill="white"/>
</svg>
