<svg width="84" height="84" viewBox="0 0 84 84" fill="none" xmlns="http://www.w3.org/2000/svg">
<path d="M84 58.0979C84 47.9992 75.8133 39.8125 65.7146 39.8125H38.2856C28.1867 39.8125 20 47.9992 20 58.0981C20 68.1954 28.1831 76.3816 38.2805 76.3829C42.9772 76.3835 47.8667 76.3839 52 76.3839L65.7143 84.003L62.6667 76.3839L65.7181 76.3833C75.8155 76.3814 84 68.1953 84 58.0979Z" fill="black" fill-opacity="0.4"/>
<path d="M0 18.2854C0 8.18667 8.18666 0 18.2854 0H45.7144C55.8133 0 64 8.18674 64 18.2856C64 28.3829 55.8169 36.5691 45.7195 36.5704C41.0228 36.571 36.1333 36.5714 32 36.5714L18.2857 44.1905L21.3333 36.5714L18.2819 36.5708C8.18454 36.5689 0 28.3828 0 18.2854Z" fill="white"/>
</svg>
