<svg width="84" height="84" viewBox="0 0 84 84" fill="none" xmlns="http://www.w3.org/2000/svg">
<path d="M0 4C0 1.79086 1.79086 0 4 0H80C82.2091 0 84 1.79086 84 4V80C84 82.2091 82.2091 84 80 84H4C1.79086 84 0 82.2091 0 80V4Z" fill="black" fill-opacity="0.2"/>
<path d="M31.3738 17.7216C31.3738 20.8815 28.8122 23.4432 25.6522 23.4432C22.4923 23.4432 19.9307 20.8815 19.9307 17.7216C19.9307 14.5616 22.4923 12 25.6522 12C28.8122 12 31.3738 14.5616 31.3738 17.7216Z" fill="white"/>
<path d="M31.3738 33.9029C31.3738 37.0629 28.8122 39.6245 25.6522 39.6245C22.4923 39.6245 19.9307 37.0629 19.9307 33.9029C19.9307 30.743 22.4923 28.1814 25.6522 28.1814C28.8122 28.1814 31.3738 30.743 31.3738 33.9029Z" fill="white"/>
<path d="M31.3738 50.0971C31.3738 53.257 28.8122 55.8186 25.6522 55.8186C22.4923 55.8186 19.9307 53.257 19.9307 50.0971C19.9307 46.9371 22.4923 44.3755 25.6522 44.3755C28.8122 44.3755 31.3738 46.9371 31.3738 50.0971Z" fill="white"/>
<path d="M47.7209 17.7216C47.7209 20.8815 45.1593 23.4432 41.9994 23.4432C38.8394 23.4432 36.2778 20.8815 36.2778 17.7216C36.2778 14.5616 38.8394 12 41.9994 12C45.1593 12 47.7209 14.5616 47.7209 17.7216Z" fill="white"/>
<path d="M47.7209 33.9029C47.7209 37.0629 45.1593 39.6245 41.9994 39.6245C38.8394 39.6245 36.2778 37.0629 36.2778 33.9029C36.2778 30.743 38.8394 28.1814 41.9994 28.1814C45.1593 28.1814 47.7209 30.743 47.7209 33.9029Z" fill="white"/>
<path d="M47.7209 50.0971C47.7209 53.257 45.1593 55.8186 41.9994 55.8186C38.8394 55.8186 36.2778 53.257 36.2778 50.0971C36.2778 46.9371 38.8394 44.3755 41.9994 44.3755C45.1593 44.3755 47.7209 46.9371 47.7209 50.0971Z" fill="white"/>
<path d="M47.7209 66.2784C47.7209 69.4384 45.1593 72 41.9994 72C38.8394 72 36.2778 69.4384 36.2778 66.2784C36.2778 63.1185 38.8394 60.5568 41.9994 60.5568C45.1593 60.5568 47.7209 63.1185 47.7209 66.2784Z" fill="white"/>
<path d="M64.069 17.7216C64.069 20.8815 61.5074 23.4432 58.3474 23.4432C55.1875 23.4432 52.6259 20.8815 52.6259 17.7216C52.6259 14.5616 55.1875 12 58.3474 12C61.5074 12 64.069 14.5616 64.069 17.7216Z" fill="white"/>
<path d="M64.069 33.9029C64.069 37.0629 61.5074 39.6245 58.3474 39.6245C55.1875 39.6245 52.6259 37.0629 52.6259 33.9029C52.6259 30.743 55.1875 28.1814 58.3474 28.1814C61.5074 28.1814 64.069 30.743 64.069 33.9029Z" fill="white"/>
<path d="M64.069 50.0971C64.069 53.257 61.5074 55.8186 58.3474 55.8186C55.1875 55.8186 52.6259 53.257 52.6259 50.0971C52.6259 46.9371 55.1875 44.3755 58.3474 44.3755C61.5074 44.3755 64.069 46.9371 64.069 50.0971Z" fill="white"/>
</svg>
