<?xml version="1.0" encoding="UTF-8"?><svg id="a" xmlns="http://www.w3.org/2000/svg" viewBox="0 0 64 64"><g id="b"><path d="m63.84,63.88c-21.18,0-42.35,0-63.53,0,0-21.18,0-42.35,0-63.53,21.18,0,42.35,0,63.53,0,0,21.18,0,42.35,0,63.53ZM24.64,5.18c-.07-.19-.12-.31-.16-.44-.45-1.54-1.48-2.19-2.92-1.8-6.42,1.76-12.84,3.53-19.26,5.3-1.49.41-2.15,1.62-1.79,3.23,3.76,16.65,7.53,33.3,11.3,49.95.44,1.95,1.48,2.6,3.27,2.11,4.92-1.35,9.84-2.7,14.77-4.05,1.46-.4,2.92-.79,4.38-1.22,1.32-.39,1.97-1.61,1.67-3.09-.06-.29-.11-.58-.15-.87-.64-4.51-1.27-9.02-1.91-13.53-1.56-10.99-3.12-21.98-4.68-32.97-.2-1.43-.41-2.86-.62-4.33-1.46.22-2.71.83-3.9,1.69Zm18.95-1.89c0,.83,0,1.46,0,2.09-.09,5.27-.19,10.53-.27,15.8-.12,7.17-.24,14.34-.35,21.52-.06,3.88-.11,7.76-.17,11.65-.03,1.74.69,2.68,2.3,2.88,3.48.43,6.97.83,10.45,1.27,1.7.22,2.74-.58,2.93-2.43.51-4.98,1-9.97,1.5-14.96.69-6.91,1.37-13.81,2.06-20.72.51-5.17,1.04-10.34,1.54-15.51.18-1.89-.61-2.91-2.33-3.11-1.56-.18-3.12-.37-4.68-.56-2.05-.24-4.1-.53-6.15-.72-1.33-.12-2.22.71-2.44,2.13-.09.62-.15,1.25-.22,1.89-.69-.27-1.32-.57-1.97-.77-.67-.2-1.36-.29-2.18-.45Zm-12.75.09c2.43,17.16,4.85,34.21,7.26,51.26-.31-6.69-.68-13.38-1.06-20.06-.47-8.13-.95-16.26-1.43-24.4-.12-2.06-.24-4.12-.36-6.19-.02-.28.04-.62-.39-.62-1.3,0-2.59,0-4.03,0Zm6.67.03c.97,16.62,1.93,33.17,2.89,49.72.04,0,.09,0,.13,0,.28-16.56.55-33.11.83-49.71h-3.85Z" fill="#fff" stroke-width="0"/><path d="m24.64,5.18c1.19-.86,2.44-1.47,3.9-1.69.21,1.47.42,2.9.62,4.33,1.56,10.99,3.12,21.98,4.68,32.97.64,4.51,1.27,9.02,1.91,13.53.04.29.1.58.15.87.29,1.47-.35,2.69-1.67,3.09-1.45.43-2.92.81-4.38,1.22-4.92,1.35-9.85,2.7-14.77,4.05-1.79.49-2.83-.16-3.27-2.11C8.05,44.78,4.28,28.13.52,11.48c-.36-1.61.3-2.82,1.79-3.23,6.42-1.77,12.84-3.54,19.26-5.3,1.44-.39,2.47.26,2.92,1.8.04.13.09.25.16.44Zm-8,5.78c-.31-1.36-.6-2.6-.87-3.82-.12,0-.16-.03-.2-.01-3.94,1.08-7.88,2.15-11.81,3.25-.72.2-1,.8-.84,1.63.14.71.31,1.41.48,2.11.22.92.74,1.27,1.58,1.05,1.6-.43,3.2-.88,4.8-1.3.33-.09.49-.25.64-.61.14-.33.47-.62.77-.78.4-.21.87-.27,1.31-.39,1.36-.37,2.71-.75,4.14-1.14Zm6.2,27.43c-1.77.48-3.49.94-5.2,1.42-.54.15-1.01.12-1.42-.36-.1-.11-.33-.17-.48-.13-1.72.46-3.45.92-5.16,1.42-.65.19-.95.81-.8,1.54.13.64.28,1.28.42,1.92.29,1.28.72,1.58,1.87,1.26,3.72-1.02,7.44-2.04,11.16-3.07.15-.04.3-.11.5-.19-.3-1.29-.58-2.53-.88-3.82Zm-4.57-20.22c-1.83.5-3.57.96-5.3,1.44-.5.14-.93.06-1.31-.35-.11-.12-.33-.21-.47-.17-1.72.45-3.44.91-5.15,1.42-.73.22-.99.8-.82,1.63.14.66.29,1.32.44,1.98.25,1.08.74,1.41,1.73,1.14,3.7-1.01,7.39-2.03,11.09-3.05.21-.06.42-.14.66-.22-.3-1.3-.58-2.52-.87-3.82Zm1.79,7.92c-.27-1.21-.52-2.36-.81-3.49-.03-.13-.35-.27-.5-.23-.9.22-1.8.49-2.7.74-2.86.78-5.72,1.56-8.57,2.34-1.05.29-1.34.83-1.08,1.99.13.59.26,1.19.41,1.78.24,1,.74,1.35,1.65,1.11,1.62-.43,3.24-.87,4.85-1.34.19-.05.33-.32.49-.49.29-.31.54-.71.89-.92.35-.21.79-.23,1.19-.34,1.37-.38,2.75-.75,4.18-1.15Zm6.25,27.61c-.28.07-.48.11-.68.16-1.5.41-3,.81-4.5,1.23-.57.16-1.05.1-1.45-.43-.1-.13-.37-.2-.53-.16-1.68.44-3.36.89-5.04,1.37-.78.22-1.08.83-.89,1.72.14.68.3,1.37.47,2.04.24.96.74,1.28,1.62,1.04,1.26-.34,2.52-.68,3.78-1.03,2.5-.68,4.99-1.37,7.49-2.06.29-.08.58-.12.47-.59-.25-1.07-.49-2.15-.75-3.31Zm-2.53-11.22c-.31.08-.54.13-.78.2-1.4.39-2.8.78-4.2,1.16-2.3.63-4.6,1.26-6.9,1.9-.78.22-1.15.77-1.01,1.52.16.84.36,1.68.58,2.51.18.67.74,1.02,1.36.85,1.74-.46,3.49-.94,5.22-1.44.16-.05.35-.29.38-.47.11-.67.44-1.03,1.03-1.19,1.34-.35,2.68-.73,4.02-1.1.35-.1.7-.22,1.09-.34-.27-1.23-.53-2.39-.8-3.6Zm1.36,6.05c-.26.06-.46.1-.66.15-1.48.4-2.97.79-4.45,1.21-.5.14-.92.07-1.32-.32-.14-.14-.45-.19-.64-.14-1.69.44-3.37.9-5.05,1.37-.8.23-1.12.8-.94,1.68.14.71.3,1.42.47,2.12.22.92.74,1.25,1.58,1.03,1.62-.43,3.25-.87,4.87-1.32.17-.05.44-.17.45-.28.12-1.18.96-1.28,1.75-1.49,1.5-.4,2.99-.82,4.56-1.25-.21-.93-.4-1.8-.62-2.76Zm-2.84-12.51c-.21-.93-.4-1.8-.6-2.7-.23.05-.39.08-.55.13-1.52.41-3.04.82-4.56,1.24-.53.15-1.01.15-1.44-.31-.1-.11-.34-.16-.49-.12-1.72.46-3.45.92-5.16,1.41-.73.21-1.03.79-.86,1.62.15.75.32,1.5.51,2.24.21.8.72,1.15,1.46.96,1.67-.43,3.33-.89,4.98-1.36.15-.04.38-.21.38-.33.03-1.01.67-1.25,1.39-1.44,1.62-.43,3.24-.87,4.93-1.34Zm-1.7-7.52c-.25.06-.43.1-.61.15-1.52.41-3.04.82-4.56,1.24-.61.17-1.13.13-1.53-.51-.08-.12-.35-.18-.51-.14-1.68.44-3.36.9-5.03,1.38-.68.19-1.01.74-.87,1.48.15.84.34,1.68.57,2.51.18.66.69,1,1.3.85,1.74-.45,3.48-.93,5.22-1.41.13-.04.32-.24.33-.38.03-.84.49-1.18,1.16-1.35,1.24-.32,2.48-.67,3.72-1.01.45-.13.9-.27,1.38-.41-.19-.82-.36-1.56-.55-2.38Zm-2.88-12.72c-.15-.67-.3-1.21-.38-1.77-.08-.53-.28-.64-.76-.5-1.53.45-3.08.84-4.62,1.27-.61.17-1.13.11-1.52-.54-.08-.13-.35-.22-.5-.18-1.66.44-3.32.88-4.98,1.36-.78.23-1.08.79-.91,1.65.14.73.31,1.46.49,2.18.21.84.73,1.21,1.49,1.01,1.67-.43,3.32-.89,4.98-1.37.16-.05.36-.3.39-.48.1-.65.42-1,.98-1.15.9-.24,1.8-.49,2.7-.74.85-.24,1.71-.48,2.63-.74Z" stroke-width="0"/><path d="m43.6,3.29c.83.17,1.52.25,2.18.45.65.19,1.28.49,1.97.77.07-.64.13-1.27.22-1.89.22-1.42,1.11-2.25,2.44-2.13,2.05.19,4.1.47,6.15.72,1.56.19,3.12.38,4.68.56,1.72.2,2.51,1.22,2.33,3.11-.5,5.17-1.02,10.34-1.54,15.51-.69,6.91-1.37,13.81-2.06,20.72-.5,4.99-.98,9.97-1.5,14.96-.19,1.85-1.22,2.65-2.93,2.43-3.48-.45-6.97-.84-10.45-1.27-1.6-.2-2.33-1.14-2.3-2.88.06-3.88.11-7.76.17-11.65.11-7.17.23-14.34.35-21.52.09-5.27.18-10.53.27-15.8.01-.63,0-1.27,0-2.09Zm9.48,16.05c0-.69-.54-1.27-1.16-1.24-.61.03-1.09.57-1.1,1.24,0,.69.51,1.27,1.13,1.27.63,0,1.13-.57,1.13-1.27Zm-3.36,23.46c.65.01,1.15-.52,1.15-1.23,0-.68-.53-1.27-1.14-1.26-.59,0-1.1.56-1.13,1.21-.03.69.48,1.27,1.11,1.28Zm2.94-29.61c.64.02,1.15-.53,1.16-1.23,0-.7-.5-1.26-1.13-1.26-.61,0-1.1.53-1.12,1.2-.02.7.47,1.27,1.1,1.28Zm2.95,26.44c0-.67-.55-1.26-1.16-1.25-.59.01-1.1.57-1.12,1.22-.02.7.48,1.26,1.12,1.27.64,0,1.15-.54,1.15-1.24Zm-5.48,9.31c0-.7-.54-1.26-1.16-1.24-.58.02-1.1.6-1.11,1.24,0,.68.53,1.27,1.14,1.27.63,0,1.13-.57,1.12-1.27Zm6.58-30.28c.64-.02,1.12-.59,1.09-1.29-.03-.66-.54-1.2-1.13-1.19-.64,0-1.13.57-1.12,1.27,0,.7.52,1.23,1.16,1.22Zm-5.54,9.35c.61.04,1.15-.53,1.17-1.22.02-.68-.44-1.23-1.04-1.27-.64-.04-1.17.47-1.2,1.17-.03.69.45,1.29,1.07,1.32Zm5.16,4.22c0-.71-.49-1.24-1.14-1.23-.64,0-1.13.57-1.12,1.27.02.67.51,1.2,1.11,1.21.63.01,1.14-.54,1.14-1.24Zm-2.61,13.54c-.61.02-1.15.63-1.12,1.29.03.68.58,1.25,1.19,1.22.61-.03,1.09-.59,1.09-1.25,0-.68-.54-1.27-1.15-1.26Zm2.19-22.17c-.64.01-1.12.57-1.1,1.28.02.66.52,1.2,1.12,1.2.61,0,1.13-.58,1.13-1.27,0-.71-.5-1.23-1.15-1.22Zm2.63-13.59c0-.69-.53-1.25-1.15-1.24-.6.01-1.09.56-1.1,1.23-.01.7.48,1.26,1.12,1.27.64,0,1.14-.55,1.13-1.26Zm-8.03,22.9c-.63-.02-1.16.54-1.16,1.23,0,.67.47,1.23,1.07,1.26.63.04,1.17-.5,1.19-1.2.03-.69-.47-1.28-1.1-1.3Z" stroke-width="0"/><path d="m30.84,3.37c1.43,0,2.73,0,4.03,0,.42,0,.37.34.39.62.12,2.06.24,4.12.36,6.19.48,8.13.96,16.26,1.43,24.4.39,6.68.76,13.37,1.06,20.06-2.42-17.05-4.83-34.1-7.26-51.26Z" fill="#5800e1" stroke-width="0"/><path d="m37.51,3.41h3.85c-.28,16.59-.55,33.15-.83,49.71-.04,0-.09,0-.13,0-.96-16.55-1.92-33.09-2.89-49.72Z" fill="#5800e1" stroke-width="0"/><path d="m16.64,10.96c-1.42.39-2.78.76-4.14,1.14-.44.12-.91.18-1.31.39-.31.16-.64.45-.77.78-.15.36-.31.52-.64.61-1.6.42-3.2.87-4.8,1.3-.83.22-1.36-.13-1.58-1.05-.17-.7-.33-1.4-.48-2.11-.17-.83.11-1.43.84-1.63,3.93-1.1,7.87-2.17,11.81-3.25.04-.01.08,0,.2.01.28,1.22.56,2.46.87,3.82Z" fill="#fff" stroke-width="0"/><path d="m22.84,38.39c.3,1.29.58,2.53.88,3.82-.2.07-.34.14-.5.19-3.72,1.03-7.44,2.05-11.16,3.07-1.15.31-1.58.01-1.87-1.26-.14-.64-.3-1.28-.42-1.92-.14-.73.15-1.35.8-1.54,1.71-.5,3.44-.96,5.16-1.42.15-.04.38.02.48.13.41.48.88.51,1.42.36,1.71-.48,3.43-.94,5.2-1.42Z" fill="#fff" stroke-width="0"/><path d="m18.27,18.16c.3,1.3.58,2.52.87,3.82-.24.08-.45.16-.66.22-3.7,1.02-7.39,2.03-11.09,3.05-.99.27-1.48-.05-1.73-1.14-.15-.66-.3-1.32-.44-1.98-.17-.84.08-1.42.82-1.63,1.71-.51,3.43-.96,5.15-1.42.14-.04.36.06.47.17.38.41.8.49,1.31.35,1.74-.48,3.48-.95,5.3-1.44Z" fill="#fff" stroke-width="0"/><path d="m20.06,26.09c-1.43.39-2.8.77-4.18,1.15-.4.11-.84.13-1.19.34-.35.21-.6.61-.89.92-.16.17-.3.43-.49.49-1.61.47-3.23.92-4.85,1.34-.91.24-1.41-.11-1.65-1.11-.14-.59-.27-1.19-.41-1.78-.26-1.16.03-1.71,1.08-1.99,2.86-.78,5.72-1.56,8.57-2.34.9-.25,1.79-.52,2.7-.74.15-.04.47.11.5.23.29,1.13.53,2.27.81,3.49Z" fill="#fff" stroke-width="0"/><path d="m26.31,53.7c.26,1.16.5,2.23.75,3.31.11.48-.19.52-.47.59-2.5.68-4.99,1.37-7.49,2.06-1.26.35-2.52.69-3.78,1.03-.89.24-1.39-.08-1.62-1.04-.17-.68-.32-1.36-.47-2.04-.19-.89.11-1.5.89-1.72,1.67-.48,3.35-.93,5.04-1.37.16-.04.42.03.53.16.41.52.89.59,1.45.43,1.5-.42,3-.82,4.5-1.23.2-.05.4-.1.68-.16Z" fill="#fff" stroke-width="0"/><path d="m23.78,42.48c.27,1.22.53,2.38.8,3.6-.39.12-.74.24-1.09.34-1.34.37-2.68.75-4.02,1.1-.59.16-.93.52-1.03,1.19-.03.18-.22.42-.38.47-1.74.5-3.48.98-5.22,1.44-.62.17-1.18-.18-1.36-.85-.22-.83-.41-1.66-.58-2.51-.14-.74.23-1.3,1.01-1.52,2.3-.64,4.6-1.27,6.9-1.9,1.4-.39,2.8-.78,4.2-1.16.24-.07.47-.12.78-.2Z" fill="#fff" stroke-width="0"/><path d="m25.14,48.53c.22.96.41,1.83.62,2.76-1.56.43-3.06.85-4.56,1.25-.79.21-1.63.31-1.75,1.49-.01.11-.28.23-.45.28-1.62.45-3.24.89-4.87,1.32-.85.22-1.36-.11-1.58-1.03-.17-.7-.33-1.41-.47-2.12-.18-.88.14-1.46.94-1.68,1.68-.47,3.36-.94,5.05-1.37.2-.05.5,0,.64.14.4.39.82.46,1.32.32,1.48-.41,2.96-.81,4.45-1.21.2-.05.4-.09.66-.15Z" fill="#fff" stroke-width="0"/><path d="m22.3,36.01c-1.69.46-3.31.91-4.93,1.34-.72.19-1.36.42-1.39,1.44,0,.12-.23.29-.38.33-1.66.47-3.32.93-4.98,1.36-.74.19-1.26-.16-1.46-.96-.19-.74-.36-1.49-.51-2.24-.17-.82.13-1.4.86-1.62,1.72-.49,3.44-.96,5.16-1.41.15-.04.39,0,.49.12.43.46.91.46,1.44.31,1.52-.42,3.04-.83,4.56-1.24.16-.04.32-.07.55-.13.2.91.39,1.77.6,2.7Z" fill="#fff" stroke-width="0"/><path d="m20.6,28.49c.19.82.36,1.56.55,2.38-.48.14-.93.29-1.38.41-1.24.34-2.48.69-3.72,1.01-.67.17-1.13.52-1.16,1.35,0,.14-.19.34-.33.38-1.74.49-3.47.97-5.22,1.41-.6.15-1.12-.19-1.3-.85-.22-.82-.42-1.66-.57-2.51-.13-.75.19-1.29.87-1.48,1.67-.48,3.35-.94,5.03-1.38.16-.04.44.02.51.14.39.64.92.68,1.53.51,1.52-.42,3.04-.83,4.56-1.24.18-.05.36-.09.61-.15Z" fill="#fff" stroke-width="0"/><path d="m17.72,15.77c-.92.26-1.77.5-2.63.74-.9.25-1.8.5-2.7.74-.56.15-.89.5-.98,1.15-.03.18-.23.43-.39.48-1.65.48-3.31.94-4.98,1.37-.77.2-1.28-.17-1.49-1.01-.18-.72-.35-1.45-.49-2.18-.17-.86.13-1.42.91-1.65,1.65-.48,3.31-.93,4.98-1.36.15-.04.42.05.5.18.39.65.91.71,1.52.54,1.54-.42,3.09-.82,4.62-1.27.48-.14.67-.03.76.5.08.56.23,1.1.38,1.77Z" fill="#fff" stroke-width="0"/><path d="m53.08,19.34c0,.7-.5,1.27-1.13,1.27-.62,0-1.14-.58-1.13-1.27,0-.67.49-1.21,1.1-1.24.61-.03,1.15.55,1.16,1.24Z" fill="#fff" stroke-width="0"/><path d="m49.72,42.8c-.63-.01-1.14-.59-1.11-1.28.02-.65.54-1.21,1.13-1.21.61,0,1.15.59,1.14,1.26,0,.71-.51,1.24-1.15,1.23Z" fill="#fff" stroke-width="0"/><path d="m52.66,13.19c-.64-.02-1.13-.59-1.1-1.28.02-.67.52-1.2,1.12-1.2.64,0,1.14.56,1.13,1.26,0,.7-.52,1.24-1.16,1.23Z" fill="#fff" stroke-width="0"/><path d="m55.61,39.64c0,.7-.51,1.25-1.15,1.24-.65,0-1.14-.57-1.12-1.27.02-.65.53-1.21,1.12-1.22.61-.01,1.16.58,1.16,1.25Z" fill="#fff" stroke-width="0"/><path d="m50.13,48.95c0,.7-.49,1.27-1.12,1.27-.61,0-1.15-.59-1.14-1.27,0-.64.52-1.22,1.11-1.24.62-.02,1.15.54,1.16,1.24Z" fill="#fff" stroke-width="0"/><path d="m56.71,18.67c-.64.02-1.15-.52-1.16-1.22,0-.7.49-1.26,1.12-1.27.59,0,1.11.53,1.13,1.19.03.7-.46,1.27-1.09,1.29Z" fill="#fff" stroke-width="0"/><path d="m51.17,28.02c-.62-.04-1.11-.63-1.07-1.32.03-.69.56-1.21,1.2-1.17.61.04,1.06.6,1.04,1.27-.02.69-.56,1.25-1.17,1.22Z" fill="#fff" stroke-width="0"/><path d="m56.32,32.24c0,.7-.51,1.25-1.14,1.24-.61,0-1.1-.54-1.11-1.21-.02-.7.48-1.26,1.12-1.27.65,0,1.14.52,1.14,1.23Z" fill="#fff" stroke-width="0"/><path d="m53.71,45.78c.61-.02,1.15.58,1.15,1.26,0,.66-.48,1.22-1.09,1.25-.61.03-1.16-.53-1.19-1.22-.02-.66.51-1.28,1.12-1.29Z" fill="#fff" stroke-width="0"/><path d="m55.91,23.61c.66-.01,1.15.5,1.15,1.22,0,.69-.52,1.27-1.13,1.27-.6,0-1.1-.54-1.12-1.2-.03-.71.45-1.27,1.1-1.28Z" fill="#fff" stroke-width="0"/><path d="m58.54,10.02c0,.71-.5,1.26-1.13,1.26-.64,0-1.13-.56-1.12-1.27.01-.67.5-1.21,1.1-1.23.63-.01,1.15.55,1.15,1.24Z" fill="#fff" stroke-width="0"/><path d="m50.51,32.92c.63.02,1.13.6,1.1,1.3-.03.69-.56,1.23-1.19,1.2-.6-.03-1.07-.6-1.07-1.26,0-.69.53-1.25,1.16-1.23Z" fill="#fff" stroke-width="0"/></g></svg>