<?xml version="1.0" encoding="UTF-8"?><svg id="a" xmlns="http://www.w3.org/2000/svg" xmlns:xlink="http://www.w3.org/1999/xlink" viewBox="0 0 128 128"><defs><linearGradient id="b" x1="18.24" y1="124" x2="116.44" y2="-.51" gradientTransform="translate(0 130) scale(1 -1)" gradientUnits="userSpaceOnUse"><stop offset="0" stop-color="#f6a705"/><stop offset="1" stop-color="#d04290"/></linearGradient><radialGradient id="c" cx="-873.56" cy="618.77" fx="-873.56" fy="618.77" r="1" gradientTransform="translate(-4363.4 42389.83) rotate(60.67) scale(39.76 -39.76)" gradientUnits="userSpaceOnUse"><stop offset="0" stop-color="#92b3c8"/><stop offset=".6" stop-color="#0f2067"/><stop offset="1" stop-color="#d04290"/></radialGradient></defs><path d="m42.57,115.76c13.61,5.68,28.93,5.72,42.57.12l2.6,5.36c-7.57,3.16-15.7,4.78-23.9,4.76-8.2-.02-16.32-1.68-23.88-4.88l2.61-5.36Zm74.86-35.66l5.77,1.34c-2.31,7.9-6.16,15.26-11.34,21.66-5.18,6.4-11.57,11.7-18.81,15.61l-2.6-5.35c13.03-7.09,22.73-19.04,26.98-33.25Zm-106.88-.07c4.21,14.13,13.81,26.05,26.72,33.16l-2.6,5.35c-7.19-3.92-13.53-9.22-18.67-15.6-5.13-6.38-8.95-13.71-11.24-21.58l5.78-1.34ZM114.24,27.97c7.47,10.52,11.47,23.1,11.45,36,0,3.94-.37,7.87-1.1,11.74l-5.77-1.34c.64-3.43.96-6.91.96-10.4.02-11.54-3.52-22.8-10.14-32.25l4.61-3.75Zm-100.6.18l4.61,3.75c-6.54,9.42-10.04,20.61-10.02,32.07,0,3.46.31,6.92.94,10.33l-5.77,1.34c-.73-3.84-1.09-7.75-1.09-11.66-.02-12.82,3.93-25.34,11.32-35.82ZM60.89,2.02v5.96c-7.47.42-14.78,2.34-21.49,5.65-6.71,3.31-12.68,7.94-17.55,13.62l-4.61-3.75c5.43-6.36,12.1-11.55,19.61-15.25,7.51-3.69,15.69-5.81,24.04-6.23Zm5.88-.02c8.38.38,16.59,2.46,24.12,6.13,7.54,3.67,14.25,8.84,19.71,15.2l-4.61,3.75c-4.91-5.67-10.92-10.29-17.66-13.58-6.74-3.29-14.08-5.17-21.58-5.54l.02-5.97Z" fill="url(#b)" fill-rule="evenodd" stroke-width="0"/><path d="m90.44,64.02c-.03,5.22-1.6,10.32-4.52,14.65-2.92,4.33-7.06,7.7-11.89,9.68-4.83,1.98-10.14,2.49-15.26,1.45-5.12-1.03-9.82-3.56-13.5-7.26-3.68-3.7-6.19-8.41-7.2-13.54-1.01-5.12-.48-10.43,1.53-15.26,2-4.82,5.39-8.95,9.74-11.84,4.34-2.9,9.45-4.45,14.67-4.45,3.48,0,6.92.7,10.14,2.04,3.21,1.34,6.13,3.3,8.58,5.77,2.46,2.47,4.4,5.39,5.72,8.61,1.32,3.22,2,6.67,1.99,10.15Z" fill="url(#c)" fill-rule="evenodd" stroke-width="0"/></svg>