<?xml version="1.0" encoding="utf-8"?>
<!-- Generator: Adobe Illustrator 27.8.0, SVG Export Plug-In . SVG Version: 6.00 Build 0)  -->
<svg version="1.1" id="a" xmlns="http://www.w3.org/2000/svg" xmlns:xlink="http://www.w3.org/1999/xlink" x="0px" y="0px"
	 viewBox="0 0 247 66" style="enable-background:new 0 0 247 66;" xml:space="preserve">
<style type="text/css">
	.st0{fill-rule:evenodd;clip-rule:evenodd;fill:url(#SVGID_1_);}
	.st1{fill-rule:evenodd;clip-rule:evenodd;fill:#FFFFFF;}
	.st2{fill-rule:evenodd;clip-rule:evenodd;fill:url(#SVGID_00000158719564278749822110000013704307527858845330_);}
</style>
<linearGradient id="SVGID_1_" gradientUnits="userSpaceOnUse" x1="9.2159" y1="1014.4454" x2="60.4459" y2="1079.6354" gradientTransform="matrix(1 0 0 1 0 -1012)">
	<stop  offset="0" style="stop-color:#F6A705"/>
	<stop  offset="1" style="stop-color:#D04290"/>
</linearGradient>
<path class="st0" d="M21.9,59.8c7.1,3,15.2,3,22.3,0.1l1.4,2.8c-8,3.3-17,3.3-25-0.1L21.9,59.8L21.9,59.8z M61.1,41.2l3,0.7
	c-2.4,8.3-8.1,15.3-15.8,19.4l-1.4-2.8C53.8,54.9,58.8,48.6,61.1,41.2L61.1,41.2z M5.1,41.2c2.2,7.4,7.2,13.6,14,17.3l-1.4,2.8
	C10.1,57.1,4.5,50.1,2,41.9C2,41.9,5.1,41.2,5.1,41.2z M59.4,14c3.9,5.5,6,12,6,18.8c0,2-0.2,4.1-0.6,6.1l-3-0.7
	c0.3-1.8,0.5-3.6,0.5-5.4c0-6-1.8-11.9-5.3-16.8L59.4,14L59.4,14z M6.7,14.1l2.4,2C5.7,21,3.8,26.8,3.8,32.8c0,1.8,0.2,3.6,0.5,5.4
	l-3,0.7c-0.4-2-0.6-4-0.6-6.1C0.7,26.1,2.8,19.6,6.7,14.1L6.7,14.1z M31.5,0.5v3.1C23.5,4,16.2,7.7,11,13.6l-2.4-2
	C14.3,5,22.6,0.9,31.5,0.5z M34.5,0.5c8.9,0.4,17.2,4.4,23,11.1l-2.4,2c-5.2-6-12.6-9.6-20.6-10L34.5,0.5L34.5,0.5z"/>
<path class="st1" d="M145.8,20.7c1.6,0,3.1,0.2,4.6,0.6c1.4,0.4,2.7,1,3.9,1.8c1.1,0.8,2.1,1.9,2.7,3.2c0.7,1.5,1.1,3,1.1,4.6v0.8
	h-8.5V31c0.1-1-0.2-2-0.9-2.7c-0.9-0.6-2-0.9-3.1-0.8c-1.1,0-2.1,0.3-2.9,0.9c-0.8,0.6-1.5,1.5-2,2.4c-0.5,1-0.9,2.2-1.1,3.3
	c-0.2,1.1-0.4,2.2-0.4,3.4c0,0.7,0.1,1.3,0.2,2c0.1,0.5,0.4,1,0.7,1.5c0.3,0.4,0.8,0.8,1.2,1c0.6,0.3,1.3,0.4,1.9,0.4
	c0.6,0,1.2-0.1,1.8-0.3c0.5-0.2,1-0.5,1.4-0.9c0.4-0.4,0.8-0.8,1-1.3c0.3-0.5,0.5-1.1,0.7-1.7l0.2-0.5h8.6l-0.3,1
	c-0.9,3-2.7,5.7-5.1,7.7c-2.5,1.9-5.6,2.8-8.8,2.7c-3.2,0.2-6.4-0.8-8.9-2.8c-2.1-1.9-3.2-4.8-3.2-8.8c0-2.2,0.3-4.3,1-6.4
	c0.6-1.9,1.6-3.7,3-5.3c1.3-1.5,2.9-2.8,4.8-3.6C141.4,21.2,143.6,20.7,145.8,20.7L145.8,20.7z M115.4,20.7L112.1,37
	c-0.1,0.2-0.1,0.4-0.2,0.6c-0.1,0.3-0.1,0.6-0.2,0.9c0,0.3-0.1,0.5-0.1,0.8c0,0.3,0,0.5,0,0.6c0,0.5,0.3,1,0.8,1.3
	c0.5,0.4,1.2,0.6,1.9,0.6c0.8,0,1.7-0.2,2.4-0.5c0.7-0.4,1.3-0.9,1.8-1.5c0.5-0.6,1-1.4,1.3-2.1c0.3-0.8,0.6-1.7,0.8-2.5l3-14.5h8.4
	l-5.6,27.6h-8.1l0.5-2.1c-2.1,1.8-4.9,2.8-7.7,2.8c-3.5,0-5.9-1.2-7.2-3.5l2.6-12.9v0l0,0c0-0.2,0.1-0.4,0.1-0.8
	c0.1-0.4,0.2-0.8,0.3-1.3c0.1-0.5,0.2-0.9,0.2-1.4c0.1-0.5,0.1-0.9,0.1-1.4c0-1.5-0.3-3-0.9-4.5l0.5-2.5L115.4,20.7L115.4,20.7z
	 M231.1,21.2c2.7-0.5,5.4-0.6,8.1-0.1c1.3,0.2,2.5,0.7,3.7,1.4c1.1,0.7,2,1.6,2.6,2.8c0.7,1.4,1,2.9,0.9,4.4v0.7h-8l0-0.7
	c0-0.8-0.2-1.5-0.8-2c-0.7-0.5-1.6-0.8-2.5-0.7c-0.9,0-1.9,0.1-2.8,0.5c-0.5,0.2-0.8,0.7-0.8,1.3c0,0.3,0.2,0.7,0.4,0.9
	c0.7,0.5,1.4,0.8,2.2,1l3.5,1.1c0.9,0.3,1.9,0.6,2.8,1.1c0.9,0.4,1.6,0.9,2.3,1.6c0.7,0.6,1.2,1.4,1.6,2.3c0.4,1,0.6,2,0.6,3
	c0,1.5-0.4,3.1-1.2,4.4c-0.8,1.2-1.8,2.2-3.1,2.9c-1.3,0.8-2.7,1.3-4.1,1.6c-1.5,0.3-3,0.5-4.6,0.5c-1.3,0-2.7-0.1-4-0.4
	c-1.3-0.3-2.6-0.7-3.7-1.4c-1.1-0.7-2.1-1.5-2.8-2.6c-0.8-1.2-1.2-2.7-1.1-4.2v-1.8h8v1.6c0,0.4,0.1,0.8,0.3,1.1
	c0.2,0.3,0.6,0.6,0.9,0.8c0.4,0.2,0.9,0.4,1.4,0.6c1,0.2,2.1,0.3,3.1,0.1c0.4-0.1,0.8-0.2,1.2-0.4c0.3-0.2,0.6-0.4,0.8-0.7
	c0.2-0.3,0.3-0.7,0.3-1c0.1-0.5-0.1-0.9-0.4-1.3c-0.5-0.4-1-0.6-1.6-0.8l-5.4-1.7c-0.8-0.3-1.7-0.6-2.4-1c-0.7-0.3-1.4-0.8-1.9-1.4
	c-0.6-0.6-1-1.3-1.3-2c-0.3-0.9-0.4-1.9-0.4-2.8c-0.1-1.5,0.4-3,1.2-4.2c0.8-1.1,1.8-2,3-2.7C228.4,21.9,229.7,21.4,231.1,21.2
	L231.1,21.2L231.1,21.2z M206.8,20.7L203.5,37c-0.1,0.2-0.1,0.4-0.1,0.6c-0.1,0.3-0.1,0.6-0.1,0.9c0,0.3-0.1,0.5-0.1,0.8
	c0,0.3,0,0.5,0,0.6c0,0.5,0.3,1,0.8,1.3c0.5,0.4,1.2,0.6,1.9,0.6c0.9,0,1.7-0.2,2.4-0.5c0.7-0.4,1.3-0.9,1.8-1.5
	c0.5-0.6,1-1.4,1.3-2.1c0.4-0.8,0.6-1.7,0.8-2.5l3-14.5h8.4l-5.6,27.6h-8.1l0.5-2.1c-2.1,1.8-4.9,2.8-7.7,2.8
	c-4.5,0-7.1-1.9-7.9-5.5c0.6-1,1.1-2,1.4-3.1c0,0,0.4-1.2,0.8-2.4c0.2-0.8,0.4-1.5,0.5-2.3c0.1-1,0.2-2,0.2-3c0-1.6-0.2-3.1-0.6-4.7
	l1.5-7.4L206.8,20.7L206.8,20.7z M182.7,20.7c1.7,0,3.4,0.2,5.1,0.7c1.5,0.5,2.9,1.2,4,2.2c1.1,1,2,2.3,2.6,3.8
	c0.6,1.6,0.9,3.4,0.9,5.1c0,1.4-0.1,2.8-0.4,4.1l-0.1,0.6h-18.7v0.7c-0.1,1.1,0.4,2.2,1.2,3.1c1,0.9,2.4,1.3,3.7,1.2
	c0.5,0,1.1-0.1,1.6-0.3c0.4-0.2,0.9-0.4,1.2-0.7c0.4-0.3,0.7-0.6,0.9-1c0.3-0.4,0.6-0.8,0.8-1.2l0.2-0.3h8.5l-0.4,1
	c-0.5,1.4-1.2,2.7-2.1,3.9c-0.8,1.1-1.8,2.1-2.9,2.9c-1.2,0.8-2.5,1.4-3.9,1.8c-1.6,0.4-3.3,0.6-5,0.6c-1.7,0-3.3-0.2-4.9-0.7
	c-1.4-0.5-2.8-1.2-3.9-2.2c-1.1-1-1.9-2.3-2.5-3.7c-0.6-1.6-0.9-3.3-0.9-5.1c0-2.1,0.3-4.2,1-6.1c0.6-1.9,1.6-3.7,2.9-5.2
	c1.3-1.5,2.9-2.8,4.6-3.7C178.4,21.2,180.5,20.7,182.7,20.7L182.7,20.7L182.7,20.7z M171.7,11.6L164,48.2h-8.3l7.6-36.6H171.7
	L171.7,11.6z M97.4,20c5.3,0,8.1,2.7,8.1,7.7c0,0.4,0,0.8-0.1,1.1c-0.1,0.4-0.1,0.9-0.2,1.3c-0.1,0.4-0.2,0.9-0.2,1.2
	c-0.1,0.4-0.1,0.7-0.2,0.9l-3.2,15.9h-8.4L96.3,32c0.1-0.4,0.2-0.9,0.3-1.6c0.1-0.5,0.1-1,0.2-1.4c0-0.5-0.3-1-0.8-1.3
	c-0.5-0.4-1.2-0.6-1.8-0.6c-0.8,0-1.7,0.2-2.4,0.5c-0.7,0.4-1.3,0.9-1.8,1.5c-0.5,0.6-1,1.4-1.3,2.1c-0.3,0.8-0.6,1.7-0.8,2.5
	l-2.9,14.4h-8.3L82,20.7h8.1l-0.4,2.1C91.8,20.9,94.6,19.9,97.4,20z M183.1,26.7c-0.8,0-1.6,0.1-2.4,0.4c-0.7,0.3-1.3,0.7-1.8,1.1
	c-0.5,0.5-0.9,1.1-1.3,1.7c-0.2,0.4-0.4,0.8-0.6,1.2h10c0-0.4-0.1-0.9-0.1-1.3c-0.1-0.6-0.3-1.1-0.6-1.7c-0.3-0.5-0.7-0.9-1.2-1.1
	C184.6,26.8,183.8,26.6,183.1,26.7L183.1,26.7L183.1,26.7z"/>
<radialGradient id="SVGID_00000114061945423768867910000005272483239642524847_" cx="-1592.0463" cy="-45.2023" r="1" gradientTransform="matrix(10.4238 18.5522 -18.5522 10.4238 15794.1064 30034.0156)" gradientUnits="userSpaceOnUse">
	<stop  offset="0" style="stop-color:#92B3C8"/>
	<stop  offset="0.6" style="stop-color:#0F2067"/>
	<stop  offset="1" style="stop-color:#D04290"/>
</radialGradient>
<path style="fill-rule:evenodd;clip-rule:evenodd;fill:url(#SVGID_00000114061945423768867910000005272483239642524847_);" d="
	M47.2,32.9C47.2,40.7,40.8,47,33,47c-7.8,0-14.1-6.4-14.1-14.2c0-7.8,6.3-14.1,14.1-14.1c3.8,0,7.4,1.5,10,4.2S47.2,29.1,47.2,32.9
	L47.2,32.9z"/>
</svg>
