<?xml version="1.0" encoding="UTF-8"?><svg id="a" xmlns="http://www.w3.org/2000/svg" xmlns:xlink="http://www.w3.org/1999/xlink" viewBox="0 0 245 44"><defs><linearGradient id="b" x1="5.68" y1="44.58" x2="40.03" y2=".87" gradientTransform="translate(0 46) scale(1 -1)" gradientUnits="userSpaceOnUse"><stop offset="0" stop-color="#f6a705"/><stop offset="1" stop-color="#d04290"/></linearGradient><radialGradient id="c" cx="58.57" cy="83.01" fx="58.57" fy="83.01" r="1" gradientTransform="translate(-1417.81 -129.4) rotate(60.67) scale(14.27 -14.27)" gradientUnits="userSpaceOnUse"><stop offset="0" stop-color="#92b3c8"/><stop offset=".6" stop-color="#0f2067"/><stop offset="1" stop-color="#d04290"/></radialGradient></defs><path d="m228.62,26.42l2.51-.24-.03.67c0,.74.17,1.42.51,2.04.34.61.9,1.09,1.69,1.43.78.33,1.72.5,2.8.5,1.53,0,2.7-.34,3.51-1.01.81-.67,1.22-1.44,1.22-2.3,0-.6-.21-1.15-.64-1.65-.44-.49-1.63-1.15-3.57-1.99-1.51-.65-2.54-1.16-3.09-1.5-.86-.57-1.5-1.18-1.91-1.84-.41-.67-.61-1.43-.61-2.29,0-.99.27-1.87.81-2.67.54-.79,1.33-1.4,2.37-1.82,1.05-.42,2.22-.63,3.53-.63,1.56,0,2.88.26,3.95.78,1.07.52,1.85,1.22,2.33,2.09.49.87.73,1.7.73,2.5,0,.08,0,.21-.01.39l-2.47.2c0-.54-.05-.96-.14-1.27-.17-.53-.45-.98-.81-1.35s-.87-.66-1.52-.88c-.64-.23-1.35-.34-2.15-.34-1.4,0-2.48.31-3.26.94-.59.48-.89,1.12-.89,1.91,0,.47.12.89.37,1.27.24.37.68.73,1.32,1.09.45.25,1.53.75,3.23,1.5,1.38.61,2.33,1.09,2.85,1.44.7.46,1.23,1.02,1.61,1.69.38.65.56,1.4.56,2.24,0,1.04-.32,2-.96,2.88-.63.87-1.5,1.55-2.62,2.03-1.12.48-2.39.72-3.83.72-2.17,0-3.95-.47-5.32-1.41-1.37-.95-2.06-2.66-2.07-5.11Z" fill="#698799" stroke-width="0"/><path d="m224.87,25.87l2.54.35c-.8,2.21-1.97,3.89-3.51,5.02-1.54,1.13-3.26,1.7-5.17,1.7-2.33,0-4.18-.71-5.54-2.13-1.36-1.42-2.04-3.46-2.04-6.11,0-3.45,1.04-6.31,3.11-8.57,1.85-2.01,4.15-3.02,6.89-3.02,2.03,0,3.68.54,4.93,1.63,1.26,1.09,2,2.55,2.2,4.39l-2.39.22c-.25-1.39-.78-2.42-1.57-3.1-.78-.69-1.8-1.03-3.05-1.03-2.35,0-4.24,1.04-5.69,3.13-1.26,1.8-1.88,3.93-1.88,6.4,0,1.97.48,3.47,1.45,4.51.97,1.04,2.23,1.56,3.78,1.56,1.32,0,2.52-.43,3.6-1.29,1.07-.86,1.85-2.08,2.34-3.66Z" fill="#698799" stroke-width="0"/><path d="m191.65,24.59c0-3.42.99-6.18,2.96-8.29,1.98-2.12,4.38-3.18,7.19-3.18,2.39,0,4.33.78,5.83,2.34,1.51,1.55,2.26,3.64,2.26,6.25,0,1.87-.38,3.6-1.14,5.19-.57,1.19-1.28,2.23-2.14,3.1-.86.86-1.79,1.53-2.77,2-1.31.63-2.69.94-4.16.94s-2.93-.37-4.2-1.1c-1.26-.73-2.21-1.75-2.87-3.06-.64-1.32-.97-2.72-.97-4.2Zm2.53.13c0,1.12.23,2.16.69,3.1.47.94,1.17,1.68,2.09,2.21.92.53,1.9.8,2.92.8s1.92-.23,2.81-.69c.89-.47,1.68-1.12,2.38-1.95.71-.84,1.26-1.86,1.66-3.07.41-1.22.62-2.42.62-3.6,0-1.91-.54-3.43-1.61-4.56-1.06-1.13-2.38-1.7-3.95-1.7-2.01,0-3.78.86-5.31,2.58-1.54,1.71-2.3,4.01-2.3,6.89Z" fill="#698799" stroke-width="0"/><path d="m172.38,32.62l4-19.17h5.78c1.39,0,2.45.1,3.18.3,1.05.27,1.94.75,2.68,1.45.74.69,1.3,1.55,1.67,2.59.38,1.04.56,2.2.56,3.49,0,1.54-.24,2.95-.71,4.22-.46,1.26-1.07,2.38-1.83,3.35-.75.96-1.54,1.71-2.37,2.26-.82.54-1.79.94-2.92,1.2-.85.2-1.9.3-3.15.3h-6.91Zm3.02-2.17h3.04c1.37,0,2.59-.13,3.65-.38.66-.16,1.23-.39,1.7-.69.62-.39,1.18-.91,1.69-1.56.66-.85,1.19-1.83,1.58-2.92.4-1.1.6-2.35.6-3.74,0-1.55-.27-2.74-.81-3.57-.54-.84-1.23-1.39-2.07-1.66-.62-.2-1.58-.3-2.89-.3h-3.39l-3.1,14.82Z" fill="#698799" stroke-width="0"/><path d="m14.15,39.88c4.79,1.99,10.17,2,14.96.04l.91,1.87c-5.38,2.23-11.43,2.22-16.79-.04l.92-1.87Zm26.31-12.47l2.03.47c-1.64,5.58-5.45,10.27-10.6,13.03l-.91-1.87c4.58-2.48,7.99-6.66,9.48-11.63h0Zm-37.57-.03c1.48,4.94,4.85,9.11,9.39,11.6l-.91,1.87c-5.11-2.77-8.89-7.45-10.51-13.01l2.03-.46ZM39.34,9.18c2.63,3.68,4.03,8.08,4.02,12.59,0,1.38-.13,2.75-.39,4.11l-2.03-.47c.22-1.2.34-2.42.34-3.64,0-4.04-1.24-7.97-3.56-11.28l1.62-1.31Zm-35.36.06l1.62,1.31c-2.3,3.29-3.53,7.21-3.52,11.22,0,1.21.11,2.42.33,3.61l-2.03.47C.13,24.5,0,23.14,0,21.77c0-4.49,1.38-8.86,3.98-12.53h0ZM20.59.1v2.08c-5.31.29-10.26,2.73-13.72,6.74l-1.62-1.31C9.1,3.11,14.65.4,20.59.1Zm2.07,0c5.95.27,11.53,2.97,15.41,7.46l-1.62,1.31c-3.49-4.01-8.47-6.42-13.79-6.69V.1Z" fill="url(#b)" fill-rule="evenodd" stroke-width="0"/><path d="m97.24,13.69c1.04,0,2.07.12,3.07.38.94.23,1.82.64,2.61,1.2.77.56,1.39,1.3,1.81,2.16.46.97.7,2.04.7,3.11h0v.51s-5.7,0-5.7,0v-.5c.07-.66-.15-1.31-.6-1.79-.6-.41-1.33-.6-2.05-.54-.7-.02-1.39.19-1.95.61-.57.44-1.03.99-1.35,1.63-.36.7-.62,1.45-.77,2.22-.15.74-.23,1.5-.24,2.26,0,.44.05.88.15,1.32.08.36.24.69.47.98.23.28.51.5.84.65.41.18.85.26,1.29.25.42,0,.83-.07,1.21-.22.35-.15.68-.35.96-.61.28-.25.51-.54.69-.87.19-.36.35-.73.48-1.12h0l.11-.35h5.76l-.22.66c-.61,2.02-1.8,3.82-3.43,5.16-1.7,1.26-3.78,1.91-5.89,1.84-2.15.12-4.27-.55-5.95-1.89-1.44-1.27-2.17-3.25-2.17-5.9,0-1.45.22-2.89.67-4.26.43-1.3,1.1-2.51,1.98-3.56.88-1.03,1.97-1.86,3.2-2.44,1.36-.61,2.83-.91,4.32-.88h0Zm-20.34,0l-2.21,10.9c-.04.14-.08.28-.1.42-.03.19-.07.39-.1.59-.03.18-.05.36-.06.54-.01.18-.02.32-.02.43,0,.36.19.69.5.88.36.27.8.42,1.25.42.57.01,1.13-.11,1.63-.37.47-.25.89-.58,1.23-.98.36-.43.65-.91.87-1.43.24-.55.42-1.12.54-1.7h0l1.98-9.69h5.65l-3.74,18.49h-5.46l.31-1.42c-1.43,1.24-3.28,1.91-5.18,1.86-2.37,0-3.99-.8-4.81-2.32h0l1.77-8.63v-.03s0-.03,0-.03c.02-.12.05-.29.1-.52.06-.27.11-.56.17-.86.06-.31.11-.61.16-.91.05-.31.08-.62.08-.93.02-1.03-.18-2.05-.58-2.99h0l.35-1.7h5.65Zm77.53.29c1.8-.37,3.65-.39,5.46-.05.87.14,1.7.45,2.45.91.73.45,1.32,1.09,1.72,1.85.45.92.65,1.93.59,2.95h0v.49h-5.37v-.48c0-.5-.18-.99-.52-1.36-.47-.36-1.07-.53-1.66-.47-.64-.02-1.28.09-1.87.33-.35.13-.56.48-.53.85,0,.23.11.44.3.57.46.31.97.54,1.5.67h0l2.37.76c.63.19,1.25.43,1.84.72.57.27,1.09.63,1.55,1.06.46.43.83.95,1.08,1.53.27.65.4,1.35.39,2.05.03,1.04-.25,2.07-.79,2.96-.52.8-1.22,1.47-2.04,1.95-.86.5-1.8.86-2.78,1.05-1.01.2-2.03.31-3.06.31-.89,0-1.78-.09-2.66-.27-.88-.17-1.72-.49-2.49-.93-.76-.44-1.4-1.04-1.88-1.77-.52-.84-.78-1.81-.75-2.8h0v-1.19h5.35v1.06c0,.26.06.52.21.74.16.23.38.42.62.56.3.17.63.3.97.38.68.16,1.39.18,2.07.04.28-.05.56-.15.81-.29.21-.12.4-.28.54-.48.13-.21.19-.44.18-.69.04-.31-.06-.63-.27-.86-.33-.24-.7-.43-1.09-.55h0l-3.61-1.15c-.56-.18-1.11-.4-1.65-.65-.49-.23-.93-.54-1.3-.92-.38-.39-.66-.85-.84-1.36-.2-.61-.29-1.24-.28-1.88-.03-1,.25-1.99.8-2.82.52-.75,1.21-1.36,2-1.81.82-.46,1.71-.79,2.64-.98h0Zm-16.29-.29l-2.21,10.9c-.04.14-.08.28-.1.42-.03.19-.07.39-.1.59-.03.18-.05.36-.06.54-.01.18-.02.32-.02.43,0,.36.19.69.5.88.36.27.8.42,1.25.42.57.01,1.13-.11,1.63-.37.47-.24.89-.58,1.24-.98.36-.43.65-.91.87-1.43.24-.55.42-1.12.55-1.7h0l1.99-9.69h5.66l-3.75,18.49h-5.47l.31-1.42c-1.44,1.24-3.29,1.91-5.19,1.86-2.99,0-4.79-1.26-5.3-3.67.38-.66.7-1.35.97-2.06,0,0,.3-.78.53-1.62.14-.5.24-1.01.32-1.52.09-.66.13-1.33.14-2,0-1.06-.14-2.11-.43-3.12h0l1.01-4.93h5.66Zm-16.15,0c1.15-.01,2.3.15,3.41.48,1,.3,1.92.82,2.69,1.51.76.7,1.36,1.56,1.74,2.52.43,1.09.64,2.26.62,3.44,0,.93-.1,1.85-.27,2.76h0l-.07.41h-12.54v.49c-.04.76.25,1.51.78,2.05.69.58,1.59.86,2.49.78.36,0,.72-.05,1.06-.18.3-.11.58-.27.83-.47.24-.19.45-.41.64-.66.2-.28.39-.55.57-.81h0l.15-.22h5.68l-.26.68c-.35.93-.82,1.82-1.38,2.64-.53.76-1.18,1.42-1.94,1.95-.8.55-1.69.95-2.62,1.18-1.11.27-2.24.39-3.38.38-1.11.01-2.22-.15-3.28-.49-.96-.31-1.85-.82-2.58-1.51-.73-.7-1.3-1.55-1.66-2.5-.4-1.09-.6-2.25-.58-3.41,0-1.4.23-2.78.69-4.1.44-1.28,1.1-2.47,1.95-3.51.85-1.03,1.92-1.88,3.12-2.47,1.29-.63,2.72-.95,4.15-.93h0Zm-7.36-6.14l-5.13,24.55h-5.59l5.1-24.55h5.62Zm-49.82,5.63c3.54,0,5.41,1.8,5.41,5.19,0,.26-.03.52-.07.77-.04.29-.09.58-.15.88-.06.3-.11.58-.17.84-.05.24-.09.44-.11.59h0l-2.18,10.66h-5.62l2.18-10.83c.04-.25.1-.61.18-1.06.06-.32.1-.64.11-.96,0-.36-.19-.69-.5-.87-.36-.27-.79-.42-1.24-.42-.56-.01-1.12.11-1.63.37-.47.25-.89.58-1.23.98-.36.43-.65.91-.87,1.43-.24.55-.42,1.12-.54,1.7h0l-1.97,9.67h-5.59l3.7-18.45h5.44l-.3,1.4c1.42-1.25,3.26-1.92,5.15-1.88h0Zm57.46,4.5c-.54-.01-1.08.09-1.58.29-.44.18-.85.44-1.19.77-.35.33-.64.72-.86,1.14-.14.25-.26.52-.37.79h6.71c-.02-.29-.05-.57-.1-.85-.06-.39-.2-.77-.39-1.12-.19-.31-.46-.57-.78-.73-.45-.21-.94-.31-1.44-.29h0Z" fill="#fff" fill-rule="evenodd" stroke-width="0"/><path d="m31.17,21.83c-.03,5.23-4.28,9.46-9.52,9.44-5.23-.02-9.46-4.27-9.46-9.5,0-5.23,4.25-9.47,9.49-9.47,2.52,0,4.94,1.01,6.72,2.8,1.78,1.79,2.78,4.21,2.77,6.73" fill="url(#c)" fill-rule="evenodd" stroke-width="0"/></svg>