<?xml version="1.0" encoding="UTF-8"?><svg id="a" xmlns="http://www.w3.org/2000/svg" xmlns:xlink="http://www.w3.org/1999/xlink" viewBox="0 0 247 66"><defs><linearGradient id="b" x1="9.21" y1="65.55" x2="60.44" y2=".36" gradientTransform="translate(0 68) scale(1 -1)" gradientUnits="userSpaceOnUse"><stop offset="0" stop-color="#f6a705"/><stop offset="1" stop-color="#d04290"/></linearGradient><radialGradient id="c" cx="-796.02" cy="596.6" fx="-796.02" fy="596.6" r="1" gradientTransform="translate(-2733.12 21013.64) rotate(60.67) scale(21.28 -21.28)" gradientUnits="userSpaceOnUse"><stop offset="0" stop-color="#92b3c8"/><stop offset=".6" stop-color="#0f2067"/><stop offset="1" stop-color="#d04290"/></radialGradient></defs><path d="m21.85,59.81c7.14,2.96,15.16,2.98,22.32.06l1.36,2.79c-8.02,3.33-17.05,3.31-25.04-.06l1.37-2.79Zm39.24-18.6l3.02.7c-2.44,8.32-8.14,15.32-15.81,19.44l-1.36-2.79c6.83-3.7,11.91-9.93,14.14-17.34Zm-56.03-.04c2.21,7.37,7.24,13.58,14.01,17.3l-1.36,2.79c-7.61-4.13-13.26-11.12-15.68-19.4l3.03-.69ZM59.42,14.02c3.91,5.49,6.01,12.05,6,18.78,0,2.05-.19,4.1-.58,6.12l-3.02-.7c.33-1.79.5-3.61.5-5.43.01-6.02-1.85-11.89-5.32-16.82l2.42-1.96Zm-52.74.09l2.42,1.96c-3.43,4.91-5.26,10.75-5.25,16.73,0,1.81.16,3.61.49,5.39l-3.02.7c-.38-2-.57-4.04-.58-6.08-.01-6.69,2.06-13.22,5.94-18.68ZM31.45.49v3.11c-7.91.44-15.3,4.07-20.47,10.05l-2.42-1.96C14.32,4.98,22.6.93,31.45.49Zm3.08,0c8.87.4,17.19,4.43,22.98,11.13l-2.42,1.96c-5.2-5.98-12.63-9.58-20.57-9.97V.48Z" fill="url(#b)" fill-rule="evenodd" stroke-width="0"/><path d="m145.77,20.74c1.55,0,3.09.18,4.59.56,1.4.35,2.71.95,3.89,1.79,1.15.84,2.07,1.94,2.7,3.22.69,1.45,1.05,3.04,1.05,4.65v.76s-8.5,0-8.5,0v-.75c.11-.98-.22-1.96-.9-2.68-.9-.61-1.98-.9-3.06-.81-1.05-.04-2.07.28-2.91.91-.84.65-1.53,1.48-2.02,2.43-.54,1.05-.92,2.16-1.14,3.31-.23,1.11-.35,2.24-.36,3.37,0,.66.07,1.32.23,1.96.12.53.36,1.03.7,1.45.34.41.77.75,1.25.98.61.27,1.27.39,1.93.37.62.01,1.24-.1,1.81-.33.52-.22,1.01-.53,1.43-.9.42-.37.76-.81,1.03-1.3.29-.53.53-1.09.71-1.66l.17-.52h8.59l-.32.98c-.9,3.02-2.68,5.69-5.12,7.7-2.53,1.89-5.63,2.85-8.79,2.74-3.2.18-6.36-.82-8.87-2.81-2.15-1.89-3.24-4.85-3.24-8.79-.01-2.16.33-4.3,1-6.35.64-1.94,1.64-3.74,2.96-5.31,1.31-1.54,2.94-2.78,4.78-3.63,2.02-.91,4.22-1.36,6.44-1.32Zm-30.34,0l-3.29,16.26c-.06.21-.11.41-.15.63-.05.28-.1.58-.15.87-.04.27-.07.54-.09.8-.01.27-.02.48-.02.64,0,.54.29,1.03.75,1.31.53.4,1.19.62,1.86.62.85.02,1.68-.17,2.43-.55.7-.37,1.33-.86,1.84-1.47.54-.64.98-1.36,1.3-2.13.35-.82.62-1.67.81-2.53l2.96-14.46h8.43l-5.58,27.57h-8.14l.46-2.12c-2.14,1.85-4.89,2.84-7.73,2.78-3.53,0-5.95-1.19-7.17-3.46l2.64-12.87v-.05s.01-.05.01-.05c.02-.17.07-.43.14-.77.09-.4.17-.83.26-1.28.09-.46.16-.91.23-1.35.08-.46.12-.92.12-1.38.03-1.53-.26-3.05-.86-4.46l.52-2.53h8.42Zm115.62.44c2.68-.55,5.45-.58,8.14-.08,1.29.22,2.54.67,3.66,1.35,1.09.68,1.97,1.63,2.57,2.76.66,1.37.97,2.88.88,4.4v.73h-8l-.02-.72c.03-.75-.24-1.47-.75-2.02-.71-.54-1.6-.79-2.48-.7-.95-.04-1.91.13-2.79.5-.52.2-.84.72-.79,1.27,0,.34.17.66.45.85.68.46,1.44.8,2.24.99l3.53,1.13c.94.29,1.86.64,2.75,1.07.85.41,1.63.94,2.32,1.58.69.64,1.23,1.42,1.61,2.28.41.97.6,2.01.59,3.05.04,1.55-.37,3.09-1.18,4.41-.78,1.19-1.82,2.19-3.05,2.91-1.28.75-2.69,1.28-4.15,1.56-1.5.3-3.03.46-4.56.46-1.33,0-2.66-.14-3.96-.41-1.31-.26-2.57-.72-3.72-1.39-1.13-.65-2.08-1.55-2.8-2.64-.78-1.25-1.16-2.7-1.12-4.17v-1.77h7.98v1.58c-.01.39.1.77.31,1.1.24.35.56.63.93.84.45.25.94.44,1.44.56,1.01.24,2.07.26,3.09.06.42-.07.83-.22,1.21-.43.32-.18.59-.42.8-.72.19-.31.28-.66.26-1.02.06-.47-.09-.94-.41-1.28-.49-.36-1.04-.63-1.62-.82l-5.39-1.72c-.84-.27-1.66-.59-2.45-.97-.72-.34-1.38-.81-1.94-1.38-.56-.58-.99-1.27-1.26-2.04-.3-.91-.44-1.86-.42-2.81-.05-1.49.37-2.96,1.2-4.21.78-1.11,1.8-2.04,2.99-2.7,1.23-.69,2.55-1.18,3.93-1.46h0Zm-24.3-.44l-3.29,16.26c-.07.2-.12.41-.15.62-.05.28-.1.58-.15.88-.04.27-.07.54-.09.8-.02.27-.02.48-.02.64,0,.54.29,1.03.75,1.31.54.4,1.19.62,1.86.62.85.02,1.68-.17,2.44-.55.7-.37,1.33-.86,1.84-1.47.54-.64.98-1.36,1.3-2.13.35-.82.62-1.67.81-2.53l2.96-14.46h8.44l-5.59,27.57h-8.15l.46-2.12c-2.14,1.85-4.9,2.84-7.74,2.78-4.46,0-7.15-1.89-7.9-5.47.56-.98,1.05-2.01,1.44-3.07,0,0,.45-1.16.79-2.41.2-.75.37-1.51.49-2.27.13-.99.2-1.98.2-2.98.01-1.57-.21-3.14-.65-4.66l1.51-7.36h8.44Zm-24.08,0c1.72-.02,3.43.23,5.08.72,1.49.45,2.86,1.22,4.02,2.25,1.14,1.04,2.03,2.33,2.6,3.76.64,1.63.95,3.37.92,5.13-.01,1.38-.15,2.76-.41,4.12l-.11.61h-18.7v.73c-.06,1.14.37,2.25,1.16,3.06,1.04.86,2.37,1.28,3.72,1.16.54.01,1.07-.08,1.58-.27.45-.17.86-.41,1.24-.7.36-.29.68-.62.95-.99.31-.42.59-.82.84-1.2l.22-.33h8.48l-.39,1.01c-.53,1.39-1.22,2.71-2.05,3.94-.79,1.13-1.76,2.12-2.89,2.91-1.19.81-2.51,1.41-3.91,1.76-1.65.4-3.34.59-5.04.56-1.66.02-3.31-.23-4.89-.73-1.44-.46-2.75-1.23-3.85-2.25-1.09-1.05-1.93-2.32-2.47-3.73-.6-1.63-.9-3.35-.87-5.09,0-2.08.34-4.15,1.03-6.12.65-1.9,1.64-3.68,2.91-5.24,1.27-1.54,2.86-2.8,4.65-3.68,1.93-.94,4.05-1.41,6.19-1.39h0Zm-10.98-9.15l-7.65,36.61h-8.34l7.6-36.61h8.39Zm-74.3,8.39c5.28,0,8.07,2.68,8.07,7.74,0,.39-.04.77-.11,1.15-.07.43-.14.86-.22,1.31-.08.44-.17.86-.25,1.25-.08.36-.13.66-.16.88l-3.24,15.89h-8.39l3.25-16.15c.06-.37.15-.91.26-1.59.09-.47.14-.95.16-1.43,0-.53-.29-1.03-.75-1.3-.53-.4-1.18-.62-1.85-.62-.84-.02-1.67.17-2.42.55-.7.37-1.32.86-1.83,1.46-.54.64-.97,1.36-1.3,2.13-.35.82-.62,1.67-.81,2.53l-2.93,14.42h-8.34l5.51-27.52h8.11l-.45,2.1c2.12-1.86,4.86-2.86,7.69-2.8Zm85.7,6.71c-.81-.02-1.61.13-2.36.43-.66.27-1.26.66-1.78,1.15-.51.5-.95,1.07-1.28,1.7-.2.38-.39.77-.56,1.18h10.01c-.03-.43-.08-.85-.15-1.27-.09-.59-.29-1.15-.58-1.67-.28-.47-.68-.85-1.16-1.1-.67-.31-1.4-.46-2.14-.43h0Z" fill="#0f2067" fill-rule="evenodd" stroke-width="0"/><path d="m47.23,32.88c-.04,7.8-6.39,14.1-14.19,14.08-7.8-.02-14.12-6.37-14.1-14.17.01-7.8,6.34-14.13,14.15-14.13,3.76,0,7.37,1.51,10.02,4.18,2.65,2.67,4.14,6.28,4.13,10.04Z" fill="url(#c)" fill-rule="evenodd" stroke-width="0"/></svg>