<svg width="164" height="43" viewBox="0 0 164 43" fill="none" xmlns="http://www.w3.org/2000/svg">
<g clip-path="url(#clip0_1_2)">
<path fill-rule="evenodd" clip-rule="evenodd" d="M13.959 39.449C18.6801 41.4184 23.9898 41.4335 28.722 39.491L29.622 41.349C26.997 42.4459 24.1793 43.0072 21.3343 42.9999C18.4893 42.9927 15.6745 42.4171 13.055 41.307L13.959 39.449ZM39.919 27.084L41.919 27.549C41.1191 30.288 39.783 32.8408 37.9882 35.0591C36.1934 37.2774 33.9757 39.117 31.464 40.471L30.564 38.615C35.0826 36.1574 38.4457 32.0122 39.919 27.084ZM2.85704 27.059C4.3167 31.9602 7.64522 36.0907 12.124 38.559L11.224 40.415C8.73086 39.0559 6.53105 37.2171 4.75119 35.0046C2.97132 32.7921 1.64653 30.2495 0.853036 27.523L2.85704 27.059ZM38.813 9.005C41.4028 12.652 42.7905 17.016 42.783 21.489C42.7835 22.855 42.6553 24.218 42.4 25.56L40.4 25.096C40.6215 23.9064 40.7326 22.699 40.732 21.489C40.7394 17.4878 39.5111 13.5819 37.215 10.305L38.813 9.005ZM3.92604 9.067L5.52604 10.367C3.25797 13.6319 2.04548 17.5136 2.05204 21.489C2.05138 22.6902 2.16084 23.8888 2.37904 25.07L0.379036 25.533C0.127126 24.1997 0.000242084 22.8459 3.56692e-05 21.489C-0.00806454 17.0419 1.36364 12.7017 3.92604 9.067ZM20.313 0.006V2.072C17.7227 2.21625 15.1882 2.88251 12.8618 4.03076C10.5354 5.17902 8.46502 6.78559 6.77504 8.754L5.17504 7.454C7.05807 5.24707 9.3721 3.44806 11.9752 2.16733C14.5783 0.886586 17.4156 0.151109 20.313 0.006ZM22.351 0C25.2555 0.130757 28.1025 0.854762 30.7166 2.12742C33.3307 3.40008 35.6566 5.19445 37.551 7.4L35.951 8.7C34.2487 6.73302 32.1654 5.13143 29.8269 3.99192C27.4884 2.85241 24.9432 2.19861 22.345 2.07L22.351 0Z" fill="url(#paint0_linear_1_2)"/>
<path fill-rule="evenodd" clip-rule="evenodd" d="M96.739 12.294C97.7736 12.2891 98.8046 12.4161 99.807 12.672C100.741 12.9054 101.623 13.3125 102.407 13.872C103.174 14.4356 103.793 15.1759 104.213 16.03C104.676 17.0037 104.915 18.0688 104.913 19.147L104.923 19.655H99.223V19.155C99.2581 18.8302 99.2227 18.5017 99.1192 18.1919C99.0156 17.8821 98.8464 17.5983 98.623 17.36C98.0236 16.9486 97.3005 16.7567 96.576 16.817C95.8761 16.7925 95.1888 17.0069 94.627 17.425C94.062 17.8615 93.6012 18.4183 93.278 19.055C92.9187 19.7562 92.6614 20.5051 92.514 21.279C92.3621 22.0236 92.282 22.7811 92.275 23.541C92.2728 23.9841 92.3235 24.4259 92.426 24.857C92.5078 25.2128 92.6673 25.5461 92.893 25.833C93.12 26.1111 93.4063 26.3349 93.731 26.488C94.1373 26.6664 94.5785 26.7512 95.022 26.736C95.4364 26.7447 95.8482 26.6684 96.232 26.512C96.5823 26.3632 96.9059 26.1582 97.19 25.905C97.4684 25.6564 97.7015 25.3613 97.879 25.033C98.0724 24.6769 98.2315 24.3032 98.354 23.917L98.464 23.57H104.211L103.994 24.226C103.39 26.2492 102.198 28.0471 100.57 29.391C98.8775 30.6565 96.8029 31.3048 94.691 31.228C92.5479 31.3518 90.4346 30.6794 88.757 29.34C87.317 28.071 86.587 26.086 86.587 23.44C86.5794 21.9919 86.8056 20.552 87.257 19.176C87.6838 17.8741 88.3555 16.6657 89.236 15.616C90.1119 14.582 91.2016 13.7502 92.43 13.178C93.7835 12.569 95.255 12.2671 96.739 12.294ZM76.439 12.294L74.239 23.205C74.1964 23.3426 74.163 23.4829 74.139 23.625L74.039 24.212C74.0097 24.3908 73.9897 24.5711 73.979 24.752C73.969 24.932 73.963 25.074 73.963 25.18C73.9644 25.3569 74.011 25.5305 74.0986 25.6842C74.1861 25.8379 74.3116 25.9666 74.463 26.058C74.8212 26.3288 75.2579 26.4756 75.707 26.476C76.2717 26.4882 76.8307 26.3615 77.335 26.107C77.8047 25.8616 78.2227 25.5278 78.566 25.124C78.9254 24.6926 79.2189 24.2104 79.437 23.693C79.672 23.145 79.8538 22.5757 79.98 21.993L81.958 12.293H87.6L83.864 30.793H78.418L78.725 29.369C77.2936 30.6113 75.4508 31.2759 73.556 31.233C71.194 31.233 69.578 30.438 68.756 28.913L70.525 20.276L70.532 20.243V20.209C70.548 20.093 70.58 19.919 70.627 19.692C70.685 19.423 70.741 19.136 70.798 18.83C70.855 18.524 70.908 18.219 70.954 17.922C71.0052 17.6149 71.0329 17.3043 71.037 16.993C71.0593 15.9656 70.8623 14.9452 70.459 14L70.806 12.3L76.439 12.294ZM153.795 12.586C155.59 12.2154 157.439 12.1974 159.241 12.533C160.107 12.6772 160.938 12.9854 161.688 13.441C162.415 13.8956 163.008 14.5351 163.406 15.294C163.851 16.2109 164.054 17.2264 163.996 18.244L163.986 18.732H158.642L158.627 18.249C158.646 17.7481 158.466 17.26 158.127 16.891C157.653 16.5296 157.06 16.3626 156.467 16.424C155.828 16.4001 155.192 16.5137 154.601 16.757C154.433 16.8225 154.29 16.9409 154.196 17.0945C154.101 17.248 154.058 17.4283 154.075 17.608C154.076 17.7201 154.103 17.8304 154.156 17.9296C154.208 18.0287 154.283 18.114 154.375 18.178C154.83 18.4898 155.339 18.7158 155.875 18.845L158.239 19.606C158.87 19.7981 159.485 20.0381 160.079 20.324C160.646 20.5967 161.168 20.9534 161.628 21.382C162.087 21.8137 162.453 22.3343 162.705 22.912C162.976 23.5604 163.11 24.2582 163.096 24.961C163.125 26.0034 162.849 27.0317 162.303 27.92C161.785 28.7203 161.087 29.3893 160.266 29.874C159.406 30.3775 158.468 30.7321 157.49 30.923C156.486 31.1262 155.464 31.2288 154.439 31.229C153.548 31.2269 152.659 31.1351 151.786 30.955C150.911 30.7837 150.07 30.4691 149.297 30.024C148.543 29.5875 147.902 28.9815 147.423 28.254C146.903 27.4148 146.644 26.4405 146.677 25.454V24.264H152.013V25.323C152.004 25.5842 152.077 25.8416 152.222 26.059C152.385 26.2907 152.597 26.4834 152.844 26.623C153.146 26.7937 153.47 26.9204 153.808 26.999C154.486 27.1614 155.191 27.1761 155.875 27.042C156.158 26.9918 156.431 26.8941 156.682 26.753C156.895 26.6355 157.079 26.4714 157.22 26.273C157.347 26.0675 157.408 25.8282 157.395 25.587C157.415 25.4326 157.402 25.2755 157.354 25.127C157.307 24.9786 157.228 24.8423 157.122 24.728C156.792 24.4876 156.426 24.3022 156.037 24.179L152.431 23.028C151.87 22.8469 151.322 22.6291 150.79 22.376C150.306 22.1453 149.866 21.8323 149.49 21.451C149.115 21.0614 148.828 20.5955 148.649 20.085C148.449 19.4775 148.355 18.8403 148.37 18.201C148.337 17.1991 148.617 16.2118 149.17 15.376C149.693 14.6299 150.376 14.0104 151.17 13.563C151.99 13.1014 152.878 12.7717 153.8 12.586H153.795ZM137.54 12.294L135.34 23.205C135.297 23.3422 135.263 23.4822 135.24 23.624C135.207 23.8201 135.174 24.0161 135.14 24.212C135.111 24.3908 135.091 24.5711 135.08 24.752C135.069 24.932 135.064 25.074 135.064 25.18C135.065 25.3569 135.112 25.5305 135.2 25.6842C135.287 25.8379 135.413 25.9666 135.564 26.058C135.923 26.3287 136.36 26.4754 136.81 26.476C137.376 26.4882 137.936 26.3615 138.441 26.107C138.912 25.8619 139.33 25.5281 139.674 25.124C140.034 24.6927 140.328 24.2105 140.546 23.693C140.781 23.1451 140.963 22.5758 141.09 21.993L143.071 12.293H148.715L144.973 30.793H139.517L139.824 29.369C138.39 30.6117 136.544 31.2761 134.647 31.233C131.661 31.233 129.863 29.968 129.361 27.561C129.737 26.9018 130.06 26.2136 130.327 25.503C130.327 25.503 130.627 24.726 130.856 23.886C130.992 23.3837 131.1 22.8743 131.18 22.36C131.269 21.697 131.314 21.0289 131.316 20.36C131.324 19.3033 131.178 18.2509 130.884 17.236L131.893 12.298L137.54 12.294ZM121.432 12.294C122.583 12.2819 123.73 12.4451 124.832 12.778C125.827 13.0799 126.744 13.594 127.521 14.285C128.283 14.9844 128.878 15.8459 129.263 16.806C129.69 17.9012 129.899 19.0695 129.878 20.245C129.872 21.1721 129.78 22.0966 129.605 23.007L129.53 23.414H117.016V23.905C116.998 24.2824 117.057 24.6595 117.191 25.0128C117.325 25.3662 117.529 25.6883 117.793 25.959C118.486 26.5363 119.38 26.816 120.279 26.737C120.639 26.7438 120.997 26.6827 121.335 26.557C121.633 26.4426 121.913 26.2842 122.164 26.087C122.404 25.8951 122.617 25.6721 122.798 25.424C123.002 25.144 123.19 24.8747 123.363 24.616L123.51 24.396H129.181L128.919 25.075C128.567 26.0076 128.105 26.8952 127.544 27.719C127.018 28.4782 126.363 29.1392 125.609 29.672C124.814 30.2187 123.928 30.6181 122.992 30.851C121.888 31.1173 120.755 31.2443 119.62 31.229C118.511 31.2413 117.407 31.0769 116.35 30.742C115.389 30.4364 114.509 29.9198 113.773 29.23C113.045 28.5279 112.48 27.6745 112.119 26.73C111.715 25.6377 111.519 24.4795 111.54 23.315C111.538 21.9178 111.77 20.5301 112.228 19.21C112.665 17.9322 113.324 16.7418 114.176 15.694C115.027 14.6595 116.088 13.8176 117.289 13.224C118.579 12.5939 119.999 12.2754 121.434 12.294H121.432ZM114.085 6.153L108.966 30.718H103.389L108.475 6.153H114.085ZM64.375 11.782C67.908 11.782 69.775 13.582 69.775 16.976C69.7708 17.2344 69.7471 17.4922 69.704 17.747C69.66 18.0337 69.6103 18.326 69.555 18.624C69.4997 18.922 69.4447 19.202 69.39 19.464C69.339 19.708 69.302 19.904 69.282 20.053L67.111 30.718H61.5L63.673 19.881C63.713 19.63 63.773 19.268 63.85 18.816C63.9102 18.4985 63.946 18.1769 63.957 17.854C63.9553 17.6776 63.9085 17.5046 63.8209 17.3514C63.7334 17.1982 63.6081 17.07 63.457 16.979C63.1 16.7088 62.6647 16.5624 62.217 16.562C61.6544 16.55 61.0974 16.6764 60.595 16.93C60.1275 17.1758 59.7116 17.5092 59.37 17.912C59.0116 18.3423 58.7194 18.8236 58.503 19.34C58.2684 19.888 58.0873 20.4573 57.962 21.04L56 30.718H50.422L54.109 12.255H59.532L59.232 13.661C60.6497 12.4114 62.4856 11.7407 64.375 11.782ZM121.709 16.282C121.168 16.2712 120.631 16.3688 120.128 16.569C119.688 16.752 119.285 17.0136 118.938 17.341C118.593 17.6735 118.304 18.059 118.081 18.483C117.946 18.737 117.821 19.002 117.709 19.272H124.409C124.391 18.9864 124.357 18.702 124.309 18.42C124.247 18.0269 124.114 17.6482 123.918 17.302C123.734 16.9883 123.464 16.7334 123.141 16.567C122.694 16.3567 122.203 16.2582 121.709 16.28V16.282Z" fill="white"/>
<path fill-rule="evenodd" clip-rule="evenodd" d="M30.559 21.506C30.5503 23.3174 30.0052 25.0856 28.9926 26.5874C27.9799 28.0893 26.545 29.2575 24.8691 29.9447C23.1931 30.6319 21.3511 30.8071 19.5756 30.4484C17.8001 30.0897 16.1706 29.2131 14.8928 27.9292C13.6151 26.6453 12.7463 25.0117 12.3961 23.2345C12.0459 21.4573 12.23 19.6161 12.9252 17.9435C13.6203 16.2708 14.7954 14.8415 16.3021 13.8361C17.8088 12.8306 19.5796 12.294 21.391 12.294C22.5979 12.2968 23.7924 12.5372 24.9063 13.0017C26.0203 13.4662 27.0318 14.1455 27.8832 15.0009C28.7345 15.8564 29.409 16.8712 29.8681 17.9873C30.3273 19.1035 30.562 20.2991 30.559 21.506Z" fill="url(#paint1_radial_1_2)"/>
</g>
<defs>
<linearGradient id="paint0_linear_1_2" x1="5.54388" y1="1.37" x2="39.5974" y2="44.5467" gradientUnits="userSpaceOnUse">
<stop stop-color="#F6A705"/>
<stop offset="1" stop-color="#D04290"/>
</linearGradient>
<radialGradient id="paint1_radial_1_2" cx="0" cy="0" r="1" gradientUnits="userSpaceOnUse" gradientTransform="translate(23.7396 18.7472) rotate(60.6683) scale(13.7884)">
<stop stop-color="#92B3C8"/>
<stop offset="0.601" stop-color="#0F2067"/>
<stop offset="1" stop-color="#D04290"/>
</radialGradient>
<clipPath id="clip0_1_2">
<rect width="164" height="43" fill="white"/>
</clipPath>
</defs>
</svg>
