<svg width="84" height="84" viewBox="0 0 84 84" fill="none" xmlns="http://www.w3.org/2000/svg">
<path d="M0 27.9848C0 25.7757 1.79086 23.9848 4 23.9848H20C22.2091 23.9848 24 25.7757 24 27.9848V39.9848H0V27.9848Z" fill="black" fill-opacity="0.3"/>
<path fill-rule="evenodd" clip-rule="evenodd" d="M20 25.9848H4C2.89543 25.9848 2 26.8803 2 27.9848V37.9848H22V27.9848C22 26.8803 21.1046 25.9848 20 25.9848ZM4 23.9848C1.79086 23.9848 0 25.7757 0 27.9848V39.9848H24V27.9848C24 25.7757 22.2091 23.9848 20 23.9848H4Z" fill="white"/>
<path fill-rule="evenodd" clip-rule="evenodd" d="M3.5 39.9848H0V71.9848C0 74.194 1.79086 75.9848 4 75.9848H20C22.2091 75.9848 24 74.194 24 71.9848V39.9848H16.5C17.3284 39.9848 18 40.6564 18 41.4848C18 42.3133 17.3284 42.9848 16.5 42.9848H3.5C2.67157 42.9848 2 42.3133 2 41.4848C2 40.6564 2.67157 39.9848 3.5 39.9848ZM6 49.9848C5.44772 49.9848 5 50.4326 5 50.9848C5 51.5371 5.44772 51.9848 6 51.9848H17C17.5523 51.9848 18 51.5371 18 50.9848C18 50.4326 17.5523 49.9848 17 49.9848H6ZM5 53.9848C5 53.4326 5.44772 52.9848 6 52.9848H12C12.5523 52.9848 13 53.4326 13 53.9848C13 54.5371 12.5523 54.9848 12 54.9848H6C5.44772 54.9848 5 54.5371 5 53.9848ZM3 51.9848C3.55228 51.9848 4 51.5371 4 50.9848C4 50.4326 3.55228 49.9848 3 49.9848C2.44772 49.9848 2 50.4326 2 50.9848C2 51.5371 2.44772 51.9848 3 51.9848ZM4 53.9848C4 54.5371 3.55228 54.9848 3 54.9848C2.44772 54.9848 2 54.5371 2 53.9848C2 53.4326 2.44772 52.9848 3 52.9848C3.55228 52.9848 4 53.4326 4 53.9848ZM3.5 57.9848C2.67157 57.9848 2 58.6564 2 59.4848C2 60.3133 2.67157 60.9848 3.5 60.9848H20.5C21.3284 60.9848 22 60.3133 22 59.4848C22 58.6564 21.3284 57.9848 20.5 57.9848H3.5ZM2 64.4848C2 63.6564 2.67157 62.9848 3.5 62.9848H20.5C21.3284 62.9848 22 63.6564 22 64.4848C22 65.3133 21.3284 65.9848 20.5 65.9848H3.5C2.67157 65.9848 2 65.3133 2 64.4848ZM2 46.4848C2 45.9326 2.44772 45.4848 3 45.4848H9C9.55229 45.4848 10 45.9326 10 46.4848C10 47.0371 9.55229 47.4848 9 47.4848H3C2.44772 47.4848 2 47.0371 2 46.4848ZM3.5 68.9848C2.67157 68.9848 2 69.6564 2 70.4848C2 71.3133 2.67157 71.9848 3.5 71.9848H10.5C11.3284 71.9848 12 71.3133 12 70.4848C12 69.6564 11.3284 68.9848 10.5 68.9848H3.5Z" fill="white"/>
<path d="M2 70.4881C2 69.6597 2.67157 68.9881 3.5 68.9881H10.5C11.3284 68.9881 12 69.6597 12 70.4881C12 71.3166 11.3284 71.9881 10.5 71.9881H3.5C2.67157 71.9881 2 71.3166 2 70.4881Z" fill="black" fill-opacity="0.3"/>
<path d="M5 50.9787C5 50.4264 5.44772 49.9787 6 49.9787H17C17.5523 49.9787 18 50.4264 18 50.9787C18 51.531 17.5523 51.9787 17 51.9787H6C5.44772 51.9787 5 51.531 5 50.9787Z" fill="white" fill-opacity="0.6"/>
<path d="M5 53.9787C5 53.4264 5.44772 52.9787 6 52.9787H12C12.5523 52.9787 13 53.4264 13 53.9787C13 54.531 12.5523 54.9787 12 54.9787H6C5.44772 54.9787 5 54.531 5 53.9787Z" fill="white" fill-opacity="0.6"/>
<path d="M4 50.9787C4 51.531 3.55228 51.9787 3 51.9787C2.44772 51.9787 2 51.531 2 50.9787C2 50.4264 2.44772 49.9787 3 49.9787C3.55228 49.9787 4 50.4264 4 50.9787Z" fill="black" fill-opacity="0.2"/>
<path d="M4 53.9787C4 54.531 3.55228 54.9787 3 54.9787C2.44772 54.9787 2 54.531 2 53.9787C2 53.4264 2.44772 52.9787 3 52.9787C3.55228 52.9787 4 53.4264 4 53.9787Z" fill="black" fill-opacity="0.2"/>
<path fill-rule="evenodd" clip-rule="evenodd" d="M3.5 57.9787C2.67157 57.9787 2 58.6502 2 59.4787C2 60.3071 2.67157 60.9787 3.5 60.9787H20.5C21.3284 60.9787 22 60.3071 22 59.4787C22 58.6502 21.3284 57.9787 20.5 57.9787H3.5ZM19.6876 58.8842L20.2826 60.0092L20.8777 58.8842H19.6876Z" fill="white" fill-opacity="0.8"/>
<path fill-rule="evenodd" clip-rule="evenodd" d="M3.5 62.9787C2.67157 62.9787 2 63.6502 2 64.4787C2 65.3071 2.67157 65.9787 3.5 65.9787H20.5C21.3284 65.9787 22 65.3071 22 64.4787C22 63.6502 21.3284 62.9787 20.5 62.9787H3.5ZM19.6876 63.8842L20.2826 65.0092L20.8777 63.8842H19.6876Z" fill="white" fill-opacity="0.8"/>
<path d="M2 41.4803C2 40.6519 2.67157 39.9803 3.5 39.9803H16.5C17.3284 39.9803 18 40.6519 18 41.4803C18 42.3087 17.3284 42.9803 16.5 42.9803H3.5C2.67157 42.9803 2 42.3087 2 41.4803Z" fill="white" fill-opacity="0.3"/>
<path d="M2 46.4803C2 45.928 2.44772 45.4803 3 45.4803H9C9.55228 45.4803 10 45.928 10 46.4803C10 47.0326 9.55228 47.4803 9 47.4803H3C2.44772 47.4803 2 47.0326 2 46.4803Z" fill="white" fill-opacity="0.6"/>
<path d="M30 27.9848C30 25.7757 31.7909 23.9848 34 23.9848H50C52.2091 23.9848 54 25.7757 54 27.9848V39.9848H30V27.9848Z" fill="black" fill-opacity="0.3"/>
<path fill-rule="evenodd" clip-rule="evenodd" d="M50 25.9848H34C32.8954 25.9848 32 26.8803 32 27.9848V37.9848H52V27.9848C52 26.8803 51.1046 25.9848 50 25.9848ZM34 23.9848C31.7909 23.9848 30 25.7757 30 27.9848V39.9848H54V27.9848C54 25.7757 52.2091 23.9848 50 23.9848H34Z" fill="white"/>
<path fill-rule="evenodd" clip-rule="evenodd" d="M33.5 39.9848H30V71.9848C30 74.194 31.7909 75.9848 34 75.9848H50C52.2091 75.9848 54 74.194 54 71.9848V39.9848H46.5C47.3284 39.9848 48 40.6564 48 41.4848C48 42.3133 47.3284 42.9848 46.5 42.9848H33.5C32.6716 42.9848 32 42.3133 32 41.4848C32 40.6564 32.6716 39.9848 33.5 39.9848ZM36 49.9848C35.4477 49.9848 35 50.4326 35 50.9848C35 51.5371 35.4477 51.9848 36 51.9848H47C47.5523 51.9848 48 51.5371 48 50.9848C48 50.4326 47.5523 49.9848 47 49.9848H36ZM35 53.9848C35 53.4326 35.4477 52.9848 36 52.9848H42C42.5523 52.9848 43 53.4326 43 53.9848C43 54.5371 42.5523 54.9848 42 54.9848H36C35.4477 54.9848 35 54.5371 35 53.9848ZM33 51.9848C33.5523 51.9848 34 51.5371 34 50.9848C34 50.4326 33.5523 49.9848 33 49.9848C32.4477 49.9848 32 50.4326 32 50.9848C32 51.5371 32.4477 51.9848 33 51.9848ZM34 53.9848C34 54.5371 33.5523 54.9848 33 54.9848C32.4477 54.9848 32 54.5371 32 53.9848C32 53.4326 32.4477 52.9848 33 52.9848C33.5523 52.9848 34 53.4326 34 53.9848ZM33.5 57.9848C32.6716 57.9848 32 58.6564 32 59.4848C32 60.3133 32.6716 60.9848 33.5 60.9848H50.5C51.3284 60.9848 52 60.3133 52 59.4848C52 58.6564 51.3284 57.9848 50.5 57.9848H33.5ZM32 64.4848C32 63.6564 32.6716 62.9848 33.5 62.9848H50.5C51.3284 62.9848 52 63.6564 52 64.4848C52 65.3133 51.3284 65.9848 50.5 65.9848H33.5C32.6716 65.9848 32 65.3133 32 64.4848ZM32 46.4848C32 45.9326 32.4477 45.4848 33 45.4848H39C39.5523 45.4848 40 45.9326 40 46.4848C40 47.0371 39.5523 47.4848 39 47.4848H33C32.4477 47.4848 32 47.0371 32 46.4848ZM33.5 68.9848C32.6716 68.9848 32 69.6564 32 70.4848C32 71.3133 32.6716 71.9848 33.5 71.9848H40.5C41.3284 71.9848 42 71.3133 42 70.4848C42 69.6564 41.3284 68.9848 40.5 68.9848H33.5Z" fill="white"/>
<path d="M32 70.4881C32 69.6597 32.6716 68.9881 33.5 68.9881H40.5C41.3284 68.9881 42 69.6597 42 70.4881C42 71.3166 41.3284 71.9881 40.5 71.9881H33.5C32.6716 71.9881 32 71.3166 32 70.4881Z" fill="black" fill-opacity="0.3"/>
<path d="M35 50.9787C35 50.4264 35.4477 49.9787 36 49.9787H47C47.5523 49.9787 48 50.4264 48 50.9787C48 51.531 47.5523 51.9787 47 51.9787H36C35.4477 51.9787 35 51.531 35 50.9787Z" fill="white" fill-opacity="0.6"/>
<path d="M35 53.9787C35 53.4264 35.4477 52.9787 36 52.9787H42C42.5523 52.9787 43 53.4264 43 53.9787C43 54.531 42.5523 54.9787 42 54.9787H36C35.4477 54.9787 35 54.531 35 53.9787Z" fill="white" fill-opacity="0.6"/>
<path d="M34 50.9787C34 51.531 33.5523 51.9787 33 51.9787C32.4477 51.9787 32 51.531 32 50.9787C32 50.4264 32.4477 49.9787 33 49.9787C33.5523 49.9787 34 50.4264 34 50.9787Z" fill="black" fill-opacity="0.2"/>
<path d="M34 53.9787C34 54.531 33.5523 54.9787 33 54.9787C32.4477 54.9787 32 54.531 32 53.9787C32 53.4264 32.4477 52.9787 33 52.9787C33.5523 52.9787 34 53.4264 34 53.9787Z" fill="black" fill-opacity="0.2"/>
<path fill-rule="evenodd" clip-rule="evenodd" d="M33.5 57.9787C32.6716 57.9787 32 58.6502 32 59.4787C32 60.3071 32.6716 60.9787 33.5 60.9787H50.5C51.3284 60.9787 52 60.3071 52 59.4787C52 58.6502 51.3284 57.9787 50.5 57.9787H33.5ZM49.6876 58.8842L50.2826 60.0092L50.8777 58.8842H49.6876Z" fill="white" fill-opacity="0.8"/>
<path fill-rule="evenodd" clip-rule="evenodd" d="M33.5 62.9787C32.6716 62.9787 32 63.6502 32 64.4787C32 65.3071 32.6716 65.9787 33.5 65.9787H50.5C51.3284 65.9787 52 65.3071 52 64.4787C52 63.6502 51.3284 62.9787 50.5 62.9787H33.5ZM49.6876 63.8842L50.2826 65.0092L50.8777 63.8842H49.6876Z" fill="white" fill-opacity="0.8"/>
<path d="M32 41.4803C32 40.6519 32.6716 39.9803 33.5 39.9803H46.5C47.3284 39.9803 48 40.6519 48 41.4803C48 42.3087 47.3284 42.9803 46.5 42.9803H33.5C32.6716 42.9803 32 42.3087 32 41.4803Z" fill="white" fill-opacity="0.3"/>
<path d="M32 46.4803C32 45.928 32.4477 45.4803 33 45.4803H39C39.5523 45.4803 40 45.928 40 46.4803C40 47.0326 39.5523 47.4803 39 47.4803H33C32.4477 47.4803 32 47.0326 32 46.4803Z" fill="white" fill-opacity="0.6"/>
<path d="M60 27.9848C60 25.7757 61.7909 23.9848 64 23.9848H80C82.2091 23.9848 84 25.7757 84 27.9848V39.9848H60V27.9848Z" fill="black" fill-opacity="0.3"/>
<path fill-rule="evenodd" clip-rule="evenodd" d="M80 25.9848H64C62.8954 25.9848 62 26.8803 62 27.9848V37.9848H82V27.9848C82 26.8803 81.1046 25.9848 80 25.9848ZM64 23.9848C61.7909 23.9848 60 25.7757 60 27.9848V39.9848H84V27.9848C84 25.7757 82.2091 23.9848 80 23.9848H64Z" fill="white"/>
<path fill-rule="evenodd" clip-rule="evenodd" d="M63.5 39.9848H60V71.9848C60 74.194 61.7909 75.9848 64 75.9848H80C82.2091 75.9848 84 74.194 84 71.9848V39.9848H76.5C77.3284 39.9848 78 40.6564 78 41.4848C78 42.3133 77.3284 42.9848 76.5 42.9848H63.5C62.6716 42.9848 62 42.3133 62 41.4848C62 40.6564 62.6716 39.9848 63.5 39.9848ZM66 49.9848C65.4477 49.9848 65 50.4326 65 50.9848C65 51.5371 65.4477 51.9848 66 51.9848H77C77.5523 51.9848 78 51.5371 78 50.9848C78 50.4326 77.5523 49.9848 77 49.9848H66ZM65 53.9848C65 53.4326 65.4477 52.9848 66 52.9848H72C72.5523 52.9848 73 53.4326 73 53.9848C73 54.5371 72.5523 54.9848 72 54.9848H66C65.4477 54.9848 65 54.5371 65 53.9848ZM63 51.9848C63.5523 51.9848 64 51.5371 64 50.9848C64 50.4326 63.5523 49.9848 63 49.9848C62.4477 49.9848 62 50.4326 62 50.9848C62 51.5371 62.4477 51.9848 63 51.9848ZM64 53.9848C64 54.5371 63.5523 54.9848 63 54.9848C62.4477 54.9848 62 54.5371 62 53.9848C62 53.4326 62.4477 52.9848 63 52.9848C63.5523 52.9848 64 53.4326 64 53.9848ZM63.5 57.9848C62.6716 57.9848 62 58.6564 62 59.4848C62 60.3133 62.6716 60.9848 63.5 60.9848H80.5C81.3284 60.9848 82 60.3133 82 59.4848C82 58.6564 81.3284 57.9848 80.5 57.9848H63.5ZM62 64.4848C62 63.6564 62.6716 62.9848 63.5 62.9848H80.5C81.3284 62.9848 82 63.6564 82 64.4848C82 65.3133 81.3284 65.9848 80.5 65.9848H63.5C62.6716 65.9848 62 65.3133 62 64.4848ZM62 46.4848C62 45.9326 62.4477 45.4848 63 45.4848H69C69.5523 45.4848 70 45.9326 70 46.4848C70 47.0371 69.5523 47.4848 69 47.4848H63C62.4477 47.4848 62 47.0371 62 46.4848ZM63.5 68.9848C62.6716 68.9848 62 69.6564 62 70.4848C62 71.3133 62.6716 71.9848 63.5 71.9848H70.5C71.3284 71.9848 72 71.3133 72 70.4848C72 69.6564 71.3284 68.9848 70.5 68.9848H63.5Z" fill="white"/>
<path d="M62 70.4881C62 69.6597 62.6716 68.9881 63.5 68.9881H70.5C71.3284 68.9881 72 69.6597 72 70.4881C72 71.3166 71.3284 71.9881 70.5 71.9881H63.5C62.6716 71.9881 62 71.3166 62 70.4881Z" fill="black" fill-opacity="0.3"/>
<path d="M65 50.9787C65 50.4264 65.4477 49.9787 66 49.9787H77C77.5523 49.9787 78 50.4264 78 50.9787C78 51.531 77.5523 51.9787 77 51.9787H66C65.4477 51.9787 65 51.531 65 50.9787Z" fill="white" fill-opacity="0.6"/>
<path d="M65 53.9787C65 53.4264 65.4477 52.9787 66 52.9787H72C72.5523 52.9787 73 53.4264 73 53.9787C73 54.531 72.5523 54.9787 72 54.9787H66C65.4477 54.9787 65 54.531 65 53.9787Z" fill="white" fill-opacity="0.6"/>
<path d="M64 50.9787C64 51.531 63.5523 51.9787 63 51.9787C62.4477 51.9787 62 51.531 62 50.9787C62 50.4264 62.4477 49.9787 63 49.9787C63.5523 49.9787 64 50.4264 64 50.9787Z" fill="black" fill-opacity="0.2"/>
<path d="M64 53.9787C64 54.531 63.5523 54.9787 63 54.9787C62.4477 54.9787 62 54.531 62 53.9787C62 53.4264 62.4477 52.9787 63 52.9787C63.5523 52.9787 64 53.4264 64 53.9787Z" fill="black" fill-opacity="0.2"/>
<path fill-rule="evenodd" clip-rule="evenodd" d="M63.5 57.9787C62.6716 57.9787 62 58.6502 62 59.4787C62 60.3071 62.6716 60.9787 63.5 60.9787H80.5C81.3284 60.9787 82 60.3071 82 59.4787C82 58.6502 81.3284 57.9787 80.5 57.9787H63.5ZM79.6876 58.8842L80.2826 60.0092L80.8777 58.8842H79.6876Z" fill="white" fill-opacity="0.8"/>
<path fill-rule="evenodd" clip-rule="evenodd" d="M63.5 62.9787C62.6716 62.9787 62 63.6502 62 64.4787C62 65.3071 62.6716 65.9787 63.5 65.9787H80.5C81.3284 65.9787 82 65.3071 82 64.4787C82 63.6502 81.3284 62.9787 80.5 62.9787H63.5ZM79.6876 63.8842L80.2826 65.0092L80.8777 63.8842H79.6876Z" fill="white" fill-opacity="0.8"/>
<path d="M62 41.4803C62 40.6519 62.6716 39.9803 63.5 39.9803H76.5C77.3284 39.9803 78 40.6519 78 41.4803C78 42.3087 77.3284 42.9803 76.5 42.9803H63.5C62.6716 42.9803 62 42.3087 62 41.4803Z" fill="white" fill-opacity="0.3"/>
<path d="M62 46.4803C62 45.928 62.4477 45.4803 63 45.4803H69C69.5523 45.4803 70 45.928 70 46.4803C70 47.0326 69.5523 47.4803 69 47.4803H63C62.4477 47.4803 62 47.0326 62 46.4803Z" fill="white" fill-opacity="0.6"/>
<path d="M0 4.25781C0 2.04867 1.79086 0.257812 4 0.257812H62C64.2091 0.257812 66 2.04867 66 4.25781C66 6.46695 64.2091 8.25781 62 8.25781H4C1.79086 8.25781 0 6.46695 0 4.25781Z" fill="white" fill-opacity="0.3"/>
<path d="M0.000976562 15.0039C0.000976562 13.6728 1.08004 12.5938 2.41113 12.5938H49.874C51.2051 12.5938 52.2842 13.6728 52.2842 15.0039C52.2842 16.335 51.2051 17.4141 49.874 17.4141H2.41113C1.08004 17.4141 0.000976562 16.335 0.000976562 15.0039Z" fill="white" fill-opacity="0.5"/>
<path d="M0.000976562 82.4922C0.000976562 81.6638 0.672549 80.9922 1.50098 80.9922H34.501C35.3294 80.9922 36.001 81.6638 36.001 82.4922C36.001 83.3206 35.3294 83.9922 34.501 83.9922H1.50098C0.67255 83.9922 0.000976562 83.3206 0.000976562 82.4922Z" fill="white" fill-opacity="0.5"/>
</svg>
