<svg width="84" height="84" viewBox="0 0 84 84" fill="none" xmlns="http://www.w3.org/2000/svg">
<path fill-rule="evenodd" clip-rule="evenodd" d="M0 21.9964C0 19.7873 1.79086 17.9964 4 17.9964H80C82.2091 17.9964 84 19.7873 84 21.9964V61.9964C84 64.2055 82.2091 65.9964 80 65.9964H4C1.79086 65.9964 0 64.2055 0 61.9964V21.9964ZM14.083 27.3401L22.5378 41.9842H5.62827L14.083 27.3401ZM34.8291 30.0003C33.498 30.0003 32.4189 31.0794 32.4189 32.4105C32.4189 33.7416 33.498 34.8206 34.8291 34.8206H73.1104C74.4414 34.8206 75.5205 33.7416 75.5205 32.4105C75.5205 31.0794 74.4414 30.0003 73.1104 30.0003H34.8291ZM32.4189 42.3089C32.4189 40.9778 33.498 39.8987 34.8291 39.8987H73.1104C74.4414 39.8987 75.5205 40.9778 75.5205 42.3089C75.5205 43.64 74.4414 44.7191 73.1104 44.7191H34.8291C33.498 44.7191 32.4189 43.64 32.4189 42.3089ZM34.8291 49.7972C33.498 49.7972 32.4189 50.8762 32.4189 52.2073C32.4189 53.5384 33.498 54.6175 34.8291 54.6175H60.6338C61.9649 54.6175 63.0439 53.5384 63.0439 52.2073C63.0439 50.8762 61.9649 49.7972 60.6338 49.7972H34.8291Z" fill="white"/>
<path d="M32.4189 32.4105C32.4189 31.0794 33.498 30.0003 34.8291 30.0003H73.1104C74.4414 30.0003 75.5205 31.0794 75.5205 32.4105C75.5205 33.7416 74.4414 34.8206 73.1104 34.8206H34.8291C33.498 34.8206 32.4189 33.7416 32.4189 32.4105Z" fill="white" fill-opacity="0.7"/>
<path d="M32.4189 42.3089C32.4189 40.9778 33.498 39.8987 34.8291 39.8987H73.1104C74.4414 39.8987 75.5205 40.9778 75.5205 42.3089C75.5205 43.64 74.4414 44.7191 73.1104 44.7191H34.8291C33.498 44.7191 32.4189 43.64 32.4189 42.3089Z" fill="white" fill-opacity="0.7"/>
<path d="M32.4189 52.2073C32.4189 50.8762 33.498 49.7972 34.8291 49.7972H60.6338C61.9649 49.7972 63.0439 50.8762 63.0439 52.2073C63.0439 53.5384 61.9649 54.6175 60.6338 54.6175H34.8291C33.498 54.6175 32.4189 53.5384 32.4189 52.2073Z" fill="white" fill-opacity="0.7"/>
<path d="M14.083 27.3401L22.5378 41.9842H5.62827L14.083 27.3401Z" fill="black" fill-opacity="0.2"/>
<path d="M0 4C0 1.79086 1.79086 0 4 0H80C82.2091 0 84 1.79086 84 4V10C84 12.2091 82.2091 14 80 14H4C1.79086 14 0 12.2091 0 10V4Z" fill="black" fill-opacity="0.2"/>
<path d="M0 73.8008C0 71.5916 1.79086 69.8008 4 69.8008H80C82.2091 69.8008 84 71.5916 84 73.8008V79.8008C84 82.0099 82.2091 83.8008 80 83.8008H4C1.79086 83.8008 0 82.0099 0 79.8008V73.8008Z" fill="black" fill-opacity="0.2"/>
</svg>
