<svg width="84" height="84" viewBox="0 0 84 84" fill="none" xmlns="http://www.w3.org/2000/svg">
<path fill-rule="evenodd" clip-rule="evenodd" d="M4 0C1.79086 0 0 1.79086 0 4V80C0 82.2091 1.79086 84 4 84H20.9019C19.7591 83.9183 18.8574 82.9653 18.8574 81.8017V59.7616C18.8574 58.5443 19.8442 57.5576 21.0614 57.5576H62.9376C64.1548 57.5576 65.1416 58.5443 65.1416 59.7616V81.8017C65.1416 82.9653 64.2399 83.9183 63.0971 84H80C82.2091 84 84 82.2091 84 80V4C84 1.79086 82.2091 0 80 0H4ZM22.5869 2.00289C20.9301 2.00289 19.5869 3.34604 19.5869 5.00289C19.5869 6.65975 20.9301 8.00289 22.5869 8.00289H60.248C61.9049 8.00289 63.248 6.65975 63.248 5.00289C63.248 3.34604 61.9049 2.00289 60.248 2.00289H22.5869ZM20 13.6279C20 12.2472 21.1193 11.1279 22.5 11.1279H60.748C62.1288 11.1279 63.248 12.2472 63.248 13.6279C63.248 15.0086 62.1288 16.1279 60.748 16.1279H22.5C21.1193 16.1279 20 15.0086 20 13.6279ZM20 20.6123C20 19.2316 21.1193 18.1123 22.5 18.1123H60.748C62.1288 18.1123 63.248 19.2316 63.248 20.6123C63.248 21.993 62.1288 23.1123 60.748 23.1123H22.5C21.1193 23.1123 20 21.993 20 20.6123ZM22.5 25.0185C21.1193 25.0185 20 26.1378 20 27.5185C20 28.8992 21.1193 30.0185 22.5 30.0185H33.5C34.8807 30.0185 36 28.8992 36 27.5185C36 26.1378 34.8807 25.0185 33.5 25.0185H22.5ZM20 36.5029C20 35.1222 21.1193 34.0029 22.5 34.0029H60.748C62.1288 34.0029 63.248 35.1222 63.248 36.5029C63.248 37.8836 62.1288 39.0029 60.748 39.0029H22.5C21.1193 39.0029 20 37.8836 20 36.5029ZM29.5 42.1045C28.1193 42.1045 27 43.2237 27 44.6045C27 45.9852 28.1193 47.1045 29.5 47.1045H52.5C53.8807 47.1045 55 45.9852 55 44.6045C55 43.2237 53.8807 42.1045 52.5 42.1045H29.5ZM27 51.5029C27 50.1222 28.1193 49.0029 29.5 49.0029H40.5C41.8807 49.0029 43 50.1222 43 51.5029C43 52.8836 41.8807 54.0029 40.5 54.0029H29.5C28.1193 54.0029 27 52.8836 27 51.5029ZM22.5 47.1045C23.8807 47.1045 25 45.9852 25 44.6045C25 43.2237 23.8807 42.1045 22.5 42.1045C21.1193 42.1045 20 43.2237 20 44.6045C20 45.9852 21.1193 47.1045 22.5 47.1045ZM25 51.5029C25 52.8836 23.8807 54.0029 22.5 54.0029C21.1193 54.0029 20 52.8836 20 51.5029C20 50.1222 21.1193 49.0029 22.5 49.0029C23.8807 49.0029 25 50.1222 25 51.5029Z" fill="white"/>
<path d="M19.5869 4.99219C19.5869 3.33533 20.9301 1.99219 22.5869 1.99219H60.248C61.9049 1.99219 63.248 3.33533 63.248 4.99219C63.248 6.64904 61.9049 7.99219 60.248 7.99219H22.5869C20.9301 7.99219 19.5869 6.64904 19.5869 4.99219Z" fill="white" fill-opacity="0.3"/>
<path d="M20 20.6016C20 19.2209 21.1193 18.1016 22.5 18.1016H60.748C62.1288 18.1016 63.248 19.2209 63.248 20.6016C63.248 21.9823 62.1288 23.1016 60.748 23.1016H22.5C21.1193 23.1016 20 21.9823 20 20.6016Z" fill="white" fill-opacity="0.6"/>
<path d="M20 13.6172C20 12.2365 21.1193 11.1172 22.5 11.1172H60.748C62.1288 11.1172 63.248 12.2365 63.248 13.6172C63.248 14.9979 62.1288 16.1172 60.748 16.1172H22.5C21.1193 16.1172 20 14.9979 20 13.6172Z" fill="white" fill-opacity="0.6"/>
<path d="M20 27.5078C20 26.1271 21.1193 25.0078 22.5 25.0078H33.5C34.8807 25.0078 36 26.1271 36 27.5078C36 28.8885 34.8807 30.0078 33.5 30.0078H22.5C21.1193 30.0078 20 28.8885 20 27.5078Z" fill="white" fill-opacity="0.6"/>
<path d="M20 36.4922C20 35.1115 21.1193 33.9922 22.5 33.9922H60.748C62.1288 33.9922 63.248 35.1115 63.248 36.4922C63.248 37.8729 62.1288 38.9922 60.748 38.9922H22.5C21.1193 38.9922 20 37.8729 20 36.4922Z" fill="white" fill-opacity="0.3"/>
<path d="M27 44.5938C27 43.213 28.1193 42.0938 29.5 42.0938H52.5C53.8807 42.0938 55 43.213 55 44.5938C55 45.9745 53.8807 47.0938 52.5 47.0938H29.5C28.1193 47.0938 27 45.9745 27 44.5938Z" fill="white" fill-opacity="0.6"/>
<path d="M27 51.4922C27 50.1115 28.1193 48.9922 29.5 48.9922H40.5C41.8807 48.9922 43 50.1115 43 51.4922C43 52.8729 41.8807 53.9922 40.5 53.9922H29.5C28.1193 53.9922 27 52.8729 27 51.4922Z" fill="white" fill-opacity="0.6"/>
<path d="M25 44.5938C25 45.9745 23.8807 47.0938 22.5 47.0938C21.1193 47.0938 20 45.9745 20 44.5938C20 43.213 21.1193 42.0938 22.5 42.0938C23.8807 42.0938 25 43.213 25 44.5938Z" fill="black" fill-opacity="0.2"/>
<path d="M25 51.4922C25 52.8729 23.8807 53.9922 22.5 53.9922C21.1193 53.9922 20 52.8729 20 51.4922C20 50.1115 21.1193 48.9922 22.5 48.9922C23.8807 48.9922 25 50.1115 25 51.4922Z" fill="black" fill-opacity="0.2"/>
<path fill-rule="evenodd" clip-rule="evenodd" d="M62.9375 59.7468H21.0613V81.7869H62.9375V59.7468ZM23.2659 63.3284C23.2659 62.5676 23.8826 61.9509 24.6434 61.9509H43.9285C44.6892 61.9509 45.306 62.5676 45.306 63.3284C45.306 64.0891 44.6892 64.7059 43.9285 64.7059H24.6434C23.8826 64.7059 23.2659 64.0891 23.2659 63.3284ZM23.2659 78.2054C23.2659 77.4446 23.8826 76.8279 24.6434 76.8279H59.3565C60.1173 76.8279 60.734 77.4446 60.734 78.2054C60.734 78.9662 60.1173 79.5829 59.3565 79.5829H24.6434C23.8826 79.5829 23.2659 78.9662 23.2659 78.2054ZM29.0514 66.9099C28.2906 66.9099 27.6739 67.5266 27.6739 68.2874C27.6739 69.0482 28.2906 69.6649 29.0514 69.6649H59.3565C60.1173 69.6649 60.734 69.0482 60.734 68.2874C60.734 67.5266 60.1173 66.9099 59.3565 66.9099H29.0514ZM23.2659 68.2874C23.2659 67.5266 23.8826 66.9099 24.6434 66.9099C25.4042 66.9099 26.0209 67.5266 26.0209 68.2874C26.0209 69.0482 25.4042 69.6649 24.6434 69.6649C23.8826 69.6649 23.2659 69.0482 23.2659 68.2874ZM29.0514 71.8689C28.2906 71.8689 27.6739 72.4856 27.6739 73.2464C27.6739 74.0072 28.2906 74.6239 29.0514 74.6239H51.6425C52.4033 74.6239 53.02 74.0072 53.02 73.2464C53.02 72.4856 52.4033 71.8689 51.6425 71.8689H29.0514ZM23.2659 73.2464C23.2659 72.4856 23.8826 71.8689 24.6434 71.8689C25.4042 71.8689 26.0209 72.4856 26.0209 73.2464C26.0209 74.0072 25.4042 74.6239 24.6434 74.6239C23.8826 74.6239 23.2659 74.0072 23.2659 73.2464Z" fill="white"/>
<path fill-rule="evenodd" clip-rule="evenodd" d="M62.9376 59.7509H21.0614V81.791H62.9376V59.7509ZM21.0614 57.5469C19.8442 57.5469 18.8574 58.5336 18.8574 59.7509V81.791C18.8574 83.0082 19.8442 83.995 21.0614 83.995H62.9376C64.1548 83.995 65.1416 83.0082 65.1416 81.791V59.7509C65.1416 58.5336 64.1548 57.5469 62.9376 57.5469H21.0614Z" fill="black" fill-opacity="0.6"/>
<path d="M23.266 63.3324C23.266 62.5716 23.8827 61.9549 24.6435 61.9549H43.9286C44.6893 61.9549 45.3061 62.5716 45.3061 63.3324C45.3061 64.0932 44.6893 64.7099 43.9286 64.7099H24.6435C23.8827 64.7099 23.266 64.0932 23.266 63.3324Z" fill="black" fill-opacity="0.2"/>
<path d="M23.266 78.2095C23.266 77.4487 23.8827 76.8319 24.6435 76.8319H59.3566C60.1174 76.8319 60.7341 77.4487 60.7341 78.2095C60.7341 78.9702 60.1174 79.587 59.3566 79.587H24.6435C23.8827 79.587 23.266 78.9702 23.266 78.2095Z" fill="white" fill-opacity="0.5"/>
<path d="M27.674 68.2914C27.674 67.5306 28.2907 66.9139 29.0515 66.9139H59.3566C60.1174 66.9139 60.7341 67.5306 60.7341 68.2914C60.7341 69.0522 60.1174 69.6689 59.3566 69.6689H29.0515C28.2907 69.6689 27.674 69.0522 27.674 68.2914Z" fill="white" fill-opacity="0.5"/>
<path d="M23.266 68.2914C23.266 67.5306 23.8827 66.9139 24.6435 66.9139C25.4043 66.9139 26.021 67.5306 26.021 68.2914C26.021 69.0522 25.4043 69.6689 24.6435 69.6689C23.8827 69.6689 23.266 69.0522 23.266 68.2914Z" fill="black" fill-opacity="0.6"/>
<path d="M27.674 73.2504C27.674 72.4897 28.2907 71.8729 29.0515 71.8729H51.6426C52.4034 71.8729 53.0201 72.4897 53.0201 73.2504C53.0201 74.0112 52.4034 74.6279 51.6426 74.6279H29.0515C28.2907 74.6279 27.674 74.0112 27.674 73.2504Z" fill="white" fill-opacity="0.5"/>
<path d="M23.266 73.2504C23.266 72.4897 23.8827 71.8729 24.6435 71.8729C25.4043 71.8729 26.021 72.4897 26.021 73.2504C26.021 74.0112 25.4043 74.6279 24.6435 74.6279C23.8827 74.6279 23.266 74.0112 23.266 73.2504Z" fill="black" fill-opacity="0.6"/>
</svg>
