<svg width="84" height="84" viewBox="0 0 84 84" fill="none" xmlns="http://www.w3.org/2000/svg">
<path fill-rule="evenodd" clip-rule="evenodd" d="M4 18.8248H80C81.1046 18.8248 82 19.7202 82 20.8248V62.8248C82 63.9293 81.1046 64.8248 80 64.8248H4C2.89543 64.8248 2 63.9293 2 62.8248V20.8248C2 19.7202 2.89543 18.8248 4 18.8248ZM18 56.4263C18 54.2172 19.7909 52.4263 22 52.4263H62C64.2091 52.4263 66 54.2172 66 56.4263C66 58.6355 64.2091 60.4263 62 60.4263H22C19.7909 60.4263 18 58.6355 18 56.4263ZM31.6478 31.9182C30.0857 33.4803 30.0857 36.013 31.6478 37.5751L39.1726 45.0999C40.7347 46.662 43.2674 46.662 44.8295 45.0999L52.3543 37.5751C53.9164 36.013 53.9164 33.4803 52.3543 31.9182L44.8295 24.3934C43.2674 22.8313 40.7347 22.8313 39.1726 24.3934L31.6478 31.9182Z" fill="white"/>
<path fill-rule="evenodd" clip-rule="evenodd" d="M80 18.8233H4C2.89543 18.8233 2 19.7187 2 20.8233V62.8233C2 63.9278 2.89543 64.8233 4 64.8233H80C81.1046 64.8233 82 63.9278 82 62.8233V20.8233C82 19.7187 81.1046 18.8233 80 18.8233ZM4 16.8233C1.79086 16.8233 0 18.6141 0 20.8233V62.8233C0 65.0324 1.79086 66.8233 4 66.8233H80C82.2091 66.8233 84 65.0324 84 62.8233V20.8233C84 18.6141 82.2091 16.8233 80 16.8233H4Z" fill="black" fill-opacity="0.6"/>
<path d="M18 56.4248C18 54.2157 19.7909 52.4248 22 52.4248H62C64.2091 52.4248 66 54.2157 66 56.4248C66 58.634 64.2091 60.4248 62 60.4248H22C19.7909 60.4248 18 58.634 18 56.4248Z" fill="black" fill-opacity="0.2"/>
<path d="M31.6478 37.5658C30.0857 36.0037 30.0857 33.471 31.6478 31.9089L39.1726 24.3841C40.7347 22.822 43.2674 22.822 44.8295 24.3841L52.3543 31.9089C53.9164 33.471 53.9164 36.0037 52.3543 37.5658L44.8295 45.0906C43.2674 46.6527 40.7347 46.6527 39.1726 45.0906L31.6478 37.5658Z" fill="white" fill-opacity="0.5"/>
</svg>
