<svg width="84" height="84" viewBox="0 0 84 84" fill="none" xmlns="http://www.w3.org/2000/svg">
<path d="M0 4C0 1.79086 1.79086 0 4 0H80C82.2091 0 84 1.79086 84 4V7.76423C84 9.97337 82.2091 11.7642 80 11.7642H4C1.79086 11.7642 0 9.97337 0 7.76423V4Z" fill="white" fill-opacity="0.6"/>
<path fill-rule="evenodd" clip-rule="evenodd" d="M5.81557 67.0046C7.04076 67.0046 8.07657 65.9962 8.07657 64.6996C8.07657 63.4029 7.04076 62.3945 5.81557 62.3945C4.59038 62.3945 3.55456 63.4029 3.55456 64.6996C3.55456 65.9962 4.59038 67.0046 5.81557 67.0046ZM5.81557 70.0046C8.72114 70.0046 11.0766 67.6295 11.0766 64.6996C11.0766 61.7697 8.72114 59.3945 5.81557 59.3945C2.91 59.3945 0.554564 61.7697 0.554564 64.6996C0.554564 67.6295 2.91 70.0046 5.81557 70.0046Z" fill="white"/>
<path d="M10.8305 78.6996C10.8305 81.6295 8.47505 84.0046 5.56947 84.0046C2.6639 84.0046 0.308471 81.6295 0.308471 78.6996C0.308471 75.7697 2.6639 73.3945 5.56947 73.3945C8.47505 73.3945 10.8305 75.7697 10.8305 78.6996Z" fill="white" fill-opacity="0.6"/>
<path d="M15.4188 65.3086C15.4188 63.9775 16.4979 62.8984 17.829 62.8984H56.1102C57.4413 62.8984 58.5204 63.9775 58.5204 65.3086C58.5204 66.6397 57.4413 67.7188 56.1102 67.7188H17.829C16.4979 67.7188 15.4188 66.6397 15.4188 65.3086Z" fill="black" fill-opacity="0.4"/>
<path d="M15.4188 78.1289C15.4188 76.7978 16.4979 75.7188 17.829 75.7188H43.6337C44.9648 75.7188 46.0438 76.7978 46.0438 78.1289C46.0438 79.46 44.9648 80.5391 43.6337 80.5391H17.829C16.4979 80.5391 15.4188 79.46 15.4188 78.1289Z" fill="black" fill-opacity="0.2"/>
<path d="M15.9999 23.0491C15.9999 25.2767 14.209 27.0826 11.9999 27.0826C9.79074 27.0826 7.99988 25.2767 7.99988 23.0491C7.99988 20.8215 9.79074 19.0156 11.9999 19.0156C14.209 19.0156 15.9999 20.8215 15.9999 23.0491Z" fill="white" fill-opacity="0.4"/>
<path d="M27.9999 23.0491C27.9999 25.2767 26.209 27.0826 23.9999 27.0826C21.7907 27.0826 19.9999 25.2767 19.9999 23.0491C19.9999 20.8215 21.7907 19.0156 23.9999 19.0156C26.209 19.0156 27.9999 20.8215 27.9999 23.0491Z" fill="white" fill-opacity="0.4"/>
<path d="M39.9999 23.0491C39.9999 25.2767 38.209 27.0826 35.9999 27.0826C33.7907 27.0826 31.9999 25.2767 31.9999 23.0491C31.9999 20.8215 33.7907 19.0156 35.9999 19.0156C38.209 19.0156 39.9999 20.8215 39.9999 23.0491Z" fill="white" fill-opacity="0.4"/>
<path d="M51.9999 23.0491C51.9999 25.2767 50.209 27.0826 47.9999 27.0826C45.7907 27.0826 43.9999 25.2767 43.9999 23.0491C43.9999 20.8215 45.7907 19.0156 47.9999 19.0156C50.209 19.0156 51.9999 20.8215 51.9999 23.0491Z" fill="white" fill-opacity="0.4"/>
<path d="M63.9999 23.0491C63.9999 25.2767 62.209 27.0826 59.9999 27.0826C57.7907 27.0826 55.9999 25.2767 55.9999 23.0491C55.9999 20.8215 57.7907 19.0156 59.9999 19.0156C62.209 19.0156 63.9999 20.8215 63.9999 23.0491Z" fill="white" fill-opacity="0.4"/>
<path d="M75.9999 23.0491C75.9999 25.2767 74.209 27.0826 71.9999 27.0826C69.7907 27.0826 67.9999 25.2767 67.9999 23.0491C67.9999 20.8215 69.7907 19.0156 71.9999 19.0156C74.209 19.0156 75.9999 20.8215 75.9999 23.0491Z" fill="white" fill-opacity="0.4"/>
<path d="M15.9999 35.1155C15.9999 37.3431 14.209 39.149 11.9999 39.149C9.79074 39.149 7.99988 37.3431 7.99988 35.1155C7.99988 32.8879 9.79074 31.082 11.9999 31.082C14.209 31.082 15.9999 32.8879 15.9999 35.1155Z" fill="white" fill-opacity="0.4"/>
<path d="M27.9999 35.1155C27.9999 37.3431 26.209 39.149 23.9999 39.149C21.7907 39.149 19.9999 37.3431 19.9999 35.1155C19.9999 32.8879 21.7907 31.082 23.9999 31.082C26.209 31.082 27.9999 32.8879 27.9999 35.1155Z" fill="white" fill-opacity="0.4"/>
<path d="M39.9999 35.1155C39.9999 37.3431 38.209 39.149 35.9999 39.149C33.7907 39.149 31.9999 37.3431 31.9999 35.1155C31.9999 32.8879 33.7907 31.082 35.9999 31.082C38.209 31.082 39.9999 32.8879 39.9999 35.1155Z" fill="white" fill-opacity="0.4"/>
<path d="M51.9999 35.1155C51.9999 37.3431 50.209 39.149 47.9999 39.149C45.7907 39.149 43.9999 37.3431 43.9999 35.1155C43.9999 32.8879 45.7907 31.082 47.9999 31.082C50.209 31.082 51.9999 32.8879 51.9999 35.1155Z" fill="white" fill-opacity="0.4"/>
<path d="M63.9999 35.1155C63.9999 37.3431 62.209 39.149 59.9999 39.149C57.7907 39.149 55.9999 37.3431 55.9999 35.1155C55.9999 32.8879 57.7907 31.082 59.9999 31.082C62.209 31.082 63.9999 32.8879 63.9999 35.1155Z" fill="white" fill-opacity="0.4"/>
<path d="M75.9999 35.1155C75.9999 37.3431 74.209 39.149 71.9999 39.149C69.7907 39.149 67.9999 37.3431 67.9999 35.1155C67.9999 32.8879 69.7907 31.082 71.9999 31.082C74.209 31.082 75.9999 32.8879 75.9999 35.1155Z" fill="white" fill-opacity="0.4"/>
<path d="M15.9999 47.1819C15.9999 49.4095 14.209 51.2154 11.9999 51.2154C9.79074 51.2154 7.99988 49.4095 7.99988 47.1819C7.99988 44.9543 9.79074 43.1484 11.9999 43.1484C14.209 43.1484 15.9999 44.9543 15.9999 47.1819Z" fill="white" fill-opacity="0.4"/>
<path d="M27.9999 47.1819C27.9999 49.4095 26.209 51.2154 23.9999 51.2154C21.7907 51.2154 19.9999 49.4095 19.9999 47.1819C19.9999 44.9543 21.7907 43.1484 23.9999 43.1484C26.209 43.1484 27.9999 44.9543 27.9999 47.1819Z" fill="white" fill-opacity="0.4"/>
<path d="M39.9999 47.1819C39.9999 49.4095 38.209 51.2154 35.9999 51.2154C33.7907 51.2154 31.9999 49.4095 31.9999 47.1819C31.9999 44.9543 33.7907 43.1484 35.9999 43.1484C38.209 43.1484 39.9999 44.9543 39.9999 47.1819Z" fill="white" fill-opacity="0.4"/>
<path d="M51.9999 47.1819C51.9999 49.4095 50.209 51.2154 47.9999 51.2154C45.7907 51.2154 43.9999 49.4095 43.9999 47.1819C43.9999 44.9543 45.7907 43.1484 47.9999 43.1484C50.209 43.1484 51.9999 44.9543 51.9999 47.1819Z" fill="white" fill-opacity="0.4"/>
<path fill-rule="evenodd" clip-rule="evenodd" d="M31.9999 35.1155C31.9999 39.5208 28.4495 43.1484 23.9999 43.1484C19.5502 43.1484 15.9999 39.5208 15.9999 35.1155C15.9999 30.7102 19.5502 27.0826 23.9999 27.0826C28.4495 27.0826 31.9999 30.7102 31.9999 35.1155ZM23.9999 39.149C26.209 39.149 27.9999 37.3431 27.9999 35.1155C27.9999 32.8879 26.209 31.082 23.9999 31.082C21.7907 31.082 19.9999 32.8879 19.9999 35.1155C19.9999 37.3431 21.7907 39.149 23.9999 39.149Z" fill="black" fill-opacity="0.4"/>
<path d="M27.9999 35.1155C27.9999 37.3431 26.209 39.149 23.9999 39.149C21.7907 39.149 19.9999 37.3431 19.9999 35.1155C19.9999 32.8879 21.7907 31.082 23.9999 31.082C26.209 31.082 27.9999 32.8879 27.9999 35.1155Z" fill="white"/>
</svg>
