<svg width="84" height="84" viewBox="0 0 84 84" fill="none" xmlns="http://www.w3.org/2000/svg">
<path d="M0 4.00391C0 1.79477 1.79086 0.00390625 4 0.00390625H80C82.2091 0.00390625 84 1.79477 84 4.00391V7.76814C84 9.97727 82.2091 11.7681 80 11.7681H4C1.79086 11.7681 0 9.97728 0 7.76814V4.00391Z" fill="white" fill-opacity="0.6"/>
<path d="M15.9999 23.053C15.9999 25.2806 14.209 27.0865 11.9999 27.0865C9.79074 27.0865 7.99988 25.2806 7.99988 23.053C7.99988 20.8254 9.79074 19.0195 11.9999 19.0195C14.209 19.0195 15.9999 20.8254 15.9999 23.053Z" fill="white" fill-opacity="0.4"/>
<path d="M27.9999 23.053C27.9999 25.2806 26.209 27.0865 23.9999 27.0865C21.7907 27.0865 19.9999 25.2806 19.9999 23.053C19.9999 20.8254 21.7907 19.0195 23.9999 19.0195C26.209 19.0195 27.9999 20.8254 27.9999 23.053Z" fill="white" fill-opacity="0.4"/>
<path d="M39.9999 23.053C39.9999 25.2806 38.209 27.0865 35.9999 27.0865C33.7907 27.0865 31.9999 25.2806 31.9999 23.053C31.9999 20.8254 33.7907 19.0195 35.9999 19.0195C38.209 19.0195 39.9999 20.8254 39.9999 23.053Z" fill="white" fill-opacity="0.4"/>
<path d="M51.9999 23.053C51.9999 25.2806 50.209 27.0865 47.9999 27.0865C45.7907 27.0865 43.9999 25.2806 43.9999 23.053C43.9999 20.8254 45.7907 19.0195 47.9999 19.0195C50.209 19.0195 51.9999 20.8254 51.9999 23.053Z" fill="white" fill-opacity="0.4"/>
<path d="M63.9999 23.053C63.9999 25.2806 62.209 27.0865 59.9999 27.0865C57.7907 27.0865 55.9999 25.2806 55.9999 23.053C55.9999 20.8254 57.7907 19.0195 59.9999 19.0195C62.209 19.0195 63.9999 20.8254 63.9999 23.053Z" fill="white" fill-opacity="0.4"/>
<path d="M75.9999 23.053C75.9999 25.2806 74.209 27.0865 71.9999 27.0865C69.7907 27.0865 67.9999 25.2806 67.9999 23.053C67.9999 20.8254 69.7907 19.0195 71.9999 19.0195C74.209 19.0195 75.9999 20.8254 75.9999 23.053Z" fill="white" fill-opacity="0.4"/>
<path d="M15.9999 35.1194C15.9999 37.347 14.209 39.1529 11.9999 39.1529C9.79074 39.1529 7.99988 37.347 7.99988 35.1194C7.99988 32.8918 9.79074 31.0859 11.9999 31.0859C14.209 31.0859 15.9999 32.8918 15.9999 35.1194Z" fill="white" fill-opacity="0.4"/>
<path d="M27.9999 35.1194C27.9999 37.347 26.209 39.1529 23.9999 39.1529C21.7907 39.1529 19.9999 37.347 19.9999 35.1194C19.9999 32.8918 21.7907 31.0859 23.9999 31.0859C26.209 31.0859 27.9999 32.8918 27.9999 35.1194Z" fill="white" fill-opacity="0.4"/>
<path d="M39.9999 35.1194C39.9999 37.347 38.209 39.1529 35.9999 39.1529C33.7907 39.1529 31.9999 37.347 31.9999 35.1194C31.9999 32.8918 33.7907 31.0859 35.9999 31.0859C38.209 31.0859 39.9999 32.8918 39.9999 35.1194Z" fill="white" fill-opacity="0.4"/>
<path d="M51.9999 35.1194C51.9999 37.347 50.209 39.1529 47.9999 39.1529C45.7907 39.1529 43.9999 37.347 43.9999 35.1194C43.9999 32.8918 45.7907 31.0859 47.9999 31.0859C50.209 31.0859 51.9999 32.8918 51.9999 35.1194Z" fill="white" fill-opacity="0.4"/>
<path d="M63.9999 35.1194C63.9999 37.347 62.209 39.1529 59.9999 39.1529C57.7907 39.1529 55.9999 37.347 55.9999 35.1194C55.9999 32.8918 57.7907 31.0859 59.9999 31.0859C62.209 31.0859 63.9999 32.8918 63.9999 35.1194Z" fill="white" fill-opacity="0.4"/>
<path d="M75.9999 35.1194C75.9999 37.347 74.209 39.1529 71.9999 39.1529C69.7907 39.1529 67.9999 37.347 67.9999 35.1194C67.9999 32.8918 69.7907 31.0859 71.9999 31.0859C74.209 31.0859 75.9999 32.8918 75.9999 35.1194Z" fill="white" fill-opacity="0.4"/>
<path d="M15.9999 47.1194C15.9999 49.347 14.209 51.1529 11.9999 51.1529C9.79074 51.1529 7.99988 49.347 7.99988 47.1194C7.99988 44.8918 9.79074 43.0859 11.9999 43.0859C14.209 43.0859 15.9999 44.8918 15.9999 47.1194Z" fill="white" fill-opacity="0.4"/>
<path d="M27.9999 47.1194C27.9999 49.347 26.209 51.1529 23.9999 51.1529C21.7907 51.1529 19.9999 49.347 19.9999 47.1194C19.9999 44.8918 21.7907 43.0859 23.9999 43.0859C26.209 43.0859 27.9999 44.8918 27.9999 47.1194Z" fill="white" fill-opacity="0.4"/>
<path d="M39.9999 47.1194C39.9999 49.347 38.209 51.1529 35.9999 51.1529C33.7907 51.1529 31.9999 49.347 31.9999 47.1194C31.9999 44.8918 33.7907 43.0859 35.9999 43.0859C38.209 43.0859 39.9999 44.8918 39.9999 47.1194Z" fill="white" fill-opacity="0.4"/>
<path d="M51.9999 47.1194C51.9999 49.347 50.209 51.1529 47.9999 51.1529C45.7907 51.1529 43.9999 49.347 43.9999 47.1194C43.9999 44.8918 45.7907 43.0859 47.9999 43.0859C50.209 43.0859 51.9999 44.8918 51.9999 47.1194Z" fill="white" fill-opacity="0.4"/>
<path d="M63.9999 47.1194C63.9999 49.347 62.209 51.1529 59.9999 51.1529C57.7907 51.1529 55.9999 49.347 55.9999 47.1194C55.9999 44.8918 57.7907 43.0859 59.9999 43.0859C62.209 43.0859 63.9999 44.8918 63.9999 47.1194Z" fill="white" fill-opacity="0.4"/>
<path d="M75.9999 47.1194C75.9999 49.347 74.209 51.1529 71.9999 51.1529C69.7907 51.1529 67.9999 49.347 67.9999 47.1194C67.9999 44.8918 69.7907 43.0859 71.9999 43.0859C74.209 43.0859 75.9999 44.8918 75.9999 47.1194Z" fill="white" fill-opacity="0.4"/>
<path d="M15.9999 59.1858C15.9999 61.4135 14.209 63.2193 11.9999 63.2193C9.79074 63.2193 7.99988 61.4135 7.99988 59.1858C7.99988 56.9582 9.79074 55.1523 11.9999 55.1523C14.209 55.1523 15.9999 56.9582 15.9999 59.1858Z" fill="white" fill-opacity="0.4"/>
<path d="M27.9999 59.1858C27.9999 61.4135 26.209 63.2193 23.9999 63.2193C21.7907 63.2193 19.9999 61.4135 19.9999 59.1858C19.9999 56.9582 21.7907 55.1523 23.9999 55.1523C26.209 55.1523 27.9999 56.9582 27.9999 59.1858Z" fill="white" fill-opacity="0.4"/>
<path d="M39.9999 59.1858C39.9999 61.4135 38.209 63.2193 35.9999 63.2193C33.7907 63.2193 31.9999 61.4135 31.9999 59.1858C31.9999 56.9582 33.7907 55.1523 35.9999 55.1523C38.209 55.1523 39.9999 56.9582 39.9999 59.1858Z" fill="white" fill-opacity="0.4"/>
<path d="M51.9999 59.1858C51.9999 61.4135 50.209 63.2193 47.9999 63.2193C45.7907 63.2193 43.9999 61.4135 43.9999 59.1858C43.9999 56.9582 45.7907 55.1523 47.9999 55.1523C50.209 55.1523 51.9999 56.9582 51.9999 59.1858Z" fill="white" fill-opacity="0.4"/>
<path d="M27.9999 35.1194C27.9999 37.347 26.209 39.1529 23.9999 39.1529C21.7907 39.1529 19.9999 37.347 19.9999 35.1194C19.9999 32.8918 21.7907 31.0859 23.9999 31.0859C26.209 31.0859 27.9999 32.8918 27.9999 35.1194Z" fill="white"/>
<path fill-rule="evenodd" clip-rule="evenodd" d="M31.9999 35.1194C31.9999 39.5247 28.4495 43.1529 23.9999 43.1529C19.5502 43.1529 15.9999 39.5247 15.9999 35.1194C15.9999 30.7141 19.5502 27.0865 23.9999 27.0865C28.4495 27.0865 31.9999 30.7141 31.9999 35.1194ZM23.9999 39.1529C26.209 39.1529 27.9999 37.347 27.9999 35.1194C27.9999 32.8918 26.209 31.0859 23.9999 31.0859C21.7907 31.0859 19.9999 32.8918 19.9999 35.1194C19.9999 37.347 21.7907 39.1529 23.9999 39.1529Z" fill="black" fill-opacity="0.4"/>
</svg>
