<svg width="84" height="84" viewBox="0 0 84 84" fill="none" xmlns="http://www.w3.org/2000/svg">
<path d="M0 4C0 1.79086 1.79086 0 4 0H80C82.2091 0 84 1.79086 84 4V42H0V4Z" fill="black" fill-opacity="0.2"/>
<path fill-rule="evenodd" clip-rule="evenodd" d="M80 4H4V38H80V4ZM4 0C1.79086 0 0 1.79086 0 4V42H84V4C84 1.79086 82.2091 0 80 0H4Z" fill="white"/>
<path fill-rule="evenodd" clip-rule="evenodd" d="M84 42H0V80C0 82.2091 1.79086 84 4 84H80C82.2091 84 84 82.2091 84 80V42ZM4.41895 49.8711C4.41895 47.69 6.18707 45.9219 8.36816 45.9219H67.1982C69.3793 45.9219 71.1475 47.69 71.1475 49.8711C71.1475 52.0522 69.3793 53.8203 67.1982 53.8203H8.36816C6.18707 53.8203 4.41895 52.0522 4.41895 49.8711ZM4.41895 61.3086C4.41895 59.9775 5.49801 58.8984 6.8291 58.8984H54.292C55.6231 58.8984 56.7021 59.9775 56.7021 61.3086C56.7021 62.6397 55.6231 63.7188 54.292 63.7188H6.8291C5.49801 63.7188 4.41895 62.6397 4.41895 61.3086ZM8.26074 68.7969C6.13898 68.7969 4.41895 70.5169 4.41895 72.6387C4.41895 74.7604 6.13898 76.4805 8.26075 76.4805H40.2324C42.3541 76.4805 44.0742 74.7604 44.0742 72.6387C44.0742 70.5169 42.3541 68.7969 40.2324 68.7969H8.26074Z" fill="white"/>
<path d="M4.41895 49.8711C4.41895 47.69 6.18707 45.9219 8.36816 45.9219H67.1982C69.3793 45.9219 71.1475 47.69 71.1475 49.8711C71.1475 52.0522 69.3793 53.8203 67.1982 53.8203H8.36816C6.18707 53.8203 4.41895 52.0522 4.41895 49.8711Z" fill="white" fill-opacity="0.3"/>
<path d="M4.41895 61.3086C4.41895 59.9775 5.49801 58.8984 6.8291 58.8984H54.292C55.6231 58.8984 56.7021 59.9775 56.7021 61.3086C56.7021 62.6397 55.6231 63.7188 54.292 63.7188H6.8291C5.49801 63.7188 4.41895 62.6397 4.41895 61.3086Z" fill="white" fill-opacity="0.6"/>
<path d="M4.41895 72.6387C4.41895 70.5169 6.13898 68.7969 8.26074 68.7969H40.2324C42.3541 68.7969 44.0742 70.5169 44.0742 72.6387C44.0742 74.7604 42.3541 76.4805 40.2324 76.4805H8.26075C6.13898 76.4805 4.41895 74.7604 4.41895 72.6387Z" fill="black" fill-opacity="0.2"/>
</svg>
