<svg width="84" height="84" viewBox="0 0 84 84" fill="none" xmlns="http://www.w3.org/2000/svg">
<path fill-rule="evenodd" clip-rule="evenodd" d="M4 -0.0078125C1.79086 -0.0078125 0 1.78305 0 3.99219V79.9922C0 82.2013 1.79086 83.9922 4 83.9922H6.01172C3.80258 83.9922 2.01172 82.2013 2.01172 79.9922V60.9922C2.01172 58.7831 3.80258 56.9922 6.01172 56.9922H46.0117C48.2209 56.9922 50.0117 58.7831 50.0117 60.9922V79.9922C50.0117 82.2013 48.2209 83.9922 46.0117 83.9922H80C82.2091 83.9922 84 82.2013 84 79.9922V3.99219C84 1.78305 82.2091 -0.0078125 80 -0.0078125H4ZM4.58691 1.99219C2.93006 1.99219 1.58691 3.33533 1.58691 4.99219C1.58691 6.64904 2.93006 7.99219 4.58692 7.99219H58.5869C60.2438 7.99219 61.5869 6.64904 61.5869 4.99219C61.5869 3.33533 60.2438 1.99219 58.5869 1.99219H4.58691ZM2 20.6016C2 19.2208 3.11929 18.1016 4.5 18.1016H79.5C80.8807 18.1016 82 19.2208 82 20.6016C82 21.9823 80.8807 23.1016 79.5 23.1016H4.5C3.11929 23.1016 2 21.9823 2 20.6016ZM4.5 11.1172C3.11929 11.1172 2 12.2365 2 13.6172C2 14.9979 3.11929 16.1172 4.5 16.1172H79.5C80.8807 16.1172 82 14.9979 82 13.6172C82 12.2365 80.8807 11.1172 79.5 11.1172H4.5ZM2 27.5078C2 26.1271 3.11929 25.0078 4.5 25.0078H15.5C16.8807 25.0078 18 26.1271 18 27.5078C18 28.8885 16.8807 30.0078 15.5 30.0078H4.5C3.11929 30.0078 2 28.8885 2 27.5078ZM4.5 33.9922C3.11929 33.9922 2 35.1115 2 36.4922C2 37.8729 3.11929 38.9922 4.5 38.9922H59.5C60.8807 38.9922 62 37.8729 62 36.4922C62 35.1115 60.8807 33.9922 59.5 33.9922H4.5ZM9 44.5938C9 43.213 10.1193 42.0938 11.5 42.0938H58.5C59.8807 42.0938 61 43.213 61 44.5938C61 45.9745 59.8807 47.0938 58.5 47.0938H11.5C10.1193 47.0938 9 45.9745 9 44.5938ZM11.5 48.9922C10.1193 48.9922 9 50.1115 9 51.4922C9 52.8729 10.1193 53.9922 11.5 53.9922H36.5C37.8807 53.9922 39 52.8729 39 51.4922C39 50.1115 37.8807 48.9922 36.5 48.9922H11.5ZM7 44.5938C7 45.9745 5.88071 47.0938 4.5 47.0938C3.11929 47.0938 2 45.9745 2 44.5938C2 43.213 3.11929 42.0938 4.5 42.0938C5.88071 42.0938 7 43.213 7 44.5938ZM4.5 53.9922C5.88071 53.9922 7 52.8729 7 51.4922C7 50.1115 5.88071 48.9922 4.5 48.9922C3.11929 48.9922 2 50.1115 2 51.4922C2 52.8729 3.11929 53.9922 4.5 53.9922Z" fill="white"/>
<path fill-rule="evenodd" clip-rule="evenodd" d="M6.01172 56.9885C3.80258 56.9885 2.01172 58.7794 2.01172 60.9885V79.9885C2.01172 82.1977 3.80258 83.9885 6.01172 83.9885H46.0117C48.2209 83.9885 50.0117 82.1977 50.0117 79.9885V60.9885C50.0117 58.7794 48.2209 56.9885 46.0117 56.9885H6.01172ZM20.4975 66.3291C20.9675 65.3677 22.3377 65.3677 22.8076 66.3291L26.989 74.8834L28.7561 71.2684C29.226 70.307 30.5962 70.307 31.0662 71.2684L34.9671 79.2488C35.3846 80.103 34.7628 81.0991 33.8121 81.0991H26.0102C25.9978 81.0991 25.9854 81.0989 25.9731 81.0986C25.9667 81.0984 25.9603 81.0982 25.9539 81.0979H15.3379C14.3872 81.0979 13.7653 80.1018 14.1828 79.2477L20.4975 66.3291Z" fill="black" fill-opacity="0.3"/>
<path d="M33.1429 63.7413C33.1429 65.3389 31.8478 66.634 30.2502 66.634C28.6526 66.634 27.3574 65.3389 27.3574 63.7413C27.3574 62.1436 28.6526 60.8485 30.2502 60.8485C31.8478 60.8485 33.1429 62.1436 33.1429 63.7413Z" fill="white"/>
<path d="M22.8079 66.3274C22.3379 65.366 20.9677 65.366 20.4977 66.3274L14.183 79.2459C13.7655 80.1 14.3874 81.0962 15.3381 81.0962H25.9541C25.9728 81.0969 25.9915 81.0973 26.0104 81.0973H33.8123C34.763 81.0973 35.3848 80.1012 34.9673 79.2471L31.0664 71.2667C30.5965 70.3052 29.2262 70.3052 28.7563 71.2667L26.9893 74.8816L22.8079 66.3274Z" fill="white" fill-opacity="0.2"/>
<path d="M1.58691 4.98853C1.58691 3.33167 2.93006 1.98853 4.58691 1.98853H58.5869C60.2438 1.98853 61.5869 3.33167 61.5869 4.98853C61.5869 6.64538 60.2438 7.98853 58.5869 7.98853H4.58692C2.93006 7.98853 1.58691 6.64538 1.58691 4.98853Z" fill="white" fill-opacity="0.3"/>
<path d="M2 20.5979C2 19.2172 3.11929 18.0979 4.5 18.0979H79.5C80.8807 18.0979 82 19.2172 82 20.5979C82 21.9786 80.8807 23.0979 79.5 23.0979H4.5C3.11929 23.0979 2 21.9786 2 20.5979Z" fill="white" fill-opacity="0.6"/>
<path d="M2 13.6135C2 12.2328 3.11929 11.1135 4.5 11.1135H79.5C80.8807 11.1135 82 12.2328 82 13.6135C82 14.9942 80.8807 16.1135 79.5 16.1135H4.5C3.11929 16.1135 2 14.9942 2 13.6135Z" fill="white" fill-opacity="0.6"/>
<path d="M2 27.5042C2 26.1234 3.11929 25.0042 4.5 25.0042H15.5C16.8807 25.0042 18 26.1234 18 27.5042C18 28.8849 16.8807 30.0042 15.5 30.0042H4.5C3.11929 30.0042 2 28.8849 2 27.5042Z" fill="white" fill-opacity="0.6"/>
<path d="M2 36.4885C2 35.1078 3.11929 33.9885 4.5 33.9885H59.5C60.8807 33.9885 62 35.1078 62 36.4885C62 37.8692 60.8807 38.9885 59.5 38.9885H4.5C3.11929 38.9885 2 37.8692 2 36.4885Z" fill="white" fill-opacity="0.3"/>
<path d="M9 44.5901C9 43.2094 10.1193 42.0901 11.5 42.0901H58.5C59.8807 42.0901 61 43.2094 61 44.5901C61 45.9708 59.8807 47.0901 58.5 47.0901H11.5C10.1193 47.0901 9 45.9708 9 44.5901Z" fill="white" fill-opacity="0.6"/>
<path d="M9 51.4885C9 50.1078 10.1193 48.9885 11.5 48.9885H36.5C37.8807 48.9885 39 50.1078 39 51.4885C39 52.8692 37.8807 53.9885 36.5 53.9885H11.5C10.1193 53.9885 9 52.8692 9 51.4885Z" fill="white" fill-opacity="0.6"/>
<path d="M7 44.5901C7 45.9708 5.88071 47.0901 4.5 47.0901C3.11929 47.0901 2 45.9708 2 44.5901C2 43.2094 3.11929 42.0901 4.5 42.0901C5.88071 42.0901 7 43.2094 7 44.5901Z" fill="black" fill-opacity="0.2"/>
<path d="M7 51.4885C7 52.8692 5.88071 53.9885 4.5 53.9885C3.11929 53.9885 2 52.8692 2 51.4885C2 50.1078 3.11929 48.9885 4.5 48.9885C5.88071 48.9885 7 50.1078 7 51.4885Z" fill="black" fill-opacity="0.2"/>
</svg>
