<svg width="84" height="84" viewBox="0 0 84 84" fill="none" xmlns="http://www.w3.org/2000/svg">
<path d="M80 0.000976562C82.209 0.000976562 83.9998 1.79202 84 4.00098V80.001C84 82.2101 82.2091 84.001 80 84.001H4C1.79086 84.001 0 82.2101 0 80.001V4.00098C0.000214264 1.79202 1.79099 0.000976603 4 0.000976562H80ZM37.501 38.001C36.1204 38.001 35.0012 39.1204 35.001 40.501C35.001 41.8817 36.1203 43.001 37.501 43.001H75.501C76.8817 43.001 78.001 41.8817 78.001 40.501C78.0008 39.1204 76.8816 38.001 75.501 38.001H37.501Z" fill="black" fill-opacity="0.2"/>
<rect x="5.5" y="30.5" width="23" height="23" rx="11.5" stroke="white"/>
<path d="M20 42L14 45.4641V38.5359L20 42Z" fill="white"/>
</svg>
