<svg width="84" height="84" viewBox="0 0 84 84" fill="none" xmlns="http://www.w3.org/2000/svg">
<path fill-rule="evenodd" clip-rule="evenodd" d="M0 4.00781C0 1.79867 1.79086 0.0078125 4 0.0078125H80C82.2091 0.0078125 84 1.79867 84 4.00781V80.0078C84 82.2169 82.2091 84.0078 80 84.0078H62.3356C64.3954 83.8451 66.0162 82.122 66.0162 80.0204V62.0204C66.0162 59.8112 64.2253 58.0204 62.0162 58.0204H24.0103C21.8012 58.0204 20.0103 59.8112 20.0103 62.0204V80.0204C20.0103 82.122 21.6311 83.8451 23.6909 84.0078H4C1.79086 84.0078 0 82.2169 0 80.0078V4.00781ZM19.6097 4.63583C19.7929 3.1545 21.056 2.00781 22.5869 2.00781H60.248C61.9049 2.00781 63.248 3.35096 63.248 5.00781C63.248 5.13646 63.2399 5.26322 63.2242 5.3876C63.041 6.86893 61.778 8.01562 60.2471 8.01562H22.5859C20.9291 8.01562 19.5859 6.67248 19.5859 5.01562C19.5859 4.88698 19.594 4.76022 19.6097 4.63583ZM19.999 20.625C19.999 19.2443 21.1183 18.125 22.499 18.125H60.7471C62.1278 18.125 63.2471 19.2443 63.2471 20.625C63.2471 22.0057 62.1278 23.125 60.7471 23.125H22.499C21.1183 23.125 19.999 22.0057 19.999 20.625ZM22.499 11.1406C21.1183 11.1406 19.999 12.2599 19.999 13.6406C19.999 15.0213 21.1183 16.1406 22.499 16.1406H60.7471C62.1278 16.1406 63.2471 15.0213 63.2471 13.6406C63.2471 12.2599 62.1278 11.1406 60.7471 11.1406H22.499ZM19.999 27.5312C19.999 26.1505 21.1183 25.0312 22.499 25.0312H33.499C34.8797 25.0312 35.999 26.1505 35.999 27.5312C35.999 28.912 34.8797 30.0312 33.499 30.0312H22.499C21.1183 30.0312 19.999 28.912 19.999 27.5312ZM22.499 34.0078C21.1183 34.0078 19.999 35.1271 19.999 36.5078C19.999 37.8885 21.1183 39.0078 22.499 39.0078H60.7471C62.1278 39.0078 63.2471 37.8885 63.2471 36.5078C63.2471 35.1271 62.1278 34.0078 60.7471 34.0078H22.499ZM26.999 44.6094C26.999 43.2287 28.1183 42.1094 29.499 42.1094H52.499C53.8797 42.1094 54.999 43.2287 54.999 44.6094C54.999 45.9901 53.8797 47.1094 52.499 47.1094H29.499C28.1183 47.1094 26.999 45.9901 26.999 44.6094ZM29.499 49.0078C28.1183 49.0078 26.999 50.1271 26.999 51.5078C26.999 52.8885 28.1183 54.0078 29.499 54.0078H40.499C41.8797 54.0078 42.999 52.8885 42.999 51.5078C42.999 50.1271 41.8797 49.0078 40.499 49.0078H29.499ZM24.999 44.6094C24.999 45.9901 23.8797 47.1094 22.499 47.1094C21.1183 47.1094 19.999 45.9901 19.999 44.6094C19.999 43.2287 21.1183 42.1094 22.499 42.1094C23.8797 42.1094 24.999 43.2287 24.999 44.6094ZM22.499 54.0078C23.8797 54.0078 24.999 52.8885 24.999 51.5078C24.999 50.1271 23.8797 49.0078 22.499 49.0078C21.1183 49.0078 19.999 50.1271 19.999 51.5078C19.999 52.8885 21.1183 54.0078 22.499 54.0078Z" fill="white"/>
<path d="M33.3364 81.1298C32.5495 81.1298 31.9879 80.4473 32.0545 79.7277C31.9908 80.4455 32.5517 81.125 33.3369 81.125H43.9529C43.9716 81.1258 43.9903 81.1262 44.0092 81.1262H51.8111C52.5127 81.1262 53.0353 80.5836 53.093 79.956C53.0375 80.5856 52.5141 81.131 51.8106 81.131H44.0088L43.9986 81.1309L43.9739 81.1305L43.9525 81.1298H33.3364Z" fill="white"/>
<path fill-rule="evenodd" clip-rule="evenodd" d="M24.0117 58.0038C21.8026 58.0038 20.0117 59.7946 20.0117 62.0038V80.0038C20.0117 82.2129 21.8026 84.0038 24.0117 84.0038H62.0176C64.2267 84.0038 66.0176 82.2129 66.0176 80.0038V62.0038C66.0176 59.7946 64.2267 58.0038 62.0176 58.0038H24.0117ZM38.4975 66.3444C38.9675 65.383 40.3377 65.383 40.8076 66.3444L44.989 74.8986L46.7561 71.2837C47.226 70.3222 48.5962 70.3222 49.0662 71.2837L52.9671 79.2641C53.3846 80.1182 52.7628 81.1143 51.8121 81.1143H44.0102C43.9913 81.1143 43.9725 81.1139 43.9539 81.1132H33.3379C32.3872 81.1132 31.7653 80.117 32.1828 79.2629L38.4975 66.3444Z" fill="black" fill-opacity="0.3"/>
<path d="M51.1429 63.7562C51.1429 65.3538 49.8478 66.6489 48.2502 66.6489C46.6526 66.6489 45.3574 65.3538 45.3574 63.7562C45.3574 62.1586 46.6526 60.8634 48.2502 60.8634C49.8478 60.8634 51.1429 62.1586 51.1429 63.7562Z" fill="white"/>
<path d="M40.8079 66.342C40.3379 65.3806 38.9677 65.3806 38.4977 66.342L32.183 79.2605C31.7655 80.1146 32.3874 81.1108 33.3381 81.1108H43.9541C43.9728 81.1116 43.9915 81.112 44.0104 81.112H51.8123C52.763 81.112 53.3848 80.1158 52.9673 79.2617L49.0664 71.2813C48.5965 70.3199 47.2262 70.3199 46.7563 71.2813L44.9893 74.8962L40.8079 66.342Z" fill="white" fill-opacity="0.2"/>
<path d="M19.5869 5C19.5869 3.34315 20.9301 2 22.5869 2H60.248C61.9049 2 63.248 3.34315 63.248 5C63.248 6.65685 61.9049 8 60.248 8H22.5869C20.9301 8 19.5869 6.65685 19.5869 5Z" fill="white" fill-opacity="0.3"/>
<path d="M20 20.6094C20 19.2287 21.1193 18.1094 22.5 18.1094H60.748C62.1288 18.1094 63.248 19.2287 63.248 20.6094C63.248 21.9901 62.1288 23.1094 60.748 23.1094H22.5C21.1193 23.1094 20 21.9901 20 20.6094Z" fill="white" fill-opacity="0.6"/>
<path d="M20 13.625C20 12.2443 21.1193 11.125 22.5 11.125H60.748C62.1288 11.125 63.248 12.2443 63.248 13.625C63.248 15.0057 62.1288 16.125 60.748 16.125H22.5C21.1193 16.125 20 15.0057 20 13.625Z" fill="white" fill-opacity="0.6"/>
<path d="M20 27.5156C20 26.1349 21.1193 25.0156 22.5 25.0156H33.5C34.8807 25.0156 36 26.1349 36 27.5156C36 28.8963 34.8807 30.0156 33.5 30.0156H22.5C21.1193 30.0156 20 28.8963 20 27.5156Z" fill="white" fill-opacity="0.6"/>
<path d="M20 36.5C20 35.1193 21.1193 34 22.5 34H60.748C62.1288 34 63.248 35.1193 63.248 36.5C63.248 37.8807 62.1288 39 60.748 39H22.5C21.1193 39 20 37.8807 20 36.5Z" fill="white" fill-opacity="0.3"/>
<path d="M27 44.6016C27 43.2209 28.1193 42.1016 29.5 42.1016H52.5C53.8807 42.1016 55 43.2209 55 44.6016C55 45.9823 53.8807 47.1016 52.5 47.1016H29.5C28.1193 47.1016 27 45.9823 27 44.6016Z" fill="white" fill-opacity="0.6"/>
<path d="M27 51.5C27 50.1193 28.1193 49 29.5 49H40.5C41.8807 49 43 50.1193 43 51.5C43 52.8807 41.8807 54 40.5 54H29.5C28.1193 54 27 52.8807 27 51.5Z" fill="white" fill-opacity="0.6"/>
<path d="M25 44.6016C25 45.9823 23.8807 47.1016 22.5 47.1016C21.1193 47.1016 20 45.9823 20 44.6016C20 43.2209 21.1193 42.1016 22.5 42.1016C23.8807 42.1016 25 43.2209 25 44.6016Z" fill="black" fill-opacity="0.2"/>
<path d="M25 51.5C25 52.8807 23.8807 54 22.5 54C21.1193 54 20 52.8807 20 51.5C20 50.1193 21.1193 49 22.5 49C23.8807 49 25 50.1193 25 51.5Z" fill="black" fill-opacity="0.2"/>
</svg>
