<svg width="84" height="84" viewBox="0 0 84 84" fill="none" xmlns="http://www.w3.org/2000/svg">
<path d="M80 0.00137329C82.2091 0.00137329 84 1.79223 84 4.00137V80.0014C84 82.2105 82.2091 84.0014 80 84.0014H4C1.79086 84.0014 4.02666e-08 82.2105 0 80.0014V4.00137C0 1.79223 1.79086 0.00137333 4 0.00137329H80ZM37.501 38.0014C36.1203 38.0014 35.001 39.1207 35.001 40.5014C35.001 41.8821 36.1203 43.0014 37.501 43.0014H75.501C76.8817 43.0014 78.001 41.8821 78.001 40.5014C78.001 39.1207 76.8817 38.0014 75.501 38.0014H37.501Z" fill="black" fill-opacity="0.2"/>
<rect opacity="0.6" x="29" y="41" width="18" height="18" rx="4" transform="rotate(135 29 41)" fill="black"/>
<rect x="7" y="32" width="20" height="20" rx="10" stroke="white" stroke-width="4"/>
</svg>
