<svg width="84" height="84" viewBox="0 0 84 84" fill="none" xmlns="http://www.w3.org/2000/svg">
<path d="M0.000976562 42.0039C0.000976562 35.3765 5.37356 30.0039 12.001 30.0039H72.001C78.6284 30.0039 84.001 35.3765 84.001 42.0039C84.001 48.6313 78.6284 54.0039 72.001 54.0039H12.001C5.37356 54.0039 0.000976562 48.6313 0.000976562 42.0039Z" fill="black" fill-opacity="0.6"/>
<path d="M14.001 42.0039C14.001 40.8993 14.8964 40.0039 16.001 40.0039H40.001C41.1055 40.0039 42.001 40.8993 42.001 42.0039C42.001 43.1085 41.1055 44.0039 40.001 44.0039H16.001C14.8964 44.0039 14.001 43.1085 14.001 42.0039Z" fill="white"/>
<path d="M71.7461 42.0039L65.7461 45.468V38.5398L71.7461 42.0039Z" fill="white"/>
<path fill-rule="evenodd" clip-rule="evenodd" d="M12.001 0.00390625C5.37356 0.00390625 0.000976562 5.37649 0.000976562 12.0039C0.000976562 18.6313 5.37356 24.0039 12.001 24.0039H72.001C78.6284 24.0039 84.001 18.6313 84.001 12.0039C84.001 5.37649 78.6284 0.00390625 72.001 0.00390625H12.001ZM65.7461 15.4673L71.7461 12.0032L65.7461 8.53906V15.4673ZM16.001 10.0032C14.8964 10.0032 14.001 10.8986 14.001 12.0032C14.001 13.1077 14.8964 14.0032 16.001 14.0032H40.001C41.1055 14.0032 42.001 13.1077 42.001 12.0032C42.001 10.8986 41.1055 10.0032 40.001 10.0032H16.001Z" fill="black" fill-opacity="0.4"/>
<path d="M14.001 12.0032C14.001 10.8986 14.8964 10.0032 16.001 10.0032H40.001C41.1055 10.0032 42.001 10.8986 42.001 12.0032C42.001 13.1077 41.1055 14.0032 40.001 14.0032H16.001C14.8964 14.0032 14.001 13.1077 14.001 12.0032Z" fill="white" fill-opacity="0.6"/>
<path d="M71.7461 12.0032L65.7461 15.4673V8.53906L71.7461 12.0032Z" fill="white" fill-opacity="0.6"/>
<path fill-rule="evenodd" clip-rule="evenodd" d="M12.001 60.0039C5.37356 60.0039 0.000976562 65.3765 0.000976562 72.0039C0.000976562 78.6313 5.37356 84.0039 12.001 84.0039H72.001C78.6284 84.0039 84.001 78.6313 84.001 72.0039C84.001 65.3765 78.6284 60.0039 72.001 60.0039H12.001ZM65.7461 75.4673L71.7461 72.0032L65.7461 68.5391V75.4673ZM16.001 70.0032C14.8964 70.0032 14.001 70.8986 14.001 72.0032C14.001 73.1077 14.8964 74.0032 16.001 74.0032H40.001C41.1055 74.0032 42.001 73.1077 42.001 72.0032C42.001 70.8986 41.1055 70.0032 40.001 70.0032H16.001Z" fill="black" fill-opacity="0.4"/>
<path d="M14.001 72.0032C14.001 70.8986 14.8964 70.0032 16.001 70.0032H40.001C41.1055 70.0032 42.001 70.8986 42.001 72.0032C42.001 73.1077 41.1055 74.0032 40.001 74.0032H16.001C14.8964 74.0032 14.001 73.1077 14.001 72.0032Z" fill="white" fill-opacity="0.1"/>
<path d="M71.7461 72.0032L65.7461 75.4673V68.5391L71.7461 72.0032Z" fill="white" fill-opacity="0.1"/>
</svg>
