<svg width="84" height="84" viewBox="0 0 84 84" fill="none" xmlns="http://www.w3.org/2000/svg">
<path d="M0 4.00391C0 1.79477 1.79086 0.00390625 4 0.00390625H21.4385C23.6476 0.00390625 25.4385 1.79477 25.4385 4.00391V80.0039C25.4385 82.213 23.6476 84.0039 21.4385 84.0039H4C1.79086 84.0039 0 82.213 0 80.0039V4.00391Z" fill="white" fill-opacity="0.3"/>
<path d="M29.2812 4.00391C29.2812 1.79477 31.0721 0.00390625 33.2812 0.00390625H50.7197C52.9289 0.00390625 54.7197 1.79477 54.7197 4.00391V80.0039C54.7197 82.213 52.9289 84.0039 50.7197 84.0039H33.2812C31.0721 84.0039 29.2812 82.213 29.2812 80.0039V4.00391Z" fill="white"/>
<path d="M58.5625 4.00391C58.5625 1.79477 60.3534 0.00390625 62.5625 0.00390625H80.001C82.2101 0.00390625 84.001 1.79477 84.001 4.00391V80.0039C84.001 82.213 82.2101 84.0039 80.001 84.0039H62.5625C60.3534 84.0039 58.5625 82.213 58.5625 80.0039V4.00391Z" fill="black" fill-opacity="0.3"/>
</svg>
