<svg width="84" height="84" viewBox="0 0 84 84" fill="none" xmlns="http://www.w3.org/2000/svg">
<path fill-rule="evenodd" clip-rule="evenodd" d="M3.99902 42C1.78988 42 -0.000976562 43.7909 -0.000976562 46V80C-0.000976562 82.2091 1.78988 84 3.99902 84H79.9955C82.2047 84 83.9955 82.2091 83.9955 80V46C83.9955 43.7909 82.2047 42 79.9955 42H3.99902ZM10.5 48C9.11929 48 8 49.1193 8 50.5C8 51.8807 9.11929 53 10.5 53H25.5C26.8807 53 28 51.8807 28 50.5C28 49.1193 26.8807 48 25.5 48H10.5ZM10.5 75C9.11929 75 8 76.1193 8 77.5C8 78.8807 9.11929 80 10.5 80H73.5C74.8807 80 76 78.8807 76 77.5C76 76.1193 74.8807 75 73.5 75H10.5ZM16 59.5C16 58.1193 17.1193 57 18.5 57H73.5C74.8807 57 76 58.1193 76 59.5C76 60.8807 74.8807 62 73.5 62H18.5C17.1193 62 16 60.8807 16 59.5ZM10.5 57C9.11929 57 8 58.1193 8 59.5C8 60.8807 9.11929 62 10.5 62C11.8807 62 13 60.8807 13 59.5C13 58.1193 11.8807 57 10.5 57ZM16 68.5C16 67.1193 17.1193 66 18.5 66H59.5C60.8807 66 62 67.1193 62 68.5C62 69.8807 60.8807 71 59.5 71H18.5C17.1193 71 16 69.8807 16 68.5ZM10.5 66C9.11929 66 8 67.1193 8 68.5C8 69.8807 9.11929 71 10.5 71C11.8807 71 13 69.8807 13 68.5C13 67.1193 11.8807 66 10.5 66Z" fill="white" fill-opacity="0.6"/>
<path d="M8 50.5C8 49.1193 9.11929 48 10.5 48H25.5C26.8807 48 28 49.1193 28 50.5C28 51.8807 26.8807 53 25.5 53H10.5C9.11929 53 8 51.8807 8 50.5Z" fill="black" fill-opacity="0.2"/>
<path d="M8 77.5C8 76.1193 9.11929 75 10.5 75H73.5C74.8807 75 76 76.1193 76 77.5C76 78.8807 74.8807 80 73.5 80H10.5C9.11929 80 8 78.8807 8 77.5Z" fill="white" fill-opacity="0.2"/>
<path d="M16 59.5C16 58.1193 17.1193 57 18.5 57H73.5C74.8807 57 76 58.1193 76 59.5C76 60.8807 74.8807 62 73.5 62H18.5C17.1193 62 16 60.8807 16 59.5Z" fill="white" fill-opacity="0.2"/>
<path d="M8 59.5C8 58.1193 9.11929 57 10.5 57C11.8807 57 13 58.1193 13 59.5C13 60.8807 11.8807 62 10.5 62C9.11929 62 8 60.8807 8 59.5Z" fill="black" fill-opacity="0.6"/>
<path d="M16 68.5C16 67.1193 17.1193 66 18.5 66H59.5C60.8807 66 62 67.1193 62 68.5C62 69.8807 60.8807 71 59.5 71H18.5C17.1193 71 16 69.8807 16 68.5Z" fill="white" fill-opacity="0.2"/>
<path d="M8 68.5C8 67.1193 9.11929 66 10.5 66C11.8807 66 13 67.1193 13 68.5C13 69.8807 11.8807 71 10.5 71C9.11929 71 8 69.8807 8 68.5Z" fill="black" fill-opacity="0.6"/>
<path d="M8 16.5C8 15.1193 9.11929 14 10.5 14H65.5C66.8807 14 68 15.1193 68 16.5C68 17.8807 66.8807 19 65.5 19H10.5C9.11929 19 8 17.8807 8 16.5Z" fill="white"/>
<path d="M48 24.5C48 23.6716 48.6716 23 49.5 23C50.3284 23 51 23.6716 51 24.5C51 25.3284 50.3284 26 49.5 26C48.6716 26 48 25.3284 48 24.5Z" fill="black" fill-opacity="0.6"/>
<path d="M8 25.5C8 24.1193 9.11929 23 10.5 23H43.6631C45.0438 23 46.1631 24.1193 46.1631 25.5C46.1631 26.8807 45.0438 28 43.6631 28H10.5C9.11929 28 8 26.8807 8 25.5Z" fill="white"/>
</svg>
