<svg width="84" height="84" viewBox="0 0 84 84" fill="none" xmlns="http://www.w3.org/2000/svg">
<path fill-rule="evenodd" clip-rule="evenodd" d="M4.00098 0.00390625C1.79184 0.00390625 0.000976562 1.79477 0.000976562 4.00391V80.0039C0.000976562 82.213 1.79184 84.0039 4.00098 84.0039H80.001C82.2101 84.0039 84.001 82.213 84.001 80.0039V4.00391C84.001 1.79477 82.2101 0.00390625 80.001 0.00390625H4.00098ZM37.2598 33.418C35.9287 33.418 34.8496 34.497 34.8496 35.8281C34.8496 37.1592 35.9287 38.2383 37.2598 38.2383H75.541C76.8721 38.2383 77.9512 37.1592 77.9512 35.8281C77.9512 34.497 76.8721 33.418 75.541 33.418H37.2598ZM37.2598 43.3164C35.9287 43.3164 34.8496 44.3955 34.8496 45.7266C34.8496 47.0577 35.9287 48.1367 37.2598 48.1367H63.0645C64.3955 48.1367 65.4746 47.0577 65.4746 45.7266C65.4746 44.3955 64.3955 43.3164 63.0645 43.3164H37.2598Z" fill="black" fill-opacity="0.2"/>
<path d="M34.8487 35.8249C34.8487 34.4938 35.9277 33.4147 37.2588 33.4147H75.5401C76.8712 33.4147 77.9502 34.4938 77.9502 35.8249C77.9502 37.156 76.8712 38.235 75.5401 38.235H37.2588C35.9277 38.235 34.8487 37.156 34.8487 35.8249Z" fill="white" fill-opacity="0.6"/>
<path d="M34.8487 45.7233C34.8487 44.3922 35.9277 43.3131 37.2588 43.3131H63.0635C64.3946 43.3131 65.4737 44.3922 65.4737 45.7233C65.4737 47.0544 64.3946 48.1335 63.0635 48.1335H37.2588C35.9277 48.1335 34.8487 47.0544 34.8487 45.7233Z" fill="white" fill-opacity="0.6"/>
<path d="M20.0499 28.8678H16.0499V37.0309H10.2556L18.0499 47.8678L25.8441 37.0309H20.0499V28.8678Z" fill="white"/>
<path fill-rule="evenodd" clip-rule="evenodd" d="M6.04986 46.1374V54.1374H30.0499V46.1374H26.0499V50.1374H10.0499V46.1374H6.04986Z" fill="white"/>
</svg>
