<svg width="84" height="84" viewBox="0 0 84 84" fill="none" xmlns="http://www.w3.org/2000/svg">
<path fill-rule="evenodd" clip-rule="evenodd" d="M3.99902 0C1.78988 0 -0.000976562 1.79086 -0.000976562 4V80C-0.000976562 82.2091 1.78988 84 3.99902 84H79.999C82.2082 84 83.999 82.2091 83.999 80V4C83.999 1.79086 82.2082 0 79.999 0H3.99902ZM7 39C5.34315 39 4 40.3431 4 42C4 43.6569 5.34315 45 7 45H21C22.6569 45 24 43.6569 24 42C24 40.3431 22.6569 39 21 39H7ZM31.999 42C31.999 40.3431 33.3422 39 34.999 39H48.999C50.6559 39 51.999 40.3431 51.999 42C51.999 43.6569 50.6559 45 48.999 45H34.999C33.3422 45 31.999 43.6569 31.999 42ZM62.998 39C61.3412 39 59.998 40.3431 59.998 42C59.998 43.6569 61.3412 45 62.998 45H76.998C78.6549 45 79.998 43.6569 79.998 42C79.998 40.3431 78.6549 39 76.998 39H62.998ZM28.8626 30.8242C28.9419 30.3486 29.3534 30 29.8356 30C30.4451 30 30.9088 30.5473 30.8086 31.1486L27.1374 53.1758C27.0581 53.6514 26.6466 54 26.1644 54C25.5549 54 25.0912 53.4527 25.1914 52.8514L28.8626 30.8242ZM57.8356 30C57.3534 30 56.9419 30.3486 56.8626 30.8242L53.1914 52.8514C53.0912 53.4527 53.5549 54 54.1644 54C54.6466 54 55.0581 53.6514 55.1374 53.1758L58.8086 31.1486C58.9088 30.5473 58.4451 30 57.8356 30Z" fill="black" fill-opacity="0.2"/>
<path d="M4 42.0083C4 40.3514 5.34315 39.0083 7 39.0083H21C22.6569 39.0083 24 40.3514 24 42.0083C24 43.6652 22.6569 45.0083 21 45.0083H7C5.34315 45.0083 4 43.6652 4 42.0083Z" fill="white" fill-opacity="0.6"/>
<path d="M31.999 42.0083C31.999 40.3514 33.3422 39.0083 34.999 39.0083H48.999C50.6559 39.0083 51.999 40.3514 51.999 42.0083C51.999 43.6652 50.6559 45.0083 48.999 45.0083H34.999C33.3422 45.0083 31.999 43.6652 31.999 42.0083Z" fill="white" fill-opacity="0.6"/>
<path d="M59.998 42.0083C59.998 40.3514 61.3412 39.0083 62.998 39.0083H76.998C78.6549 39.0083 79.998 40.3514 79.998 42.0083C79.998 43.6652 78.6549 45.0083 76.998 45.0083H62.998C61.3412 45.0083 59.998 43.6652 59.998 42.0083Z" fill="white" fill-opacity="0.6"/>
<path d="M28.8626 30.8325C28.9419 30.3569 29.3534 30.0083 29.8356 30.0083C30.4451 30.0083 30.9088 30.5556 30.8086 31.1569L27.1374 53.1841C27.0581 53.6597 26.6466 54.0083 26.1644 54.0083C25.5549 54.0083 25.0912 53.461 25.1914 52.8597L28.8626 30.8325Z" fill="white"/>
<path d="M56.8626 30.8325C56.9419 30.3569 57.3534 30.0083 57.8356 30.0083C58.4451 30.0083 58.9088 30.5556 58.8086 31.1569L55.1374 53.1841C55.0581 53.6597 54.6466 54.0083 54.1644 54.0083C53.5549 54.0083 53.0912 53.461 53.1914 52.8597L56.8626 30.8325Z" fill="white"/>
</svg>
