<svg width="85" height="84" viewBox="0 0 85 84" fill="none" xmlns="http://www.w3.org/2000/svg">
<path d="M0.583984 4C0.583984 1.79086 2.37485 0 4.58398 0H80.584C82.7931 0 84.584 1.79086 84.584 4V80C84.584 82.2091 82.7931 84 80.584 84H4.58398C2.37485 84 0.583984 82.2091 0.583984 80V4Z" fill="black" fill-opacity="0.2"/>
<path fill-rule="evenodd" clip-rule="evenodd" d="M8.58398 38.5C6.37485 38.5 4.58398 40.2909 4.58398 42.5V46.5C4.58398 48.7091 6.37484 50.5 8.58398 50.5H76.584C78.7931 50.5 80.584 48.7091 80.584 46.5V42.5C80.584 40.2909 78.7931 38.5 76.584 38.5H8.58398ZM27.4747 40.7297C27.589 40.4225 27.8822 40.2188 28.21 40.2188C28.7569 40.2188 29.136 40.7643 28.9453 41.2769L26.1807 48.7078C26.0664 49.015 25.7732 49.2188 25.4454 49.2188C24.8985 49.2188 24.5194 48.6732 24.7101 48.1606L27.4747 40.7297ZM8.58496 44.7188C8.58496 43.6142 9.48039 42.7188 10.585 42.7188H18.585C19.6895 42.7188 20.585 43.6142 20.585 44.7188C20.585 45.8233 19.6895 46.7188 18.585 46.7188H10.585C9.48039 46.7188 8.58496 45.8233 8.58496 44.7188ZM32.2266 44.7188C32.2266 43.6142 33.122 42.7188 34.2266 42.7188H42.2266C43.3311 42.7188 44.2266 43.6142 44.2266 44.7188C44.2266 45.8233 43.3311 46.7188 42.2266 46.7188H34.2266C33.122 46.7188 32.2266 45.8233 32.2266 44.7188ZM57.8672 42.7188C56.7626 42.7188 55.8672 43.6142 55.8672 44.7188C55.8672 45.8233 56.7626 46.7188 57.8672 46.7188H71.8672C72.9718 46.7188 73.8672 45.8233 73.8672 44.7188C73.8672 43.6142 72.9718 42.7188 71.8672 42.7188H57.8672ZM51.8526 40.2188C51.5248 40.2188 51.2316 40.4225 51.1173 40.7297L48.3527 48.1606C48.1619 48.6732 48.5411 49.2188 49.088 49.2188C49.4158 49.2188 49.709 49.015 49.8233 48.7078L52.5879 41.2769C52.7786 40.7643 52.3995 40.2188 51.8526 40.2188Z" fill="white"/>
<path d="M4.58398 26.5C4.58398 24.2909 6.37485 22.5 8.58398 22.5H36.584C38.7931 22.5 40.584 24.2909 40.584 26.5C40.584 28.7091 38.7931 30.5 36.584 30.5H8.58398C6.37485 30.5 4.58398 28.7091 4.58398 26.5Z" fill="white" fill-opacity="0.3"/>
<path d="M14.748 58C14.748 56.067 16.3151 54.5 18.248 54.5H48.084C50.017 54.5 51.584 56.067 51.584 58C51.584 59.933 50.017 61.5 48.084 61.5H18.248C16.3151 61.5 14.748 59.933 14.748 58Z" fill="black" fill-opacity="0.6"/>
<path d="M4.58398 58C4.58398 56.067 6.15099 54.5 8.08398 54.5C10.017 54.5 11.584 56.067 11.584 58C11.584 59.933 10.017 61.5 8.08398 61.5C6.15099 61.5 4.58398 59.933 4.58398 58Z" fill="black" fill-opacity="0.6"/>
<path d="M8.58496 44.7188C8.58496 43.6142 9.48039 42.7188 10.585 42.7188H18.585C19.6895 42.7188 20.585 43.6142 20.585 44.7188C20.585 45.8233 19.6895 46.7188 18.585 46.7188H10.585C9.48039 46.7188 8.58496 45.8233 8.58496 44.7188Z" fill="white" fill-opacity="0.6"/>
<path d="M32.2266 44.7188C32.2266 43.6142 33.122 42.7188 34.2266 42.7188H42.2266C43.3311 42.7188 44.2266 43.6142 44.2266 44.7188C44.2266 45.8233 43.3311 46.7188 42.2266 46.7188H34.2266C33.122 46.7188 32.2266 45.8233 32.2266 44.7188Z" fill="white" fill-opacity="0.6"/>
<path d="M55.8672 44.7188C55.8672 43.6142 56.7626 42.7188 57.8672 42.7188H71.8672C72.9718 42.7188 73.8672 43.6142 73.8672 44.7188C73.8672 45.8233 72.9718 46.7188 71.8672 46.7188H57.8672C56.7626 46.7188 55.8672 45.8233 55.8672 44.7188Z" fill="white" fill-opacity="0.6"/>
<path d="M27.4747 40.7297C27.589 40.4225 27.8822 40.2188 28.21 40.2188C28.7569 40.2188 29.136 40.7643 28.9453 41.2769L26.1807 48.7078C26.0664 49.015 25.7732 49.2188 25.4454 49.2188C24.8985 49.2188 24.5194 48.6732 24.7101 48.1606L27.4747 40.7297Z" fill="white" fill-opacity="0.6"/>
<path d="M51.1173 40.7297C51.2316 40.4225 51.5248 40.2188 51.8526 40.2188C52.3995 40.2188 52.7786 40.7643 52.5879 41.2769L49.8233 48.7078C49.709 49.015 49.4158 49.2188 49.088 49.2188C48.5411 49.2188 48.1619 48.6732 48.3527 48.1606L51.1173 40.7297Z" fill="white" fill-opacity="0.6"/>
</svg>
