<svg width="84" height="84" viewBox="0 0 84 84" fill="none" xmlns="http://www.w3.org/2000/svg">
<path d="M-0.000976562 25.6968C-0.000976562 23.4877 1.78988 21.6968 3.99902 21.6968H79.999C82.2082 21.6968 83.999 23.4877 83.999 25.6968V29.3626C83.999 31.5717 82.2082 33.3626 79.999 33.3626H3.99902C1.78988 33.3626 -0.000976562 31.5717 -0.000976562 29.3626V25.6968Z" fill="white" fill-opacity="0.6"/>
<path d="M-0.000976562 40.1655C-0.000976562 37.9564 1.78988 36.1655 3.99902 36.1655H79.999C82.2082 36.1655 83.999 37.9564 83.999 40.1655V58.2969C83.999 60.506 82.2082 62.2969 79.999 62.2969H3.99902C1.78988 62.2969 -0.000976562 60.506 -0.000976562 58.2969V40.1655Z" fill="white"/>
</svg>
