<svg width="84" height="84" viewBox="0 0 84 84" fill="none" xmlns="http://www.w3.org/2000/svg">
<path fill-rule="evenodd" clip-rule="evenodd" d="M47.7606 0.0078125C45.6689 0.13787 44.0127 1.87552 44.0127 4V26C44.0127 28.2091 45.8036 30 48.0127 30H80.0127C82.1138 30 83.8365 28.3801 84 26.321V80.0078C84 82.2169 82.2091 84.0078 80 84.0078H4C1.79086 84.0078 0 82.2169 0 80.0078V4.00781C0 1.79867 1.79086 0.0078125 4 0.0078125H47.7606ZM1.58789 5C1.58789 3.34315 2.93104 2 4.58789 2H27.2665C28.9233 2 30.2665 3.34315 30.2665 5C30.2665 6.65685 28.9233 8 27.2665 8H4.58789C2.93103 8 1.58789 6.65685 1.58789 5ZM1.78516 20.6094C1.78516 19.2287 2.90444 18.1094 4.28516 18.1094H37.5233C38.904 18.1094 40.0233 19.2287 40.0233 20.6094C40.0233 21.9901 38.904 23.1094 37.5233 23.1094H4.28515C2.90444 23.1094 1.78516 21.9901 1.78516 20.6094ZM1.78516 13.625C1.78516 12.2443 2.90444 11.125 4.28516 11.125H37.5233C38.904 11.125 40.0233 12.2443 40.0233 13.625C40.0233 15.0057 38.904 16.125 37.5233 16.125H4.28515C2.90444 16.125 1.78516 15.0057 1.78516 13.625ZM1.78516 27.5156C1.78516 26.1349 2.90444 25.0156 4.28516 25.0156H6.93277C8.31349 25.0156 9.43278 26.1349 9.43278 27.5156C9.43278 28.8963 8.31349 30.0156 6.93278 30.0156H4.28516C2.90445 30.0156 1.78516 28.8963 1.78516 27.5156ZM2.0013 39.4975C2.0013 38.1168 3.12059 36.9975 4.5013 36.9975H37.5238C38.9045 36.9975 40.0238 38.1168 40.0238 39.4975C40.0238 40.8782 38.9045 41.9975 37.5238 41.9975H4.5013C3.12059 41.9975 2.0013 40.8782 2.0013 39.4975ZM4.5013 45.099C3.12059 45.099 2.0013 46.2183 2.0013 47.599C2.0013 48.9797 3.12059 50.099 4.5013 50.099H32.4541C33.8348 50.099 34.9541 48.9797 34.9541 47.599C34.9541 46.2183 33.8348 45.099 32.4541 45.099H4.5013ZM4.5013 51.9975C3.12059 51.9975 2.0013 53.1168 2.0013 54.4975C2.0013 55.8782 3.12059 56.9975 4.5013 56.9975H18.5125C19.8932 56.9975 21.0125 55.8782 21.0125 54.4975C21.0125 53.1168 19.8932 51.9975 18.5125 51.9975H4.5013ZM4.5 64C3.11929 64 2 65.1193 2 66.5C2 67.8807 3.11929 69 4.5 69H32.4531C33.8338 69 34.9531 67.8807 34.9531 66.5C34.9531 65.1193 33.8338 64 32.4531 64H4.5ZM9 74.6016C9 73.2208 10.1193 72.1016 11.5 72.1016H37.5225C38.9032 72.1016 40.0225 73.2208 40.0225 74.6016C40.0225 75.9823 38.9032 77.1016 37.5225 77.1016H11.5C10.1193 77.1016 9 75.9823 9 74.6016ZM9 81.5C9 80.1193 10.1193 79 11.5 79H24.3976C25.7783 79 26.8976 80.1193 26.8976 81.5C26.8976 82.8807 25.7783 84 24.3976 84H11.5C10.1193 84 9 82.8807 9 81.5ZM7.00098 74.6092C7.00098 75.9899 5.88169 77.1092 4.50098 77.1092C3.12027 77.1092 2.00098 75.9899 2.00098 74.6092C2.00098 73.2285 3.12027 72.1092 4.50098 72.1092C5.88169 72.1092 7.00098 73.2285 7.00098 74.6092ZM4.50098 84.0076C5.88169 84.0076 7.00098 82.8883 7.00098 81.5076C7.00098 80.1269 5.88169 79.0076 4.50098 79.0076C3.12027 79.0076 2.00098 80.1269 2.00098 81.5076C2.00098 82.8883 3.12027 84.0076 4.50098 84.0076Z" fill="white"/>
<path fill-rule="evenodd" clip-rule="evenodd" d="M48.0117 0.0263367C45.8026 0.0263367 44.0117 1.8172 44.0117 4.02634V26.0263C44.0117 28.2355 45.8026 30.0263 48.0117 30.0263H80.0117C82.2209 30.0263 84.0117 28.2355 84.0117 26.0263V4.02634C84.0117 1.8172 82.2209 0.0263367 80.0117 0.0263367H48.0117ZM59.4977 10.3646C59.9677 9.40317 61.3379 9.40317 61.8079 10.3646L65.9893 18.9188L67.7563 15.3039C68.2262 14.3424 69.5965 14.3424 70.0664 15.3039L73.9673 23.2843C74.3848 24.1384 73.763 25.1345 72.8123 25.1345H65.0104C64.9915 25.1345 64.9728 25.1341 64.9541 25.1334H54.3381C53.3874 25.1334 52.7655 24.1372 53.183 23.2831L59.4977 10.3646Z" fill="black" fill-opacity="0.3"/>
<path d="M72.1429 7.77676C72.1429 9.37438 70.8478 10.6695 69.2502 10.6695C67.6526 10.6695 66.3574 9.37438 66.3574 7.77676C66.3574 6.17913 67.6526 4.884 69.2502 4.884C70.8478 4.884 72.1429 6.17913 72.1429 7.77676Z" fill="white"/>
<path d="M61.8079 10.3663C61.3379 9.40488 59.9677 9.40488 59.4977 10.3663L53.183 23.2848C52.7655 24.1389 53.3874 25.1351 54.3381 25.1351H64.9541C64.9728 25.1359 64.9915 25.1362 65.0104 25.1362H72.8123C73.763 25.1362 74.3848 24.1401 73.9673 23.286L70.0664 15.3056C69.5965 14.3442 68.2262 14.3442 67.7563 15.3056L65.9893 18.9205L61.8079 10.3663Z" fill="white" fill-opacity="0.2"/>
<path d="M1.58691 5.03073C1.58691 3.37388 2.93006 2.03073 4.58691 2.03073H27.2655C28.9223 2.03073 30.2655 3.37388 30.2655 5.03073C30.2655 6.68759 28.9223 8.03073 27.2655 8.03073H4.58691C2.93006 8.03073 1.58691 6.68759 1.58691 5.03073Z" fill="white" fill-opacity="0.3"/>
<path d="M1.78436 20.6401C1.78436 19.2594 2.90365 18.1401 4.28436 18.1401H37.5225C38.9032 18.1401 40.0225 19.2594 40.0225 20.6401C40.0225 22.0208 38.9032 23.1401 37.5225 23.1401H4.28436C2.90364 23.1401 1.78436 22.0208 1.78436 20.6401Z" fill="white" fill-opacity="0.6"/>
<path d="M1.78436 13.6557C1.78436 12.275 2.90365 11.1557 4.28436 11.1557H37.5225C38.9032 11.1557 40.0225 12.275 40.0225 13.6557C40.0225 15.0364 38.9032 16.1557 37.5225 16.1557H4.28436C2.90364 16.1557 1.78436 15.0364 1.78436 13.6557Z" fill="white" fill-opacity="0.6"/>
<path d="M1.78436 27.5464C1.78436 26.1656 2.90365 25.0464 4.28436 25.0464H6.93198C8.31269 25.0464 9.43198 26.1656 9.43198 27.5464C9.43198 28.9271 8.31269 30.0464 6.93198 30.0464H4.28436C2.90365 30.0464 1.78436 28.9271 1.78436 27.5464Z" fill="white" fill-opacity="0.6"/>
<path d="M2 39.5273C2 38.1466 3.11929 37.0273 4.5 37.0273H37.5225C38.9032 37.0273 40.0225 38.1466 40.0225 39.5273C40.0225 40.908 38.9032 42.0273 37.5225 42.0273H4.5C3.11929 42.0273 2 40.908 2 39.5273Z" fill="white" fill-opacity="0.3"/>
<path d="M2 47.6289C2 46.2482 3.11929 45.1289 4.5 45.1289H32.4528C33.8335 45.1289 34.9528 46.2482 34.9528 47.6289C34.9528 49.0096 33.8335 50.1289 32.4528 50.1289H4.5C3.11929 50.1289 2 49.0096 2 47.6289Z" fill="white" fill-opacity="0.6"/>
<path d="M2 54.5273C2 53.1466 3.11929 52.0273 4.5 52.0273H18.5112C19.8919 52.0273 21.0112 53.1466 21.0112 54.5273C21.0112 55.908 19.8919 57.0273 18.5112 57.0273H4.5C3.11929 57.0273 2 55.908 2 54.5273Z" fill="white" fill-opacity="0.6"/>
<path d="M2 66.5256C2 65.1449 3.11929 64.0256 4.5 64.0256H32.4531C33.8338 64.0256 34.9531 65.1449 34.9531 66.5256C34.9531 67.9063 33.8338 69.0256 32.4531 69.0256H4.5C3.11929 69.0256 2 67.9063 2 66.5256Z" fill="white" fill-opacity="0.3"/>
<path d="M9 74.6367C9 73.256 10.1193 72.1367 11.5 72.1367H37.5225C38.9032 72.1367 40.0225 73.256 40.0225 74.6367C40.0225 76.0174 38.9032 77.1367 37.5225 77.1367H11.5C10.1193 77.1367 9 76.0174 9 74.6367Z" fill="white" fill-opacity="0.6"/>
<path d="M9 81.5351C9 80.1544 10.1193 79.0351 11.5 79.0351H24.3976C25.7783 79.0351 26.8976 80.1544 26.8976 81.5351C26.8976 82.9158 25.7783 84.0351 24.3976 84.0351H11.5C10.1193 84.0351 9 82.9158 9 81.5351Z" fill="white" fill-opacity="0.6"/>
<path d="M7 74.6203C7 76.001 5.88071 77.1203 4.5 77.1203C3.11929 77.1203 2 76.001 2 74.6203C2 73.2396 3.11929 72.1203 4.5 72.1203C5.88071 72.1203 7 73.2396 7 74.6203Z" fill="black" fill-opacity="0.2"/>
<path d="M7 81.5188C7 82.8995 5.88071 84.0188 4.5 84.0188C3.11929 84.0188 2 82.8995 2 81.5188C2 80.1381 3.11929 79.0188 4.5 79.0188C5.88071 79.0188 7 80.1381 7 81.5188Z" fill="black" fill-opacity="0.2"/>
</svg>
