<svg width="84" height="84" xmlns="http://www.w3.org/2000/svg" viewBox="0 0 84 84">
<path d="M13,13h71v63c0,4.42-3.58,8-8,8H13V13Z" fill="rgba(255,255,255,.3)"/>
<path d="M16,80V16h64c2.21,0,4-1.79,4-4V4c0-2.21-1.79-4-4-4H4C1.93,0,.23,1.57.02,3.59c-.01.13-.02.27-.02.41v76c0,2.21,1.79,4,4,4h8c2.21,0,4-1.79,4-4ZM5.71,9.66c-.78-.78-.78-2.05,0-2.83l1.41-1.41c.78-.78,2.05-.78,2.83,0l1.41,1.41c.78.78.78,2.05,0,2.83l-1.41,1.41c-.78.78-2.05.78-2.83,0l-1.41-1.41ZM5.71,22.41c-.78-.78-.78-2.05,0-2.83l1.41-1.41c.78-.78,2.05-.78,2.83,0l1.41,1.41c.78.78.78,2.05,0,2.83l-1.41,1.41c-.78.78-2.05.78-2.83,0l-1.41-1.41ZM5.71,35.41c-.78-.78-.78-2.05,0-2.83l1.41-1.41c.78-.78,2.05-.78,2.83,0l1.41,1.41c.78.78.78,2.05,0,2.83l-1.41,1.41c-.78.78-2.05.78-2.83,0l-1.41-1.41ZM5.71,45.59c-.78.78-.78,2.05,0,2.83l1.41,1.41c.78.78,2.05.78,2.83,0l1.41-1.41c.78-.78.78-2.05,0-2.83l-1.41-1.41c-.78-.78-2.05-.78-2.83,0l-1.41,1.41ZM72.71,6.83c-.78.78-.78,2.05,0,2.83l1.41,1.41c.78.78,2.05.78,2.83,0l1.41-1.41c.78-.78.78-2.05,0-2.83l-1.41-1.41c-.78-.78-2.05-.78-2.83,0l-1.41,1.41Z" fill="#fff" fill-rule="evenodd"/>
<path d="M5.41,22.41c-.78-.78-.78-2.05,0-2.83l1.41-1.41c.78-.78,2.05-.78,2.83,0l1.41,1.41c.78.78.78,2.05,0,2.83l-1.41,1.41c-.78.78-2.05.78-2.83,0l-1.41-1.41Z" fill="rgba(0,0,0,.2)"/>
<path d="M5.41,35.41c-.78-.78-.78-2.05,0-2.83l1.41-1.41c.78-.78,2.05-.78,2.83,0l1.41,1.41c.78.78.78,2.05,0,2.83l-1.41,1.41c-.78.78-2.05.78-2.83,0l-1.41-1.41Z" fill="rgba(0,0,0,.2)"/>
<path d="M5.41,48.41c-.78-.78-.78-2.05,0-2.83l1.41-1.41c.78-.78,2.05-.78,2.83,0l1.41,1.41c.78.78.78,2.05,0,2.83l-1.41,1.41c-.78.78-2.05.78-2.83,0l-1.41-1.41Z" fill="rgba(0,0,0,.2)"/>
<path d="M5.41,9.66c-.78-.78-.78-2.05,0-2.83l1.41-1.41c.78-.78,2.05-.78,2.83,0l1.41,1.41c.78.78.78,2.05,0,2.83l-1.41,1.41c-.78.78-2.05.78-2.83,0l-1.41-1.41Z" fill="rgba(0,0,0,.2)"/>
<path d="M72.41,9.66c-.78-.78-.78-2.05,0-2.83l1.41-1.41c.78-.78,2.05-.78,2.83,0l1.41,1.41c.78.78.78,2.05,0,2.83l-1.41,1.41c-.78.78-2.05.78-2.83,0l-1.41-1.41Z" fill="rgba(0,0,0,.2)"/>
</svg>