<svg width="84" height="84" viewBox="0 0 84 84" fill="none" xmlns="http://www.w3.org/2000/svg">
<path d="M-0.000976562 20C-0.000976562 17.7909 1.78988 16 3.99902 16H79.999C82.2082 16 83.999 17.7909 83.999 20V24C83.999 26.2091 82.2082 28 79.999 28H3.99902C1.78988 28 -0.000976562 26.2091 -0.000976562 24V20Z" fill="white"/>
<path d="M-0.000976562 4C-0.000976562 1.79086 1.78988 0 3.99902 0H61.999C64.2082 0 65.999 1.79086 65.999 4C65.999 6.20914 64.2082 8 61.999 8H3.99902C1.78988 8 -0.000976562 6.20914 -0.000976562 4Z" fill="white" fill-opacity="0.3"/>
<path d="M15.8584 61.8789C15.8584 60.5478 16.9375 59.4688 18.2686 59.4688H65.7314C67.0625 59.4688 68.1416 60.5478 68.1416 61.8789C68.1416 63.21 67.0625 64.2891 65.7314 64.2891H18.2686C16.9375 64.2891 15.8584 63.21 15.8584 61.8789Z" fill="white" fill-opacity="0.5"/>
<path d="M15.8584 78.1165C15.8584 76.7854 16.9375 75.7063 18.2686 75.7063H65.7314C67.0625 75.7063 68.1416 76.7854 68.1416 78.1165C68.1416 79.4476 67.0625 80.5266 65.7314 80.5266H18.2686C16.9375 80.5266 15.8584 79.4476 15.8584 78.1165Z" fill="white" fill-opacity="0.5"/>
<path d="M-0.000976562 40C-0.000976562 37.7909 1.78988 36 3.99902 36H79.999C82.2082 36 83.999 37.7909 83.999 40V44C83.999 46.2091 82.2082 48 79.999 48H3.99902C1.78988 48 -0.000976562 46.2091 -0.000976562 44V40Z" fill="white"/>
<path d="M0 76.2358C0 74.0266 1.79086 72.2358 4 72.2358H7.63068C9.83982 72.2358 11.6307 74.0266 11.6307 76.2358V80C11.6307 82.2091 9.83982 84 7.63068 84H4C1.79086 84 0 82.2091 0 80V76.2358Z" fill="white"/>
<path fill-rule="evenodd" clip-rule="evenodd" d="M4 55.9982C1.79086 55.9982 0 57.789 0 59.9982V63.7624C0 65.9715 1.79086 67.7624 4 67.7624H7.63068C9.83982 67.7624 11.6307 65.9715 11.6307 63.7624V59.9982C11.6307 57.789 9.83982 55.9982 7.63068 55.9982H4ZM8.12218 58.4201L9.67382 59.5921L5.0271 65.8506L3.47545 64.6786L3.50511 64.6378L1.9541 63.4671L3.11578 61.9018L4.66742 63.0726L8.12218 58.4201Z" fill="white"/>
</svg>
