<svg width="84" height="84" viewBox="0 0 84 84" fill="none" xmlns="http://www.w3.org/2000/svg">
<path d="M-0.000976562 4C-0.000976562 1.79086 1.78988 0 3.99902 0H79.999C82.2082 0 83.999 1.79086 83.999 4V8C83.999 10.2091 82.2082 12 79.999 12H3.99902C1.78988 12 -0.000976562 10.2091 -0.000976562 8V4Z" fill="white"/>
<path d="M-0.000976562 20C-0.000976562 17.7909 1.78988 16 3.99902 16H57.999C60.2082 16 61.999 17.7909 61.999 20V24C61.999 26.2091 60.2082 28 57.999 28H3.99902C1.78988 28 -0.000976562 26.2091 -0.000976562 24V20Z" fill="white" fill-opacity="0.6"/>
<path d="M0 78C0 74.6863 2.68629 72 6 72H33.6552C36.9689 72 39.6552 74.6863 39.6552 78C39.6552 81.3137 36.9689 84 33.6552 84H6.00001C2.6863 84 0 81.3137 0 78Z" fill="black" fill-opacity="0.6"/>
<path d="M15.999 36.8304C15.999 39.058 14.2082 40.8638 11.999 40.8638C9.78988 40.8638 7.99902 39.058 7.99902 36.8304C7.99902 34.6027 9.78988 32.7969 11.999 32.7969C14.2082 32.7969 15.999 34.6027 15.999 36.8304Z" fill="white" fill-opacity="0.4"/>
<path d="M27.999 36.8304C27.999 39.058 26.2082 40.8638 23.999 40.8638C21.7899 40.8638 19.999 39.058 19.999 36.8304C19.999 34.6027 21.7899 32.7969 23.999 32.7969C26.2082 32.7969 27.999 34.6027 27.999 36.8304Z" fill="white" fill-opacity="0.4"/>
<path d="M39.999 36.8304C39.999 39.058 38.2082 40.8638 35.999 40.8638C33.7899 40.8638 31.999 39.058 31.999 36.8304C31.999 34.6027 33.7899 32.7969 35.999 32.7969C38.2082 32.7969 39.999 34.6027 39.999 36.8304Z" fill="white" fill-opacity="0.4"/>
<path d="M51.999 36.8304C51.999 39.058 50.2082 40.8638 47.999 40.8638C45.7899 40.8638 43.999 39.058 43.999 36.8304C43.999 34.6027 45.7899 32.7969 47.999 32.7969C50.2082 32.7969 51.999 34.6027 51.999 36.8304Z" fill="white" fill-opacity="0.4"/>
<path d="M63.999 36.8304C63.999 39.058 62.2082 40.8638 59.999 40.8638C57.7899 40.8638 55.999 39.058 55.999 36.8304C55.999 34.6027 57.7899 32.7969 59.999 32.7969C62.2082 32.7969 63.999 34.6027 63.999 36.8304Z" fill="white" fill-opacity="0.4"/>
<path d="M75.999 36.8304C75.999 39.058 74.2082 40.8638 71.999 40.8638C69.7899 40.8638 67.999 39.058 67.999 36.8304C67.999 34.6027 69.7899 32.7969 71.999 32.7969C74.2082 32.7969 75.999 34.6027 75.999 36.8304Z" fill="white" fill-opacity="0.4"/>
<path d="M15.999 48.9007C15.999 51.1283 14.2082 52.9342 11.999 52.9342C9.78988 52.9342 7.99902 51.1283 7.99902 48.9007C7.99902 46.673 9.78988 44.8672 11.999 44.8672C14.2082 44.8672 15.999 46.673 15.999 48.9007Z" fill="white" fill-opacity="0.4"/>
<path d="M27.999 48.9007C27.999 51.1283 26.2082 52.9342 23.999 52.9342C21.7899 52.9342 19.999 51.1283 19.999 48.9007C19.999 46.673 21.7899 44.8672 23.999 44.8672C26.2082 44.8672 27.999 46.673 27.999 48.9007Z" fill="white" fill-opacity="0.4"/>
<path d="M39.999 48.9007C39.999 51.1283 38.2082 52.9342 35.999 52.9342C33.7899 52.9342 31.999 51.1283 31.999 48.9007C31.999 46.673 33.7899 44.8672 35.999 44.8672C38.2082 44.8672 39.999 46.673 39.999 48.9007Z" fill="white" fill-opacity="0.4"/>
<path d="M51.999 48.9007C51.999 51.1283 50.2082 52.9342 47.999 52.9342C45.7899 52.9342 43.999 51.1283 43.999 48.9007C43.999 46.673 45.7899 44.8672 47.999 44.8672C50.2082 44.8672 51.999 46.673 51.999 48.9007Z" fill="white" fill-opacity="0.4"/>
<path d="M63.999 48.9007C63.999 51.1283 62.2082 52.9342 59.999 52.9342C57.7899 52.9342 55.999 51.1283 55.999 48.9007C55.999 46.673 57.7899 44.8672 59.999 44.8672C62.2082 44.8672 63.999 46.673 63.999 48.9007Z" fill="white" fill-opacity="0.4"/>
<path d="M75.999 48.9007C75.999 51.1283 74.2082 52.9342 71.999 52.9342C69.7899 52.9342 67.999 51.1283 67.999 48.9007C67.999 46.673 69.7899 44.8672 71.999 44.8672C74.2082 44.8672 75.999 46.673 75.999 48.9007Z" fill="white" fill-opacity="0.4"/>
<path d="M15.999 60.9007C15.999 63.1283 14.2082 64.9342 11.999 64.9342C9.78988 64.9342 7.99902 63.1283 7.99902 60.9007C7.99902 58.673 9.78988 56.8672 11.999 56.8672C14.2082 56.8672 15.999 58.673 15.999 60.9007Z" fill="white" fill-opacity="0.4"/>
<path d="M27.999 60.9007C27.999 63.1283 26.2082 64.9342 23.999 64.9342C21.7899 64.9342 19.999 63.1283 19.999 60.9007C19.999 58.673 21.7899 56.8672 23.999 56.8672C26.2082 56.8672 27.999 58.673 27.999 60.9007Z" fill="white" fill-opacity="0.4"/>
<path d="M39.999 60.9007C39.999 63.1283 38.2082 64.9342 35.999 64.9342C33.7899 64.9342 31.999 63.1283 31.999 60.9007C31.999 58.673 33.7899 56.8672 35.999 56.8672C38.2082 56.8672 39.999 58.673 39.999 60.9007Z" fill="white" fill-opacity="0.4"/>
<path d="M27.999 48.9007C27.999 51.1283 26.2082 52.9342 23.999 52.9342C21.7899 52.9342 19.999 51.1283 19.999 48.9007C19.999 46.673 21.7899 44.8672 23.999 44.8672C26.2082 44.8672 27.999 46.673 27.999 48.9007Z" fill="white"/>
<path fill-rule="evenodd" clip-rule="evenodd" d="M31.999 48.9007C31.999 53.3059 28.4487 56.9342 23.999 56.9342C19.5494 56.9342 15.999 53.3059 15.999 48.9007C15.999 44.4954 19.5494 40.8672 23.999 40.8672C28.4487 40.8672 31.999 44.4954 31.999 48.9007ZM23.999 52.9342C26.2082 52.9342 27.999 51.1283 27.999 48.9007C27.999 46.673 26.2082 44.8672 23.999 44.8672C21.7899 44.8672 19.999 46.673 19.999 48.9007C19.999 51.1283 21.7899 52.9342 23.999 52.9342Z" fill="black" fill-opacity="0.4"/>
</svg>
