<svg width="84" height="84" viewBox="0 0 84 84" fill="none" xmlns="http://www.w3.org/2000/svg">
<path d="M0 12.8125C0 10.6034 1.79086 8.8125 4 8.8125H79.9988C82.2079 8.8125 83.9988 10.6034 83.9988 12.8125V16.2366C83.9988 18.4458 82.2079 20.2366 79.9988 20.2366H4C1.79086 20.2366 0 18.4458 0 16.2366V12.8125Z" fill="white"/>
<path d="M0 3.16361C0 1.4164 1.4164 0 3.16361 0H80.8352C82.5824 0 83.9988 1.4164 83.9988 3.16361C83.9988 4.91082 82.5824 6.32722 80.8352 6.32722H3.16361C1.4164 6.32722 0 4.91082 0 3.16361Z" fill="white" fill-opacity="0.6"/>
<path d="M39.0737 26.7718L35.6732 24.168L32.2728 26.7718H14.2154C12.7881 26.7718 11.6309 27.905 11.6309 29.3027V81.4676C11.6309 82.8653 12.7881 83.9985 14.2154 83.9985H57.131C58.5584 83.9985 59.7156 82.8653 59.7156 81.4676V29.3027C59.7156 27.905 58.5584 26.7718 57.131 26.7718H39.0737Z" fill="black" fill-opacity="0.3"/>
</svg>
