<svg width="84" height="84" viewBox="0 0 84 84" fill="none" xmlns="http://www.w3.org/2000/svg">
<path fill-rule="evenodd" clip-rule="evenodd" d="M0.000976562 22.0003C0.000976562 19.7912 1.79184 18.0003 4.00098 18.0003H80.001C82.2101 18.0003 84.001 19.7912 84.001 22.0003V62.0003C84.001 64.2094 82.2101 66.0003 80.001 66.0003H4.00098C1.79184 66.0003 0.000976562 64.2094 0.000976562 62.0003V22.0003ZM14.084 27.3441L22.5387 41.9881H5.62924L14.084 27.3441ZM34.8301 30.0042C33.499 30.0042 32.4199 31.0833 32.4199 32.4144C32.4199 33.7455 33.499 34.8245 34.8301 34.8245H73.1113C74.4424 34.8245 75.5215 33.7455 75.5215 32.4144C75.5215 31.0833 74.4424 30.0042 73.1113 30.0042H34.8301ZM32.4199 42.3128C32.4199 40.9817 33.499 39.9026 34.8301 39.9026H73.1113C74.4424 39.9026 75.5215 40.9817 75.5215 42.3128C75.5215 43.6439 74.4424 44.723 73.1113 44.723H34.8301C33.499 44.723 32.4199 43.6439 32.4199 42.3128ZM34.8301 49.8011C33.499 49.8011 32.4199 50.8801 32.4199 52.2112C32.4199 53.5423 33.499 54.6214 34.8301 54.6214H60.6348C61.9659 54.6214 63.0449 53.5423 63.0449 52.2112C63.0449 50.8801 61.9659 49.8011 60.6348 49.8011H34.8301Z" fill="white"/>
<path d="M32.4199 32.4144C32.4199 31.0833 33.499 30.0042 34.8301 30.0042H73.1113C74.4424 30.0042 75.5215 31.0833 75.5215 32.4144C75.5215 33.7455 74.4424 34.8245 73.1113 34.8245H34.8301C33.499 34.8245 32.4199 33.7455 32.4199 32.4144Z" fill="white" fill-opacity="0.7"/>
<path d="M32.4199 42.3128C32.4199 40.9817 33.499 39.9026 34.8301 39.9026H73.1113C74.4424 39.9026 75.5215 40.9817 75.5215 42.3128C75.5215 43.6439 74.4424 44.723 73.1113 44.723H34.8301C33.499 44.723 32.4199 43.6439 32.4199 42.3128Z" fill="white" fill-opacity="0.7"/>
<path d="M32.4199 52.2112C32.4199 50.8801 33.499 49.8011 34.8301 49.8011H60.6348C61.9659 49.8011 63.0449 50.8801 63.0449 52.2112C63.0449 53.5423 61.9659 54.6214 60.6348 54.6214H34.8301C33.499 54.6214 32.4199 53.5423 32.4199 52.2112Z" fill="white" fill-opacity="0.7"/>
<path d="M14.084 27.3441L22.5387 41.9881H5.62924L14.084 27.3441Z" fill="black" fill-opacity="0.2"/>
<path d="M0.000976562 4.00391C0.000976562 1.79477 1.79184 0.00390625 4.00098 0.00390625H80.001C82.2101 0.00390625 84.001 1.79477 84.001 4.00391V10.0039C84.001 12.213 82.2101 14.0039 80.001 14.0039H4.00098C1.79184 14.0039 0.000976562 12.213 0.000976562 10.0039V4.00391Z" fill="black" fill-opacity="0.2"/>
<path d="M0.000976562 73.8047C0.000976562 71.5955 1.79184 69.8047 4.00098 69.8047H80.001C82.2101 69.8047 84.001 71.5955 84.001 73.8047V79.8047C84.001 82.0138 82.2101 83.8047 80.001 83.8047H4.00098C1.79184 83.8047 0.000976562 82.0138 0.000976562 79.8047V73.8047Z" fill="black" fill-opacity="0.2"/>
</svg>
