<svg width="84" height="84" viewBox="0 0 84 84" fill="none" xmlns="http://www.w3.org/2000/svg">
<path d="M0 4C0 1.79086 1.79086 0 4 0H64.3813C66.5904 0 68.3812 1.79086 68.3812 4V7.76432C68.3812 9.97346 66.5904 11.7643 64.3812 11.7643H3.99999C1.79085 11.7643 0 9.97346 0 7.76432V4Z" fill="white"/>
<path d="M0 18.5864C0 16.3773 1.79086 14.5864 4 14.5864H80C82.2091 14.5864 84 16.3773 84 18.5864V36.9385C84 39.1476 82.2091 40.9385 80 40.9385H4C1.79086 40.9385 0 39.1476 0 36.9385V18.5864Z" fill="white" fill-opacity="0.6"/>
<path d="M0 47.7618C0 45.5526 1.79086 43.7618 4 43.7618H7.63077C9.83991 43.7618 11.6308 45.5526 11.6308 47.7618V51.5261C11.6308 53.7352 9.83991 55.5261 7.63077 55.5261H4C1.79086 55.5261 0 53.7352 0 51.5261V47.7618Z" fill="white" fill-opacity="0.9"/>
<path fill-rule="evenodd" clip-rule="evenodd" d="M18.8615 43.7618C16.6524 43.7618 14.8615 45.5526 14.8615 47.7618V51.5261C14.8615 53.7352 16.6524 55.5261 18.8615 55.5261H22.4923C24.7014 55.5261 26.4923 53.7352 26.4923 51.5261V47.7618C26.4923 45.5526 24.7014 43.7618 22.4923 43.7618H18.8615ZM22.9854 46.1849L24.537 47.357L19.8903 53.6155L18.3386 52.4435L18.3683 52.4028L16.8172 51.232L17.9789 49.6667L19.5306 50.8375L22.9854 46.1849Z" fill="white"/>
<path d="M29.7231 47.7618C29.7231 45.5526 31.5139 43.7618 33.7231 43.7618H37.3538C39.563 43.7618 41.3538 45.5526 41.3538 47.7618V51.5261C41.3538 53.7352 39.563 55.5261 37.3538 55.5261H33.7231C31.5139 55.5261 29.7231 53.7352 29.7231 51.5261V47.7618Z" fill="white" fill-opacity="0.6"/>
<path d="M44.5846 47.7618C44.5846 45.5526 46.3755 43.7618 48.5846 43.7618H52.2154C54.4245 43.7618 56.2154 45.5526 56.2154 47.7618V51.5261C56.2154 53.7352 54.4245 55.5261 52.2154 55.5261H48.5846C46.3755 55.5261 44.5846 53.7352 44.5846 51.5261V47.7618Z" fill="white" fill-opacity="0.3"/>
<path fill-rule="evenodd" clip-rule="evenodd" d="M4 58.3499C1.79086 58.3499 0 60.1407 0 62.3499V66.1142C0 68.3233 1.79086 70.1142 4 70.1142H80C82.2091 70.1142 84 68.3233 84 66.1142V62.3499C84 60.1407 82.2091 58.3499 80 58.3499H4ZM71.4039 62.4513L74.4721 66.5L77.5402 62.4513H71.4039Z" fill="white"/>
<path d="M24.8296 78.694C24.8296 81.6239 22.4741 83.9991 19.5686 83.9991C16.663 83.9991 14.3075 81.6239 14.3075 78.694C14.3075 75.7641 16.663 73.3889 19.5686 73.3889C22.4741 73.3889 24.8296 75.7641 24.8296 78.694Z" fill="white" fill-opacity="0.6"/>
<path fill-rule="evenodd" clip-rule="evenodd" d="M33.7235 72.2365C31.5144 72.2365 29.7235 74.0274 29.7235 76.2365V80.0009C29.7235 82.21 31.5144 84.0009 33.7235 84.0009H80.0004C82.2096 84.0009 84.0004 82.21 84.0004 80.0009V76.2365C84.0004 74.0274 82.2096 72.2365 80.0004 72.2365H33.7235ZM35.5392 80.6486C36.6076 80.6486 37.4738 79.7751 37.4738 78.6977C37.4738 77.6203 36.6076 76.7468 35.5392 76.7468C34.4707 76.7468 33.6045 77.6203 33.6045 78.6977C33.6045 79.7751 34.4707 80.6486 35.5392 80.6486ZM41.9969 80.6486C43.0654 80.6486 43.9316 79.7751 43.9316 78.6977C43.9316 77.6203 43.0654 76.7468 41.9969 76.7468C40.9284 76.7468 40.0622 77.6203 40.0622 78.6977C40.0622 79.7751 40.9284 80.6486 41.9969 80.6486ZM50.3893 78.6977C50.3893 79.7751 49.5232 80.6486 48.4547 80.6486C47.3862 80.6486 46.52 79.7751 46.52 78.6977C46.52 77.6203 47.3862 76.7468 48.4547 76.7468C49.5232 76.7468 50.3893 77.6203 50.3893 78.6977Z" fill="white"/>
</svg>
