<svg width="84" height="84" viewBox="0 0 84 84" fill="none" xmlns="http://www.w3.org/2000/svg">
<path d="M72 20.996C72 25.9665 67.9706 29.996 63 29.996C58.0294 29.996 54 25.9665 54 20.996C54 16.0254 58.0294 11.996 63 11.996C67.9706 11.996 72 16.0254 72 20.996Z" fill="white"/>
<path fill-rule="evenodd" clip-rule="evenodd" d="M12.3014 36.3394C9.17719 39.4636 9.17719 44.5289 12.3014 47.6531L36.343 71.6947C39.4672 74.8189 44.5325 74.8189 47.6567 71.6947L71.6984 47.6531C74.8226 44.5289 74.8225 39.4636 71.6983 36.3394L47.6567 12.2977C44.5325 9.17354 39.4672 9.17354 36.343 12.2977L12.3014 36.3394ZM42.9511 23.7748C42.6517 22.8535 41.3483 22.8535 41.0489 23.7748L37.4764 34.77C37.3425 35.182 36.9586 35.461 36.5253 35.461H24.9643C23.9956 35.461 23.5928 36.7006 24.3765 37.27L33.7296 44.0654C34.0801 44.32 34.2267 44.7714 34.0929 45.1834L30.5203 56.1786C30.221 57.0999 31.2754 57.866 32.0592 57.2966L41.4122 50.5013C41.7627 50.2466 42.2373 50.2466 42.5878 50.5013L51.9408 57.2966C52.7246 57.866 53.779 57.0999 53.4797 56.1786L49.9071 45.1834C49.7733 44.7714 49.9199 44.32 50.2704 44.0654L59.6235 37.27C60.4072 36.7006 60.0044 35.461 59.0357 35.461H47.4747C47.0414 35.461 46.6575 35.182 46.5236 34.77L42.9511 23.7748Z" fill="white" fill-opacity="0.4"/>
<path d="M41.0489 23.7748C41.3483 22.8535 42.6517 22.8535 42.9511 23.7748L46.5236 34.77C46.6575 35.182 47.0414 35.461 47.4747 35.461H59.0357C60.0044 35.461 60.4072 36.7006 59.6235 37.27L50.2704 44.0654C49.9199 44.32 49.7733 44.7714 49.9071 45.1834L53.4797 56.1786C53.779 57.0999 52.7246 57.866 51.9408 57.2966L42.5878 50.5013C42.2373 50.2466 41.7627 50.2466 41.4122 50.5013L32.0592 57.2966C31.2754 57.866 30.221 57.0999 30.5203 56.1786L34.0929 45.1834C34.2267 44.7714 34.0801 44.32 33.7296 44.0654L24.3765 37.27C23.5928 36.7006 23.9956 35.461 24.9643 35.461H36.5253C36.9586 35.461 37.3425 35.182 37.4764 34.77L41.0489 23.7748Z" fill="white" fill-opacity="0.1"/>
</svg>
