<svg viewBox="0 0 130 130" fill="none" xmlns="http://www.w3.org/2000/svg">
<rect x="0.970703" y="0.21875" width="105.828" height="18.2067" rx="4" fill="white"/>
<rect x="0.970703" y="22.793" width="130" height="40.783" rx="4" fill="white" fill-opacity="0.6"/>
<rect x="0.970703" y="67.9453" width="18" height="18.2067" rx="4" fill="white" fill-opacity="0.9"/>
<path fill-rule="evenodd" clip-rule="evenodd" d="M27.9707 67.9453C25.7616 67.9453 23.9707 69.7362 23.9707 71.9453V82.152C23.9707 84.3611 25.7616 86.152 27.9707 86.152H37.9707C40.1798 86.152 41.9707 84.3611 41.9707 82.152V71.9453C41.9707 69.7362 40.1798 67.9453 37.9707 67.9453H27.9707ZM36.543 71.6952L38.9443 73.5091L31.7998 83.1319L31.7529 83.1949L29.3516 81.3811L29.3975 81.318L26.9971 79.5061L28.7949 77.0837L31.1963 78.8956L36.543 71.6952Z" fill="white"/>
<rect x="46.9707" y="67.9453" width="18" height="18.2067" rx="4" fill="white" fill-opacity="0.6"/>
<rect x="69.9707" y="67.9453" width="18" height="18.2067" rx="4" fill="white" fill-opacity="0.3"/>
<path fill-rule="evenodd" clip-rule="evenodd" d="M4.9707 90.5234C2.76156 90.5234 0.970703 92.3143 0.970703 94.5234V104.73C0.970703 106.939 2.76156 108.73 4.9707 108.73H126.971C129.18 108.73 130.971 106.939 130.971 104.73V94.5234C130.971 92.3143 129.18 90.5234 126.971 90.5234H4.9707ZM111.477 96.8701L116.225 103.136L120.973 96.8701H111.477Z" fill="white" fill-opacity="0.3"/>
<path d="M16.6133 122.007C16.6133 125.725 13.6278 128.717 9.97119 128.717C6.31463 128.717 3.3291 125.725 3.3291 122.007C3.3291 118.289 6.31463 115.297 9.97119 115.297C13.6278 115.297 16.6133 118.289 16.6133 122.007Z" stroke="white" stroke-width="3"/>
<ellipse cx="31.2554" cy="122.007" rx="8.14209" ry="8.21024" fill="white" fill-opacity="0.6"/>
<path fill-rule="evenodd" clip-rule="evenodd" d="M50.9707 112.012C48.7616 112.012 46.9707 113.803 46.9707 116.012V126.218C46.9707 128.428 48.7616 130.218 50.9707 130.218H126.971C129.18 130.218 130.971 128.428 130.971 126.218V116.012C130.971 113.803 129.18 112.012 126.971 112.012H50.9707ZM55.9707 125.031C57.6243 125.031 58.9648 123.68 58.9648 122.012C58.9648 120.345 57.6243 118.993 55.9707 118.993C54.3171 118.993 52.9766 120.345 52.9766 122.012C52.9766 123.68 54.3171 125.031 55.9707 125.031ZM65.9648 125.031C67.6185 125.031 68.959 123.68 68.959 122.012C68.959 120.345 67.6185 118.993 65.9648 118.993C64.3112 118.993 62.9707 120.345 62.9707 122.012C62.9707 123.68 64.3112 125.031 65.9648 125.031ZM78.9531 122.012C78.9531 123.68 77.6126 125.031 75.959 125.031C74.3054 125.031 72.9648 123.68 72.9648 122.012C72.9648 120.345 74.3054 118.993 75.959 118.993C77.6126 118.993 78.9531 120.345 78.9531 122.012Z" fill="white"/>
</svg>
