<svg width="84" height="84" viewBox="0 0 84 84" fill="none" xmlns="http://www.w3.org/2000/svg">
<path d="M0.000976562 4.00391C0.000976562 1.79477 1.79184 0.00390625 4.00098 0.00390625H80.001C82.2101 0.00390625 84.001 1.79477 84.001 4.00391V80.0039C84.001 82.213 82.2101 84.0039 80.001 84.0039H4.00098C1.79184 84.0039 0.000976562 82.213 0.000976562 80.0039V4.00391Z" fill="black" fill-opacity="0.2"/>
<path d="M24.8019 14.7959C25.1012 13.8746 26.4046 13.8746 26.704 14.7959L28.8251 21.324C28.959 21.736 29.3429 22.015 29.7761 22.015L36.6402 22.015C37.6089 22.015 38.0117 23.2546 37.228 23.824L31.6748 27.8586C31.3244 28.1132 31.1777 28.5646 31.3116 28.9766L33.4327 35.5047C33.732 36.426 32.6775 37.1921 31.8938 36.6227L26.3407 32.5882C25.9902 32.3335 25.5156 32.3335 25.1651 32.5882L19.612 36.6227C18.8283 37.1921 17.7738 36.426 18.0732 35.5047L20.1943 28.9766C20.3282 28.5646 20.1815 28.1132 19.831 27.8586L14.2779 23.824C13.4942 23.2546 13.897 22.015 14.8657 22.015L21.7297 22.015C22.1629 22.015 22.5469 21.736 22.6808 21.324L24.8019 14.7959Z" fill="white"/>
<path d="M15.8538 62.2442C14.2917 60.6821 14.2917 58.1494 15.8538 56.5873L22.9249 49.5163C24.487 47.9542 27.0196 47.9542 28.5817 49.5163L35.6528 56.5873C37.2149 58.1494 37.2149 60.6821 35.6528 62.2442L28.5817 69.3153C27.0196 70.8774 24.487 70.8774 22.9249 69.3153L15.8538 62.2442Z" fill="black" fill-opacity="0.4"/>
<path fill-rule="evenodd" clip-rule="evenodd" d="M52.9326 58.6892C52.9326 63.1075 56.5143 66.6892 60.9326 66.6892C65.3509 66.6892 68.9326 63.1075 68.9326 58.6892C68.9326 54.2709 65.3509 50.6892 60.9326 50.6892C56.5143 50.6892 52.9326 54.2709 52.9326 58.6892ZM60.9326 46.6892C54.3052 46.6892 48.9326 52.0618 48.9326 58.6892C48.9326 65.3166 54.3052 70.6892 60.9326 70.6892C67.56 70.6892 72.9326 65.3166 72.9326 58.6892C72.9326 52.0618 67.56 46.6892 60.9326 46.6892Z" fill="white"/>
<path d="M60.9326 13.4665C59.828 13.4665 58.9326 14.362 58.9326 15.4665V23.4665H50.9326C49.828 23.4665 48.9326 24.362 48.9326 25.4665C48.9326 26.5711 49.828 27.4665 50.9326 27.4665H58.9326V35.4665C58.9326 36.5711 59.828 37.4665 60.9326 37.4665C62.0372 37.4665 62.9326 36.5711 62.9326 35.4665V27.4665H70.9326C72.0372 27.4665 72.9326 26.5711 72.9326 25.4665C72.9326 24.362 72.0372 23.4665 70.9326 23.4665H62.9326V15.4665C62.9326 14.362 62.0372 13.4665 60.9326 13.4665Z" fill="black" fill-opacity="0.6"/>
</svg>
