<svg width="84" height="84" viewBox="0 0 84 84" fill="none" xmlns="http://www.w3.org/2000/svg">
<path fill-rule="evenodd" clip-rule="evenodd" d="M4.00098 0.00390625C1.79184 0.00390625 0.000976562 1.79477 0.000976562 4.00391V80.0039C0.000976562 82.213 1.79184 84.0039 4.00098 84.0039H80.001C82.2101 84.0039 84.001 82.213 84.001 80.0039V4.00391C84.001 1.79477 82.2101 0.00390625 80.001 0.00390625H4.00098ZM29.5472 29.052C31.0093 26.0608 35.2723 26.0608 36.7345 29.052L49.7428 55.6641L55.2414 44.4153C56.7035 41.4241 60.9666 41.4241 62.4287 44.4153L74.5653 69.2441C75.8643 71.9015 73.9295 75.0007 70.9717 75.0007H52.8342L52.7874 75.001H13.4943C10.5365 75.001 8.6017 71.9017 9.90065 69.2443L29.5472 29.052Z" fill="black" fill-opacity="0.3"/>
<path d="M72.001 21.0039C72.001 25.9745 67.9715 30.0039 63.001 30.0039C58.0304 30.0039 54.001 25.9745 54.001 21.0039C54.001 16.0333 58.0304 12.0039 63.001 12.0039C67.9715 12.0039 72.001 16.0333 72.001 21.0039Z" fill="white"/>
<path d="M36.7345 29.052C35.2723 26.0608 31.0093 26.0608 29.5472 29.052L9.90065 69.2443C8.6017 71.9017 10.5365 75.001 13.4943 75.001H52.7874C52.803 75.001 52.8186 75.0009 52.8342 75.0007H70.9717C73.9295 75.0007 75.8643 71.9015 74.5653 69.2441L62.4287 44.4153C60.9666 41.4241 56.7035 41.4241 55.2414 44.4153L49.7428 55.6641L36.7345 29.052Z" fill="white" fill-opacity="0.2"/>
</svg>
