<svg width="84" height="84" viewBox="0 0 84 84" fill="none" xmlns="http://www.w3.org/2000/svg">
<rect x="-0.000976562" width="68.3807" height="11.7642" rx="4" fill="white"/>
<rect x="-0.000976562" y="14.5859" width="83.9994" height="26.3519" rx="4" fill="white" fill-opacity="0.6"/>
<rect x="-0.000976562" y="43.7617" width="11.6307" height="11.7642" rx="4" fill="white" fill-opacity="0.9"/>
<path fill-rule="evenodd" clip-rule="evenodd" d="M18.8613 43.7734C16.6522 43.7734 14.8613 45.5643 14.8613 47.7734V51.5377C14.8613 53.7468 16.6522 55.5377 18.8613 55.5377H22.492C24.7011 55.5377 26.492 53.7468 26.492 51.5377V47.7734C26.492 45.5643 24.7011 43.7734 22.492 43.7734H18.8613ZM22.9834 46.1965L24.5351 47.3685L19.9187 53.5863L19.8884 53.627L18.3367 52.455L18.3664 52.4142L16.8154 51.2435L17.9771 49.6782L19.5287 50.849L22.9834 46.1965Z" fill="white"/>
<rect x="29.7197" y="43.7617" width="11.6307" height="11.7642" rx="4" fill="white" fill-opacity="0.6"/>
<rect x="44.583" y="43.7617" width="11.6307" height="11.7642" rx="4" fill="white" fill-opacity="0.3"/>
<path fill-rule="evenodd" clip-rule="evenodd" d="M3.99902 58.3477C1.78988 58.3477 -0.000976562 60.1385 -0.000976562 62.3477V66.1119C-0.000976562 68.321 1.78988 70.1119 3.99902 70.1119H79.9984C82.2076 70.1119 83.9984 68.321 83.9984 66.1119V62.3477C83.9984 60.1385 82.2076 58.3477 79.9984 58.3477H3.99902ZM71.4034 62.4475L74.4715 66.4962L77.5396 62.4475H71.4034Z" fill="white" fill-opacity="0.3"/>
<path d="M9.57572 78.6996C9.57572 80.8128 7.8801 82.5046 5.81471 82.5046C3.74933 82.5046 2.05371 80.8128 2.05371 78.6996C2.05371 76.5863 3.74933 74.8945 5.81471 74.8945C7.8801 74.8945 9.57572 76.5863 9.57572 78.6996Z" stroke="white" stroke-width="3"/>
<ellipse cx="19.5686" cy="78.6996" rx="5.261" ry="5.30504" fill="white" fill-opacity="0.6"/>
<path fill-rule="evenodd" clip-rule="evenodd" d="M33.7227 72.2383C31.5135 72.2383 29.7227 74.0291 29.7227 76.2383V80.0025C29.7227 82.2117 31.5135 84.0025 33.7227 84.0025H79.9992C82.2083 84.0025 83.9992 82.2116 83.9992 80.0025V76.2383C83.9992 74.0291 82.2083 72.2383 79.9992 72.2383H33.7227ZM35.5358 80.6548C36.6043 80.6548 37.4705 79.7814 37.4705 78.704C37.4705 77.6266 36.6043 76.7531 35.5358 76.7531C34.4673 76.7531 33.6012 77.6266 33.6012 78.704C33.6012 79.7814 34.4673 80.6548 35.5358 80.6548ZM41.9939 80.6548C43.0624 80.6548 43.9286 79.7814 43.9286 78.704C43.9286 77.6266 43.0624 76.7531 41.9939 76.7531C40.9255 76.7531 40.0593 77.6266 40.0593 78.704C40.0593 79.7814 40.9255 80.6548 41.9939 80.6548ZM50.3843 78.704C50.3843 79.7814 49.5181 80.6548 48.4496 80.6548C47.3811 80.6548 46.515 79.7814 46.515 78.704C46.515 77.6266 47.3811 76.7531 48.4496 76.7531C49.5181 76.7531 50.3843 77.6266 50.3843 78.704Z" fill="white"/>
</svg>
