<svg width="84" height="84" viewBox="0 0 84 84" fill="none" xmlns="http://www.w3.org/2000/svg">
<path d="M23.9996 60.0042V80.0042C23.9996 82.2133 25.7904 84.0042 27.9996 84.0042H79.9996C82.2087 84.0042 83.9996 82.2133 83.9996 80.0042V28.0042C83.9996 25.795 82.2087 24.0042 79.9996 24.0042H59.9996V56.0042C59.9996 58.2133 58.2087 60.0042 55.9996 60.0042H23.9996Z" fill="black" fill-opacity="0.4"/>
<path fill-rule="evenodd" clip-rule="evenodd" d="M4 0.0078125C1.79086 0.0078125 0 1.79867 0 4.00781V56.0078C0 58.2169 1.79086 60.0078 4 60.0078H56C58.2091 60.0078 60 58.217 60 56.0078V4.00781C60 1.79867 58.2091 0.0078125 56 0.0078125H4ZM8 17.5625C8 15.3534 9.79086 13.5625 12 13.5625H48C50.2091 13.5625 52 15.3534 52 17.5625C52 19.7716 50.2091 21.5625 48 21.5625H12C9.79086 21.5625 8 19.7716 8 17.5625ZM8 29.0078C8 27.9032 8.89543 27.0078 10 27.0078H40C41.1046 27.0078 42 27.9032 42 29.0078C42 30.1124 41.1046 31.0078 40 31.0078H10C8.89543 31.0078 8 30.1124 8 29.0078ZM12 37.0078C9.79086 37.0078 8 38.7987 8 41.0078C8 43.2169 9.79086 45.0078 12 45.0078H28C30.2091 45.0078 32 43.2169 32 41.0078C32 38.7987 30.2091 37.0078 28 37.0078H12Z" fill="white"/>
<path d="M8.00071 17.5643C8.00071 15.3552 9.79157 13.5643 12.0007 13.5643H48.0007C50.2098 13.5643 52.0007 15.3552 52.0007 17.5643C52.0007 19.7735 50.2098 21.5643 48.0007 21.5643H12.0007C9.79157 21.5643 8.00071 19.7735 8.00071 17.5643Z" fill="white" fill-opacity="0.2"/>
<path d="M8.00071 29.0096C8.00071 27.9051 8.89614 27.0096 10.0007 27.0096H40.0007C41.1053 27.0096 42.0007 27.9051 42.0007 29.0096C42.0007 30.1142 41.1053 31.0096 40.0007 31.0096H10.0007C8.89614 31.0096 8.00071 30.1142 8.00071 29.0096Z" fill="white" fill-opacity="0.4"/>
<path d="M8.00071 41.0096C8.00071 38.8005 9.79157 37.0096 12.0007 37.0096H28.0007C30.2098 37.0096 32.0007 38.8005 32.0007 41.0096C32.0007 43.2188 30.2098 45.0096 28.0007 45.0096H12.0007C9.79157 45.0096 8.00071 43.2188 8.00071 41.0096Z" fill="black" fill-opacity="0.4"/>
</svg>
