<svg width="84" height="84" viewBox="0 0 84 84" fill="none" xmlns="http://www.w3.org/2000/svg">
<path fill-rule="evenodd" clip-rule="evenodd" d="M3.99902 0C1.78988 0 -0.000976562 1.79086 -0.000976562 4V80C-0.000976562 82.2091 1.78988 84 3.99902 84H79.999C82.2082 84 83.999 82.2091 83.999 80V4C83.999 1.79086 82.2082 0 79.999 0H3.99902ZM37.5 38C36.1193 38 35 39.1193 35 40.5C35 41.8807 36.1193 43 37.5 43H75.5C76.8807 43 78 41.8807 78 40.5C78 39.1193 76.8807 38 75.5 38H37.5Z" fill="black" fill-opacity="0.2"/>
<path d="M35 40.5C35 39.1193 36.1193 38 37.5 38H75.5C76.8807 38 78 39.1193 78 40.5C78 41.8807 76.8807 43 75.5 43H37.5C36.1193 43 35 41.8807 35 40.5Z" fill="white" fill-opacity="0.6"/>
<path d="M18 31.2643C18 30.1256 17.0799 29.1807 15.9577 29.3742C10.282 30.3405 6 35.2685 6 41.2025C6 47.8299 11.3726 53.2025 18 53.2025V49.2025C13.5817 49.2025 10 45.6208 10 41.2025C10 37.3435 12.7323 34.1228 16.3678 33.3691C17.2565 33.1849 18 32.4667 18 31.5592V31.2643Z" fill="url(#paint0_linear_374_7351)"/>
<path d="M18 53.2025C24.6274 53.2025 30 47.8305 30 41.2031C30 34.5757 24.6274 29.2031 18 29.2031H15.924L18 33.2031C22.4183 33.2031 26 36.7848 26 41.2031C26 45.6214 22.4183 49.2025 18 49.2025V53.2025Z" fill="url(#paint1_linear_374_7351)"/>
<defs>
<linearGradient id="paint0_linear_374_7351" x1="30" y1="29.2109" x2="30" y2="49.3549" gradientUnits="userSpaceOnUse">
<stop stop-color="white"/>
<stop offset="1" stop-color="white" stop-opacity="0.5"/>
</linearGradient>
<linearGradient id="paint1_linear_374_7351" x1="17.9862" y1="32.7971" x2="18" y2="49.2031" gradientUnits="userSpaceOnUse">
<stop stop-color="white" stop-opacity="0"/>
<stop offset="1" stop-color="white" stop-opacity="0.5"/>
</linearGradient>
</defs>
</svg>
