<svg width="84" height="84" viewBox="0 0 84 84" fill="none" xmlns="http://www.w3.org/2000/svg">
<path d="M0 14C0 11.7909 1.79086 10 4 10H80C82.2091 10 84 11.7909 84 14V48C84 50.2091 82.2091 52 80 52H4C1.79086 52 0 50.2091 0 48V14Z" fill="black" fill-opacity="0.4"/>
<path d="M8 28C8 26.8954 8.89543 26 10 26H42C43.1046 26 44 26.8954 44 28C44 29.1046 43.1046 30 42 30H10C8.89543 30 8 29.1046 8 28Z" fill="white"/>
<path d="M8 36C8 34.8954 8.89543 34 10 34H34C35.1046 34 36 34.8954 36 36C36 37.1046 35.1046 38 34 38H10C8.89543 38 8 37.1046 8 36Z" fill="white"/>
<path d="M0 4C0 1.79086 1.79086 0 4 0H80C82.2091 0 84 1.79086 84 4C84 6.20914 82.2091 8 80 8H4C1.79086 8 0 6.20914 0 4Z" fill="white" fill-opacity="0.3"/>
<path d="M0 58C0 55.7909 1.79086 54 4 54H80C82.2091 54 84 55.7909 84 58V80C84 82.2091 82.2091 84 80 84H4C1.79086 84 0 82.2091 0 80V58Z" fill="white" fill-opacity="0.1"/>
</svg>
