<svg width="84" height="84" viewBox="0 0 84 84" fill="none" xmlns="http://www.w3.org/2000/svg">
<path d="M6.71,16.16c0-2.21,1.79-4,4-4h26c2.21,0,4,1.79,4,4v14c0,2.21-1.79,4-4,4H10.71c-2.21,0-4-1.79-4-4v-14Z" fill="white"/>
<path d="M44.71,54.16c0-2.21,1.79-4,4-4h26c2.21,0,4,1.79,4,4v14c0,2.21-1.79,4-4,4h-26c-2.21,0-4-1.79-4-4v-14Z" fill="black" fill-opacity="0.6"/>
<path d="M6.71,42.16c0-2.21,1.79-4,4-4h26c2.21,0,4,1.79,4,4v34c0,2.21-1.79,4-4,4H10.71c-2.21,0-4-1.79-4-4v-34Z" fill="black" fill-opacity="0.3"/>
<path d="M44.71,8.16c0-2.21,1.79-4,4-4h26c2.21,0,4,1.79,4,4v34c0,2.21-1.79,4-4,4h-26c-2.21,0-4-1.79-4-4V8.16Z" fill="white" fill-opacity="0.6"/>
</svg>