<svg width="84" height="84" viewBox="0 0 84 84" fill="none" xmlns="http://www.w3.org/2000/svg">
<path d="M-0.000976562 4C-0.000976562 1.79086 1.78988 0 3.99902 0H79.999C82.2082 0 83.999 1.79086 83.999 4V12C83.999 14.2091 82.2082 16 79.999 16H3.99902C1.78988 16 -0.000976562 14.2091 -0.000976562 12V4Z" fill="white" fill-opacity="0.3"/>
<path d="M-0.000976562 22C-0.000976562 19.7909 1.78988 18 3.99902 18H79.999C82.2082 18 83.999 19.7909 83.999 22V62C83.999 64.2091 82.2082 66 79.999 66H3.99902C1.78988 66 -0.000976562 64.2091 -0.000976562 62V22Z" fill="white"/>
<path d="M-0.000976562 72C-0.000976562 69.7909 1.78988 68 3.99902 68H79.999C82.2082 68 83.999 69.7909 83.999 72V80C83.999 82.2091 82.2082 84 79.999 84H3.99902C1.78988 84 -0.000976562 82.2091 -0.000976562 80V72Z" fill="black" fill-opacity="0.3"/>
</svg>
