<svg width="84" height="84" viewBox="0 0 84 84" fill="none" xmlns="http://www.w3.org/2000/svg">
<path d="M16 4.01707C16 1.80793 17.7909 0.0170708 20 0.0170708H64C66.2091 0.0170708 68 1.80793 68 4.01707V25.0171H16V4.01707Z" fill="black" fill-opacity="0.3"/>
<path fill-rule="evenodd" clip-rule="evenodd" d="M64 4.01707H20V21.0171H64V4.01707ZM20 0.0170708C17.7909 0.0170708 16 1.80793 16 4.01707V25.0171H68V4.01707C68 1.80793 66.2091 0.0170708 64 0.0170708H20Z" fill="white"/>
<path fill-rule="evenodd" clip-rule="evenodd" d="M23.5361 25.0171H16V80.0171C16 82.2262 17.7909 84.0171 20 84.0171H64C66.2091 84.0171 68 82.2262 68 80.0171V25.0171H59.2988C61.4799 25.0171 63.248 26.7852 63.248 28.9663C63.248 31.1474 61.4799 32.9155 59.2988 32.9155H23.5361C21.355 32.9155 19.5869 31.1474 19.5869 28.9663C19.5869 26.7852 21.355 25.0171 23.5361 25.0171ZM20 38.5171C20 37.1364 21.1193 36.0171 22.5 36.0171H33.5C34.8807 36.0171 36 37.1364 36 38.5171C36 39.8978 34.8807 41.0171 33.5 41.0171H22.5C21.1193 41.0171 20 39.8978 20 38.5171ZM29.5 44.1186C28.1193 44.1186 27 45.2379 27 46.6186C27 47.9993 28.1193 49.1186 29.5 49.1186H52.5C53.8807 49.1186 55 47.9993 55 46.6186C55 45.2379 53.8807 44.1186 52.5 44.1186H29.5ZM27 53.5171C27 52.1364 28.1193 51.0171 29.5 51.0171H40.5C41.8807 51.0171 43 52.1364 43 53.5171C43 54.8978 41.8807 56.0171 40.5 56.0171H29.5C28.1193 56.0171 27 54.8978 27 53.5171ZM21.5869 59.0171C20.4823 59.0171 19.5869 59.9125 19.5869 61.0171V63.0171C19.5869 64.1216 20.4823 65.0171 21.5869 65.0171H61.248C62.3526 65.0171 63.248 64.1216 63.248 63.0171V61.0171C63.248 59.9125 62.3526 59.0171 61.248 59.0171H21.5869ZM19.5869 68.0171C19.5869 66.9125 20.4823 66.0171 21.5869 66.0171H61.248C62.3526 66.0171 63.248 66.9125 63.248 68.0171V70.0171C63.248 71.1216 62.3526 72.0171 61.248 72.0171H21.5869C20.4823 72.0171 19.5869 71.1216 19.5869 70.0171V68.0171ZM23 74.0171C21.3431 74.0171 20 75.3602 20 77.0171C20 78.6739 21.3431 80.0171 23 80.0171H39.6133C41.2701 80.0171 42.6133 78.6739 42.6133 77.0171C42.6133 75.3602 41.2701 74.0171 39.6133 74.0171H23ZM25 46.6186C25 47.9993 23.8807 49.1186 22.5 49.1186C21.1193 49.1186 20 47.9993 20 46.6186C20 45.2379 21.1193 44.1186 22.5 44.1186C23.8807 44.1186 25 45.2379 25 46.6186ZM22.5 56.0171C23.8807 56.0171 25 54.8978 25 53.5171C25 52.1364 23.8807 51.0171 22.5 51.0171C21.1193 51.0171 20 52.1364 20 53.5171C20 54.8978 21.1193 56.0171 22.5 56.0171Z" fill="white"/>
<path d="M19.5869 28.9663C19.5869 26.7852 21.355 25.0171 23.5361 25.0171H59.2988C61.4799 25.0171 63.248 26.7852 63.248 28.9663C63.248 31.1474 61.4799 32.9155 59.2988 32.9155H23.5361C21.355 32.9155 19.5869 31.1474 19.5869 28.9663Z" fill="white" fill-opacity="0.3"/>
<path d="M20 38.5171C20 37.1364 21.1193 36.0171 22.5 36.0171H33.5C34.8807 36.0171 36 37.1364 36 38.5171C36 39.8978 34.8807 41.0171 33.5 41.0171H22.5C21.1193 41.0171 20 39.8978 20 38.5171Z" fill="white" fill-opacity="0.6"/>
<path d="M27 46.6186C27 45.2379 28.1193 44.1186 29.5 44.1186H52.5C53.8807 44.1186 55 45.2379 55 46.6186C55 47.9993 53.8807 49.1186 52.5 49.1186H29.5C28.1193 49.1186 27 47.9993 27 46.6186Z" fill="white" fill-opacity="0.6"/>
<path d="M27 53.5171C27 52.1364 28.1193 51.0171 29.5 51.0171H40.5C41.8807 51.0171 43 52.1364 43 53.5171C43 54.8978 41.8807 56.0171 40.5 56.0171H29.5C28.1193 56.0171 27 54.8978 27 53.5171Z" fill="white" fill-opacity="0.6"/>
<path fill-rule="evenodd" clip-rule="evenodd" d="M21.5869 59.0171C20.4823 59.0171 19.5869 59.9125 19.5869 61.0171V63.0171C19.5869 64.1216 20.4823 65.0171 21.5869 65.0171H61.248C62.3526 65.0171 63.248 64.1216 63.248 63.0171V61.0171C63.248 59.9125 62.3526 59.0171 61.248 59.0171H21.5869ZM58.201 60.8296L59.5 63.0796L60.799 60.8296H58.201Z" fill="white" fill-opacity="0.8"/>
<path fill-rule="evenodd" clip-rule="evenodd" d="M21.5869 66.0171C20.4823 66.0171 19.5869 66.9125 19.5869 68.0171V70.0171C19.5869 71.1216 20.4823 72.0171 21.5869 72.0171H61.248C62.3526 72.0171 63.248 71.1216 63.248 70.0171V68.0171C63.248 66.9125 62.3526 66.0171 61.248 66.0171H21.5869ZM58.201 67.5483L59.5 69.7983L60.799 67.5483H58.201Z" fill="white" fill-opacity="0.8"/>
<path d="M20 77.014C20 75.3571 21.3431 74.014 23 74.014H39.6133C41.2701 74.014 42.6133 75.3571 42.6133 77.014C42.6133 78.6708 41.2701 80.014 39.6133 80.014H23C21.3431 80.014 20 78.6708 20 77.014Z" fill="black" fill-opacity="0.3"/>
<path d="M25 46.6125C25 47.9932 23.8807 49.1125 22.5 49.1125C21.1193 49.1125 20 47.9932 20 46.6125C20 45.2317 21.1193 44.1125 22.5 44.1125C23.8807 44.1125 25 45.2317 25 46.6125Z" fill="black" fill-opacity="0.2"/>
<path d="M25 53.5109C25 54.8916 23.8807 56.0109 22.5 56.0109C21.1193 56.0109 20 54.8916 20 53.5109C20 52.1302 21.1193 51.0109 22.5 51.0109C23.8807 51.0109 25 52.1302 25 53.5109Z" fill="black" fill-opacity="0.2"/>
</svg>
