<svg width="84" height="84" viewBox="0 0 84 84" fill="none" xmlns="http://www.w3.org/2000/svg">
<path d="M0.000976562 42C0.000976562 40.8954 0.896407 40 2.00098 40H17.601C18.7055 40 19.601 40.8954 19.601 42C19.601 43.1046 18.7055 44 17.601 44H2.00098C0.89641 44 0.000976562 43.1046 0.000976562 42Z" fill="white"/>
<path d="M21.4678 42C21.4678 40.8954 22.3632 40 23.4678 40H39.0678C40.1723 40 41.0678 40.8954 41.0678 42C41.0678 43.1046 40.1723 44 39.0678 44H23.4678C22.3632 44 21.4678 43.1046 21.4678 42Z" fill="white"/>
<path d="M42.9346 42C42.9346 40.8954 43.83 40 44.9346 40H60.5346C61.6391 40 62.5346 40.8954 62.5346 42C62.5346 43.1046 61.6391 44 60.5346 44H44.9346C43.83 44 42.9346 43.1046 42.9346 42Z" fill="white"/>
<path d="M64.4014 42C64.4014 40.8954 65.2968 40 66.4014 40H82.0014C83.1059 40 84.0014 40.8954 84.0014 42C84.0014 43.1046 83.1059 44 82.0014 44H66.4014C65.2968 44 64.4014 43.1046 64.4014 42Z" fill="white" fill-opacity="0.3"/>
<path d="M0.000976562 28C0.000976562 25.7909 1.79184 24 4.00098 24H60.001C62.2101 24 64.001 25.7909 64.001 28C64.001 30.2091 62.2101 32 60.001 32H4.00098C1.79184 32 0.000976562 30.2091 0.000976562 28Z" fill="black" fill-opacity="0.3"/>
<path d="M0.000976562 54C0.000976562 52.8954 0.896407 52 2.00098 52H38.001C39.1055 52 40.001 52.8954 40.001 54C40.001 55.1046 39.1055 56 38.001 56H2.00098C0.896408 56 0.000976562 55.1046 0.000976562 54Z" fill="black" fill-opacity="0.3"/>
</svg>
