<svg width="84" height="84" viewBox="0 0 84 84" fill="none" xmlns="http://www.w3.org/2000/svg">
<path d="M0.000976562 3.99219C0.000976562 1.78305 1.79184 -0.0078125 4.00098 -0.0078125H80.001C82.2101 -0.0078125 84.001 1.78305 84.001 3.99219V79.9922C84.001 82.2013 82.2101 83.9922 80.001 83.9922H4.00098C1.79184 83.9922 0.000976562 82.2013 0.000976562 79.9922V3.99219Z" fill="black" fill-opacity="0.2"/>
<path d="M8.43492 41.9892C8.43492 35.3618 13.8075 29.9892 20.4349 29.9892H63.5687C70.1961 29.9892 75.5687 35.3618 75.5687 41.9892C75.5687 48.6166 70.1961 53.9892 63.5687 53.9892H20.4349C13.8075 53.9892 8.43492 48.6166 8.43492 41.9892Z" fill="black" fill-opacity="0.4"/>
<path d="M36.4353 41.9862C36.4353 40.8816 37.3307 39.9862 38.4353 39.9862H62.4353C63.5398 39.9862 64.4353 40.8816 64.4353 41.9862C64.4353 43.0908 63.5398 43.9862 62.4353 43.9862H38.4353C37.3307 43.9862 36.4353 43.0908 36.4353 41.9862Z" fill="white"/>
<path d="M22.7337 37.4167C23.033 36.4954 24.3364 36.4954 24.6358 37.4167L25.1415 38.9733C25.2754 39.3853 25.6594 39.6642 26.0926 39.6642H27.7293C28.698 39.6642 29.1008 40.9039 28.3171 41.4733L26.993 42.4353C26.6425 42.6899 26.4958 43.1413 26.6297 43.5533L27.1354 45.1099C27.4348 46.0312 26.3803 46.7973 25.5966 46.2279L24.2725 45.2659C23.922 45.0113 23.4474 45.0113 23.0969 45.2659L21.7728 46.2279C20.9891 46.7973 19.9346 46.0312 20.234 45.1099L20.7397 43.5533C20.8736 43.1413 20.727 42.6899 20.3765 42.4353L19.0524 41.4733C18.2687 40.9039 18.6714 39.6642 19.6402 39.6642H21.2768C21.7101 39.6642 22.094 39.3853 22.2279 38.9733L22.7337 37.4167Z" fill="white"/>
</svg>
