<svg width="84" height="84" viewBox="0 0 84 84" fill="none" xmlns="http://www.w3.org/2000/svg">
<path fill-rule="evenodd" clip-rule="evenodd" d="M3.99902 0C1.78988 0 -0.000976562 1.79086 -0.000976562 4V80C-0.000976562 82.2091 1.78988 84 3.99902 84H79.999C82.2082 84 83.999 82.2091 83.999 80V4C83.999 1.79086 82.2082 0 79.999 0H3.99902ZM37.5 38C36.1193 38 35 39.1193 35 40.5C35 41.8807 36.1193 43 37.5 43H75.5C76.8807 43 78 41.8807 78 40.5C78 39.1193 76.8807 38 75.5 38H37.5Z" fill="black" fill-opacity="0.2"/>
<path d="M35 40.5C35 39.1193 36.1193 38 37.5 38H75.5C76.8807 38 78 39.1193 78 40.5C78 41.8807 76.8807 43 75.5 43H37.5C36.1193 43 35 41.8807 35 40.5Z" fill="white" fill-opacity="0.6"/>
<path d="M25 53H9.06089V49.7642H24.9848L25 53ZM20.0371 43.2439H9V40.0732H20.0371V43.2439ZM15.1047 36.1057L15.4548 46.187C15.465 47.2276 15.2873 48.1599 14.922 48.9837C14.5668 49.7967 13.9781 50.4363 13.156 50.9024L10.3853 49.7642C10.7203 49.6775 10.974 49.4499 11.1465 49.0813C11.3292 48.7019 11.451 48.2629 11.5119 47.7642C11.5829 47.2547 11.6185 46.7778 11.6185 46.3333L11.2988 36.1057C11.2988 34.6098 11.588 33.336 12.1665 32.2846C12.7552 31.2222 13.562 30.4092 14.5871 29.8455C15.6121 29.2818 16.7894 29 18.1189 29C19.5297 29 20.7272 29.2764 21.7117 29.8293C22.6962 30.3821 23.4472 31.1518 23.9648 32.1382C24.4824 33.1138 24.7412 34.252 24.7412 35.5528H21.0571C21.0571 34.7398 20.915 34.0949 20.6308 33.6179C20.3467 33.1301 19.9711 32.7778 19.5043 32.561C19.0476 32.3442 18.5503 32.2358 18.0124 32.2358C17.4643 32.2358 16.967 32.3821 16.5205 32.6748C16.084 32.9675 15.739 33.4011 15.4853 33.9756C15.2315 34.5501 15.1047 35.2602 15.1047 36.1057Z" fill="white"/>
</svg>
