<svg width="84" height="84" viewBox="0 0 84 84" fill="none" xmlns="http://www.w3.org/2000/svg">
<path d="M-0.000976562 27.2578C-0.000976562 25.0487 1.78988 23.2578 3.99902 23.2578H61.999C64.2082 23.2578 65.999 25.0487 65.999 27.2578C65.999 29.467 64.2082 31.2578 61.999 31.2578H3.99902C1.78988 31.2578 -0.000976562 29.467 -0.000976562 27.2578Z" fill="white" fill-opacity="0.3"/>
<path d="M0 38.0039C0 36.6728 1.07906 35.5938 2.41016 35.5938H49.873C51.2041 35.5938 52.2832 36.6728 52.2832 38.0039C52.2832 39.335 51.2041 40.4141 49.873 40.4141H2.41016C1.07906 40.4141 0 39.335 0 38.0039Z" fill="white" fill-opacity="0.5"/>
<path fill-rule="evenodd" clip-rule="evenodd" d="M3.99902 48.7305C1.78988 48.7305 -0.000976562 50.5213 -0.000976562 52.7305V56.7305C-0.000976562 58.9396 1.78988 60.7305 3.99902 60.7305H79.999C82.2082 60.7305 83.999 58.9396 83.999 56.7305V52.7305C83.999 50.5213 82.2082 48.7305 79.999 48.7305H3.99902ZM8.27539 54.7305C8.27539 55.835 7.38739 56.7305 6.29199 56.7305C5.19659 56.7305 4.30859 55.835 4.30859 54.7305C4.30859 53.6259 5.19659 52.7305 6.29199 52.7305C7.38739 52.7305 8.27539 53.6259 8.27539 54.7305ZM14.7334 54.7305C14.7334 55.835 13.8454 56.7305 12.75 56.7305C11.6546 56.7305 10.7666 55.835 10.7666 54.7305C10.7666 53.6259 11.6546 52.7305 12.75 52.7305C13.8454 52.7305 14.7334 53.6259 14.7334 54.7305ZM19.2061 56.7305C20.3015 56.7305 21.1895 55.835 21.1895 54.7305C21.1895 53.6259 20.3015 52.7305 19.2061 52.7305C18.1107 52.7305 17.2227 53.6259 17.2227 54.7305C17.2227 55.835 18.1107 56.7305 19.2061 56.7305Z" fill="white"/>
<path fill-rule="evenodd" clip-rule="evenodd" d="M76.9678 43.25C76.9678 44.0871 77.6463 44.7656 78.4834 44.7656C79.3205 44.7656 79.999 44.0871 79.999 43.25C79.999 42.4129 79.3205 41.7344 78.4834 41.7344C77.6463 41.7344 76.9678 42.4129 76.9678 43.25ZM78.4834 39.7344C76.5418 39.7344 74.9678 41.3084 74.9678 43.25C74.9678 45.1916 76.5418 46.7656 78.4834 46.7656C80.425 46.7656 81.999 45.1916 81.999 43.25C81.999 41.3084 80.425 39.7344 78.4834 39.7344Z" fill="black" fill-opacity="0.4"/>
</svg>
