<svg width="84" height="84" viewBox="0 0 84 84" fill="none" xmlns="http://www.w3.org/2000/svg">
<path d="M-0.000976562 26.8125C-0.000976562 24.6034 1.78988 22.8125 3.99902 22.8125H79.9955C82.2047 22.8125 83.9955 24.6034 83.9955 26.8125V30.2363C83.9955 32.4455 82.2047 34.2363 79.9955 34.2363H3.99902C1.78988 34.2363 -0.000976562 32.4455 -0.000976562 30.2363V26.8125Z" fill="black" fill-opacity="0.5"/>
<path d="M-0.000976562 12.8126C-0.000976562 10.6034 1.78988 8.81257 3.99902 8.81257H79.9955C82.2047 8.81257 83.9955 10.6034 83.9955 12.8126V16.2364C83.9955 18.4455 82.2047 20.2364 79.9955 20.2364H3.99902C1.78988 20.2364 -0.000976562 18.4456 -0.000976562 16.2364V12.8126Z" fill="white"/>
<path d="M-0.000976562 3.16352C-0.000976562 1.41636 1.41538 0 3.16255 0H80.832C82.5792 0 83.9955 1.41636 83.9955 3.16352C83.9955 4.91069 82.5792 6.32705 80.832 6.32705H3.16255C1.41538 6.32705 -0.000976562 4.91069 -0.000976562 3.16352Z" fill="white" fill-opacity="0.6"/>
<path d="M13.5313 25.893L16.6923 31.368H10.3703L13.5313 25.893Z" fill="white"/>
<path d="M22.1127 28.5403C22.1127 27.988 22.5604 27.5403 23.1127 27.5403H73.1127C73.665 27.5403 74.1127 27.988 74.1127 28.5403C74.1127 29.0926 73.665 29.5403 73.1127 29.5403H23.1127C22.5604 29.5403 22.1127 29.0926 22.1127 28.5403Z" fill="white"/>
</svg>
