<svg width="84" height="84" viewBox="0 0 84 84" fill="none" xmlns="http://www.w3.org/2000/svg">
<path fill-rule="evenodd" clip-rule="evenodd" d="M79.999 22H3.99902V62H79.999V22ZM7.99963 28.4978C7.99963 27.1171 9.11892 25.9978 10.4996 25.9978H45.4996C46.8803 25.9978 47.9996 27.1171 47.9996 28.4978C47.9996 29.8786 46.8803 30.9978 45.4996 30.9978H10.4996C9.11892 30.9978 7.99963 29.8786 7.99963 28.4978ZM7.99963 55.4978C7.99963 54.1171 9.11892 52.9978 10.4996 52.9978H73.4996C74.8803 52.9978 75.9996 54.1171 75.9996 55.4978C75.9996 56.8786 74.8803 57.9978 73.4996 57.9978H10.4996C9.11892 57.9978 7.99963 56.8786 7.99963 55.4978ZM18.4996 34.9978C17.1189 34.9978 15.9996 36.1171 15.9996 37.4978C15.9996 38.8786 17.1189 39.9978 18.4996 39.9978H73.4996C74.8803 39.9978 75.9996 38.8786 75.9996 37.4978C75.9996 36.1171 74.8803 34.9978 73.4996 34.9978H18.4996ZM7.99963 37.4978C7.99963 36.1171 9.11892 34.9978 10.4996 34.9978C11.8803 34.9978 12.9996 36.1171 12.9996 37.4978C12.9996 38.8786 11.8803 39.9978 10.4996 39.9978C9.11892 39.9978 7.99963 38.8786 7.99963 37.4978ZM18.4996 43.9978C17.1189 43.9978 15.9996 45.1171 15.9996 46.4978C15.9996 47.8786 17.1189 48.9978 18.4996 48.9978H59.4996C60.8803 48.9978 61.9996 47.8786 61.9996 46.4978C61.9996 45.1171 60.8803 43.9978 59.4996 43.9978H18.4996ZM7.99963 46.4978C7.99963 45.1171 9.11892 43.9978 10.4996 43.9978C11.8803 43.9978 12.9996 45.1171 12.9996 46.4978C12.9996 47.8786 11.8803 48.9978 10.4996 48.9978C9.11892 48.9978 7.99963 47.8786 7.99963 46.4978Z" fill="white"/>
<path fill-rule="evenodd" clip-rule="evenodd" d="M79.999 22H3.99902V62H79.999V22ZM3.99902 18C1.78988 18 -0.000976562 19.7909 -0.000976562 22V62C-0.000976562 64.2091 1.78988 66 3.99902 66H79.999C82.2082 66 83.999 64.2091 83.999 62V22C83.999 19.7909 82.2082 18 79.999 18H3.99902Z" fill="black" fill-opacity="0.6"/>
<path d="M8 28.5C8 27.1193 9.11929 26 10.5 26H45.5C46.8807 26 48 27.1193 48 28.5C48 29.8807 46.8807 31 45.5 31H10.5C9.11929 31 8 29.8807 8 28.5Z" fill="black" fill-opacity="0.2"/>
<path d="M8 55.5C8 54.1193 9.11929 53 10.5 53H73.5C74.8807 53 76 54.1193 76 55.5C76 56.8807 74.8807 58 73.5 58H10.5C9.11929 58 8 56.8807 8 55.5Z" fill="white" fill-opacity="0.5"/>
<path d="M16 37.5C16 36.1193 17.1193 35 18.5 35H73.5C74.8807 35 76 36.1193 76 37.5C76 38.8807 74.8807 40 73.5 40H18.5C17.1193 40 16 38.8807 16 37.5Z" fill="white" fill-opacity="0.5"/>
<path d="M8 37.5C8 36.1193 9.11929 35 10.5 35C11.8807 35 13 36.1193 13 37.5C13 38.8807 11.8807 40 10.5 40C9.11929 40 8 38.8807 8 37.5Z" fill="black" fill-opacity="0.4"/>
<path d="M16 46.5C16 45.1193 17.1193 44 18.5 44H59.5C60.8807 44 62 45.1193 62 46.5C62 47.8807 60.8807 49 59.5 49H18.5C17.1193 49 16 47.8807 16 46.5Z" fill="white" fill-opacity="0.5"/>
<path d="M8 46.5C8 45.1193 9.11929 44 10.5 44C11.8807 44 13 45.1193 13 46.5C13 47.8807 11.8807 49 10.5 49C9.11929 49 8 47.8807 8 46.5Z" fill="black" fill-opacity="0.4"/>
<path d="M-0.000976562 4C-0.000976562 1.79086 1.78988 0 3.99902 0H79.999C82.2082 0 83.999 1.79086 83.999 4V10C83.999 12.2091 82.2082 14 79.999 14H3.99902C1.78988 14 -0.000976562 12.2091 -0.000976562 10V4Z" fill="black" fill-opacity="0.2"/>
<path d="M-0.000976562 73.8047C-0.000976562 71.5955 1.78988 69.8047 3.99902 69.8047H79.999C82.2082 69.8047 83.999 71.5955 83.999 73.8047V79.8047C83.999 82.0138 82.2082 83.8047 79.999 83.8047H3.99902C1.78988 83.8047 -0.000976562 82.0138 -0.000976562 79.8047V73.8047Z" fill="black" fill-opacity="0.2"/>
</svg>
