<svg width="84" height="84" viewBox="0 0 84 84" fill="none" xmlns="http://www.w3.org/2000/svg">
<path d="M37 68C37 70.2091 35.2091 72 33 72C30.7909 72 29 70.2091 29 68C29 65.7909 30.7909 64 33 64C35.2091 64 37 65.7909 37 68Z" fill="white" fill-opacity="0.6"/>
<path d="M45.4232 68C45.4232 69.3807 44.3039 70.5 42.9232 70.5C41.5425 70.5 40.4232 69.3807 40.4232 68C40.4232 66.6193 41.5425 65.5 42.9232 65.5C44.3039 65.5 45.4232 66.6193 45.4232 68Z" fill="white" fill-opacity="0.3"/>
<path d="M53.8464 68C53.8464 69.3807 52.7271 70.5 51.3464 70.5C49.9657 70.5 48.8464 69.3807 48.8464 68C48.8464 66.6193 49.9657 65.5 51.3464 65.5C52.7271 65.5 53.8464 66.6193 53.8464 68Z" fill="white" fill-opacity="0.3"/>
<path d="M0 34C0 31.7909 1.79086 30 4 30H18C20.2091 30 22 31.7909 22 34V50C22 52.2091 20.2091 54 18 54H4C1.79086 54 0 52.2091 0 50V34Z" fill="white"/>
<path d="M25.6732 34C25.6732 31.7909 27.464 30 29.6732 30H43.6732C45.8823 30 47.6732 31.7909 47.6732 34V50C47.6732 52.2091 45.8823 54 43.6732 54H29.6732C27.464 54 25.6732 52.2091 25.6732 50V34Z" fill="white"/>
<path d="M51.3464 34C51.3464 31.7909 53.1372 30 55.3464 30H69.3464C71.5555 30 73.3464 31.7909 73.3464 34V50C73.3464 52.2091 71.5555 54 69.3464 54H55.3464C53.1372 54 51.3464 52.2091 51.3464 50V34Z" fill="white"/>
<path d="M84 30H81.0196C78.8104 30 77.0196 31.7909 77.0196 34V50C77.0196 52.2091 78.8104 54 81.0196 54H84V30Z" fill="white"/>
<path d="M0 16C0 13.7909 1.79086 12 4 12H56C58.2091 12 60 13.7909 60 16C60 18.2091 58.2091 20 56 20H4C1.79086 20 0 18.2091 0 16Z" fill="black" fill-opacity="0.4"/>
</svg>
