<svg width="84" height="84" viewBox="0 0 84 84" fill="none" xmlns="http://www.w3.org/2000/svg">
<path fill-rule="evenodd" clip-rule="evenodd" d="M80 10.0078H4C3.44772 10.0078 3 10.4555 3 11.0078V73.0078C3 73.5601 3.44772 74.0078 4 74.0078H80C80.5523 74.0078 81 73.5601 81 73.0078V11.0078C81 10.4555 80.5523 10.0078 80 10.0078ZM20.0293 20.4531C20.0293 23.7668 17.343 26.4531 14.0293 26.4531C10.7156 26.4531 8.0293 23.7668 8.0293 20.4531C8.0293 17.1394 10.7156 14.4531 14.0293 14.4531C17.343 14.4531 20.0293 17.1394 20.0293 20.4531ZM8.0293 35.9297C8.0293 33.7205 9.82016 31.9297 12.0293 31.9297H62.0293C64.2384 31.9297 66.0293 33.7205 66.0293 35.9297C66.0293 38.1388 64.2384 39.9297 62.0293 39.9297H12.0293C9.82016 39.9297 8.0293 38.1388 8.0293 35.9297ZM18.4189 47.5078C18.4189 46.1271 19.5382 45.0078 20.9189 45.0078H58.1989C59.5797 45.0078 60.6989 46.1271 60.6989 47.5078C60.6989 48.8885 59.5797 50.0078 58.1989 50.0078H20.9189C19.5382 50.0078 18.4189 48.8885 18.4189 47.5078ZM12.4375 50.0078C13.8182 50.0078 14.9375 48.8885 14.9375 47.5078C14.9375 46.1271 13.8182 45.0078 12.4375 45.0078C11.0568 45.0078 9.9375 46.1271 9.9375 47.5078C9.9375 48.8885 11.0568 50.0078 12.4375 50.0078ZM18.4189 56.5078C18.4189 55.1271 19.5382 54.0078 20.9189 54.0078H48.1989C49.5797 54.0078 50.6989 55.1271 50.6989 56.5078C50.6989 57.8885 49.5797 59.0078 48.1989 59.0078H20.9189C19.5382 59.0078 18.4189 57.8885 18.4189 56.5078ZM12.4375 59.0078C13.8182 59.0078 14.9375 57.8885 14.9375 56.5078C14.9375 55.1271 13.8182 54.0078 12.4375 54.0078C11.0568 54.0078 9.9375 55.1271 9.9375 56.5078C9.9375 57.8885 11.0568 59.0078 12.4375 59.0078ZM18.4189 65.5078C18.4189 64.1271 19.5382 63.0078 20.9189 63.0078H58.1989C59.5797 63.0078 60.6989 64.1271 60.6989 65.5078C60.6989 66.8885 59.5797 68.0078 58.1989 68.0078H20.9189C19.5382 68.0078 18.4189 66.8885 18.4189 65.5078ZM12.4375 68.0078C13.8182 68.0078 14.9375 66.8885 14.9375 65.5078C14.9375 64.1271 13.8182 63.0078 12.4375 63.0078C11.0568 63.0078 9.9375 64.1271 9.9375 65.5078C9.9375 66.8885 11.0568 68.0078 12.4375 68.0078ZM26.4102 18.6406C25.0791 18.6406 24 19.7197 24 21.0507C24 22.3818 25.0791 23.4609 26.4102 23.4609H49.5898C50.9209 23.4609 52 22.3818 52 21.0507C52 19.7197 50.9209 18.6406 49.5898 18.6406H26.4102Z" fill="white" fill-opacity="0.7"/>
<path fill-rule="evenodd" clip-rule="evenodd" d="M80 10.0078H4C3.44772 10.0078 3 10.4555 3 11.0078V73.0078C3 73.5601 3.44772 74.0078 4 74.0078H80C80.5523 74.0078 81 73.5601 81 73.0078V11.0078C81 10.4555 80.5523 10.0078 80 10.0078ZM4 7.00778C1.79086 7.00778 0 8.79864 0 11.0078V73.0078C0 75.2169 1.79086 77.0078 4 77.0078H80C82.2091 77.0078 84 75.2169 84 73.0078V11.0078C84 8.79864 82.2091 7.00778 80 7.00778H4Z" fill="black" fill-opacity="0.4"/>
<path d="M8.0293 35.9297C8.0293 33.7205 9.82016 31.9297 12.0293 31.9297H62.0293C64.2384 31.9297 66.0293 33.7205 66.0293 35.9297C66.0293 38.1388 64.2384 39.9297 62.0293 39.9297H12.0293C9.82016 39.9297 8.0293 38.1388 8.0293 35.9297Z" fill="white" fill-opacity="0.3"/>
<path d="M18.4189 47.5031C18.4189 46.1224 19.5382 45.0031 20.9189 45.0031H58.1989C59.5797 45.0031 60.6989 46.1224 60.6989 47.5031C60.6989 48.8838 59.5797 50.0031 58.1989 50.0031H20.9189C19.5382 50.0031 18.4189 48.8838 18.4189 47.5031Z" fill="white" fill-opacity="0.4"/>
<path d="M14.9375 47.5031C14.9375 48.8838 13.8182 50.0031 12.4375 50.0031C11.0568 50.0031 9.9375 48.8838 9.9375 47.5031C9.9375 46.1224 11.0568 45.0031 12.4375 45.0031C13.8182 45.0031 14.9375 46.1224 14.9375 47.5031Z" fill="white" fill-opacity="0.2"/>
<path d="M18.4189 56.5031C18.4189 55.1224 19.5382 54.0031 20.9189 54.0031H48.1989C49.5797 54.0031 50.6989 55.1224 50.6989 56.5031C50.6989 57.8838 49.5797 59.0031 48.1989 59.0031H20.9189C19.5382 59.0031 18.4189 57.8838 18.4189 56.5031Z" fill="white" fill-opacity="0.4"/>
<path d="M14.9375 56.5031C14.9375 57.8838 13.8182 59.0031 12.4375 59.0031C11.0568 59.0031 9.9375 57.8838 9.9375 56.5031C9.9375 55.1224 11.0568 54.0031 12.4375 54.0031C13.8182 54.0031 14.9375 55.1224 14.9375 56.5031Z" fill="white" fill-opacity="0.2"/>
<path d="M18.4189 65.5031C18.4189 64.1224 19.5382 63.0031 20.9189 63.0031H58.1989C59.5797 63.0031 60.6989 64.1224 60.6989 65.5031C60.6989 66.8838 59.5797 68.0031 58.1989 68.0031H20.9189C19.5382 68.0031 18.4189 66.8838 18.4189 65.5031Z" fill="white" fill-opacity="0.4"/>
<path d="M14.9375 65.5031C14.9375 66.8838 13.8182 68.0031 12.4375 68.0031C11.0568 68.0031 9.9375 66.8838 9.9375 65.5031C9.9375 64.1224 11.0568 63.0031 12.4375 63.0031C13.8182 63.0031 14.9375 64.1224 14.9375 65.5031Z" fill="white" fill-opacity="0.2"/>
<path d="M20.0293 20.4547C20.0293 23.7684 17.343 26.4547 14.0293 26.4547C10.7156 26.4547 8.0293 23.7684 8.0293 20.4547C8.0293 17.1409 10.7156 14.4547 14.0293 14.4547C17.343 14.4547 20.0293 17.1409 20.0293 20.4547Z" fill="#315B73"/>
<path fill-rule="evenodd" clip-rule="evenodd" d="M14.0293 23.4547C15.6862 23.4547 17.0293 22.1115 17.0293 20.4547C17.0293 18.7978 15.6862 17.4547 14.0293 17.4547C12.3724 17.4547 11.0293 18.7978 11.0293 20.4547C11.0293 22.1115 12.3724 23.4547 14.0293 23.4547ZM14.0293 26.4547C17.343 26.4547 20.0293 23.7684 20.0293 20.4547C20.0293 17.1409 17.343 14.4547 14.0293 14.4547C10.7156 14.4547 8.0293 17.1409 8.0293 20.4547C8.0293 23.7684 10.7156 26.4547 14.0293 26.4547Z" fill="white"/>
</svg>
