<svg width="84" height="84" viewBox="0 0 84 84" fill="none" xmlns="http://www.w3.org/2000/svg">
<path d="M0 34C0 31.7909 1.79044 30 3.99907 30H17.9958C20.2044 30 21.9949 31.7909 21.9949 34V50C21.9949 52.2091 20.2044 54 17.9958 54H3.99907C1.79044 54 0 52.2091 0 50V34Z" fill="white"/>
<path d="M25.6672 34C25.6672 31.7909 27.4577 30 29.6663 30H43.663C45.8716 30 47.6621 31.7909 47.6621 34V50C47.6621 52.2091 45.8716 54 43.663 54H29.6663C27.4577 54 25.6672 52.2091 25.6672 50V34Z" fill="white"/>
<path d="M51.3344 34C51.3344 31.7909 53.1249 30 55.3335 30H69.3302C71.5389 30 73.3293 31.7909 73.3293 34V50C73.3293 52.2091 71.5389 54 69.3302 54H55.3335C53.1249 54 51.3344 52.2091 51.3344 50V34Z" fill="white"/>
<path d="M77.0016 34C77.0016 31.7909 78.7921 30 81.0007 30H84V54H81.0007C78.7921 54 77.0016 52.2091 77.0016 50V34Z" fill="white"/>
<path d="M36.9914 68C36.9914 70.2091 35.2009 72 32.9923 72C30.7837 72 28.9932 70.2091 28.9932 68C28.9932 65.7909 30.7837 64 32.9923 64C35.2009 64 36.9914 65.7909 36.9914 68Z" fill="white" fill-opacity="0.6"/>
<path d="M45.4126 68C45.4126 69.3807 44.2936 70.5 42.9132 70.5C41.5328 70.5 40.4138 69.3807 40.4138 68C40.4138 66.6193 41.5328 65.5 42.9132 65.5C44.2936 65.5 45.4126 66.6193 45.4126 68Z" fill="white" fill-opacity="0.3"/>
<path d="M53.8338 68C53.8338 69.3807 52.7148 70.5 51.3344 70.5C49.954 70.5 48.835 69.3807 48.835 68C48.835 66.6193 49.954 65.5 51.3344 65.5C52.7148 65.5 53.8338 66.6193 53.8338 68Z" fill="white" fill-opacity="0.3"/>
<path d="M0 16C0 13.7909 1.79044 12 3.99907 12H55.987C58.1956 12 59.986 13.7909 59.986 16C59.986 18.2091 58.1956 20 55.987 20H3.99907C1.79044 20 0 18.2091 0 16Z" fill="black" fill-opacity="0.4"/>
</svg>
