<svg width="84" height="84" viewBox="0 0 84 84" fill="none" xmlns="http://www.w3.org/2000/svg">
<path d="M14.917 51.0006C14.917 53.762 12.697 56.0006 9.9585 56.0006C7.21999 56.0006 5 53.762 5 51.0006C5 48.2392 7.21999 46.0006 9.9585 46.0006C12.697 46.0006 14.917 48.2392 14.917 51.0006Z" fill="white"/>
<path d="M11 34.9598C13.2384 34.4773 14.917 32.4715 14.917 30.0703C14.917 27.3089 12.697 25.0703 9.9585 25.0703C7.21999 25.0703 5 27.3089 5 30.0703C5 32.5011 6.72018 34.5267 9 34.977V44.0709C9.3266 44.0242 9.66048 44 10 44C10.3395 44 10.6734 44.0242 11 44.0709V34.9598Z" fill="white" fill-opacity="0.6"/>
<path d="M11 57.9291C10.6734 57.9758 10.3395 58 10 58C9.66048 58 9.3266 57.9758 9 57.9291V67.7418C6.72018 68.192 5 70.2177 5 72.6484C5 75.4099 7.21999 77.6484 9.9585 77.6484C12.697 77.6484 14.917 75.4099 14.917 72.6484C14.917 70.2473 13.2384 68.2414 11 67.7589V57.9291Z" fill="white" fill-opacity="0.6"/>
<path d="M5 10C5 7.79086 6.79086 6 9 6H65C67.2091 6 69 7.79086 69 10C69 12.2091 67.2091 14 65 14H9C6.79086 14 5 12.2091 5 10Z" fill="black" fill-opacity="0.4"/>
<path d="M19 30.5C19 29.1193 20.1193 28 21.5 28H77.5C78.8807 28 80 29.1193 80 30.5C80 31.8807 78.8807 33 77.5 33H21.5C20.1193 33 19 31.8807 19 30.5Z" fill="black" fill-opacity="0.3"/>
<path d="M19 51C19 49.6193 20.1193 48.5 21.5 48.5H64.5C65.8807 48.5 67 49.6193 67 51C67 52.3807 65.8807 53.5 64.5 53.5H21.5C20.1193 53.5 19 52.3807 19 51Z" fill="black" fill-opacity="0.3"/>
<path d="M19 72.6484C19 71.2677 20.1193 70.1484 21.5 70.1484H72.5C73.8807 70.1484 75 71.2677 75 72.6484C75 74.0291 73.8807 75.1484 72.5 75.1484H21.5C20.1193 75.1484 19 74.0291 19 72.6484Z" fill="black" fill-opacity="0.3"/>
</svg>
