<svg width="84" height="84" viewBox="0 0 84 84" fill="none" xmlns="http://www.w3.org/2000/svg">
<path d="M17 41.0059C17 44.3196 14.3137 47.0059 11 47.0059C7.68629 47.0059 5 44.3196 5 41.0059C5 37.6922 7.68629 35.0059 11 35.0059C14.3137 35.0059 17 37.6922 17 41.0059Z" fill="white"/>
<path d="M10.9999 15.9469C10.4477 15.9469 9.99994 16.3946 9.99994 16.9469V33.0713C10.3275 33.0304 10.6613 33.0094 10.9999 33.0094C11.3386 33.0094 11.6723 33.0304 11.9999 33.0713V16.9469C11.9999 16.3946 11.5522 15.9469 10.9999 15.9469Z" fill="white" fill-opacity="0.6"/>
<path d="M11.9999 48.9475C11.6723 48.9883 11.3386 49.0094 10.9999 49.0094C10.6613 49.0094 10.3275 48.9883 9.99994 48.9475V67.065C9.99994 67.6173 10.4477 68.065 10.9999 68.065C11.5522 68.065 11.9999 67.6173 11.9999 67.065V48.9475Z" fill="white" fill-opacity="0.6"/>
<path d="M22 41.0342C22 39.3622 23.3554 38.0069 25.0273 38.0069H76.9727C78.6446 38.0069 80 39.3622 80 41.0342C80 42.7061 78.6446 44.0615 76.9727 44.0615H25.0273C23.3554 44.0615 22 42.7061 22 41.0342Z" fill="black" fill-opacity="0.3"/>
<path d="M22 54.0069C22 52.9023 22.8954 52.0069 24 52.0069H52C53.1046 52.0069 54 52.9023 54 54.0069C54 55.1114 53.1046 56.0069 52 56.0069H24C22.8954 56.0069 22 55.1114 22 54.0069Z" fill="black" fill-opacity="0.3"/>
</svg>
