<svg width="84" height="84" viewBox="0 0 84 84" fill="none" xmlns="http://www.w3.org/2000/svg">
<path d="M1.5 4.99773C1.5 2.78859 3.29086 0.99773 5.5 0.99773H77.5C79.7091 0.99773 81.5 2.78859 81.5 4.99773V21.9977H1.5V4.99773Z" fill="black" fill-opacity="0.5"/>
<path fill-rule="evenodd" clip-rule="evenodd" d="M0 4C0 1.79086 1.79086 0 4 0H80C82.2091 0 84 1.79086 84 4V80C84 82.2091 82.2091 84 80 84H4C1.79086 84 0 82.2091 0 80V4ZM61.5 4H43.5V21H61.5V4ZM61.5 23H43.5V41H61.5V23ZM41.5 21V4H23.5V21H41.5ZM23.5 23H41.5V41H23.5V23ZM21.5 21V4H4V21L21.5 21ZM4 23L21.5 23V41H4V23ZM80 23V41H63.5V23H80ZM80 21H63.5V4H80V21ZM61.5 43H43.5V61H61.5V43ZM41.5 43V61H23.5V43H41.5ZM41.5 63H23.5V80H41.5V63ZM21.5 43V61H4V43H21.5ZM21.5 63H4V80H21.5V63ZM80 43V61H63.5V43H80ZM80 63H63.5V80H80V63ZM61.5 80V63H43.5V80H61.5Z" fill="white"/>
</svg>
