<svg width="84" height="84" viewBox="0 0 84 84" fill="none" xmlns="http://www.w3.org/2000/svg">
<path d="M14 41.0059C14 39.349 15.3431 38.0059 17 38.0059H59C60.6569 38.0059 62 39.349 62 41.0059C62 42.6627 60.6569 44.0059 59 44.0059H17C15.3431 44.0059 14 42.6627 14 41.0059Z" fill="black" fill-opacity="0.2"/>
<path fill-rule="evenodd" clip-rule="evenodd" d="M8 34.0103C8 31.8011 9.79086 30.0103 12 30.0103H64C66.2091 30.0103 68 31.8011 68 34.0103V49.0103H84V53.0103H8V34.0103ZM14 41.0103C14 39.3534 15.3431 38.0103 17 38.0103H59C60.6569 38.0103 62 39.3534 62 41.0103C62 42.6671 60.6569 44.0103 59 44.0103H17C15.3431 44.0103 14 42.6671 14 41.0103Z" fill="white"/>
</svg>
