<svg width="84" height="84" viewBox="0 0 84 84" fill="none" xmlns="http://www.w3.org/2000/svg">
<path fill-rule="evenodd" clip-rule="evenodd" d="M0 36.9996C0 23.745 10.745 13 23.9996 13H60.0002C73.2549 13 84 23.7451 84 36.9998C84 50.2526 73.2596 60.997 60.0068 60.9986C53.8424 60.9994 47.4249 61 42 61L24 71L28 61L23.995 60.9992C10.7422 60.9967 0 50.2524 0 36.9996ZM18.0489 21.9271C18.3483 21.0057 19.6517 21.0057 19.9511 21.9271L21.4697 26.6008C21.6035 27.0128 21.9875 27.2918 22.4207 27.2918H27.335C28.3037 27.2918 28.7065 28.5314 27.9228 29.1008L23.947 31.9894C23.5966 32.244 23.4499 32.6954 23.5838 33.1074L25.1024 37.7812C25.4017 38.7025 24.3472 39.4686 23.5635 38.8992L19.5878 36.0106C19.2373 35.756 18.7627 35.756 18.4122 36.0106L14.4365 38.8992C13.6528 39.4686 12.5983 38.7025 12.8976 37.7812L14.4162 33.1074C14.5501 32.6954 14.4034 32.244 14.053 31.9894L10.0772 29.1008C9.29351 28.5314 9.69628 27.2918 10.665 27.2918H15.5793C16.0125 27.2918 16.3965 27.0128 16.5303 26.6008L18.0489 21.9271ZM32 27.5C32 26.1193 33.1193 25 34.5 25H69.5C70.8807 25 72 26.1193 72 27.5C72 28.8807 70.8807 30 69.5 30H34.5C33.1193 30 32 28.8807 32 27.5ZM32 37.5C32 36.1193 33.1193 35 34.5 35H69.5C70.8807 35 72 36.1193 72 37.5C72 38.8807 70.8807 40 69.5 40H34.5C33.1193 40 32 38.8807 32 37.5ZM32 47.5C32 46.1193 33.1193 45 34.5 45H57.5C58.8807 45 60 46.1193 60 47.5C60 48.8807 58.8807 50 57.5 50H34.5C33.1193 50 32 48.8807 32 47.5Z" fill="white"/>
<path d="M18.0489 21.9271C18.3483 21.0057 19.6517 21.0057 19.9511 21.9271L21.4697 26.6008C21.6035 27.0128 21.9875 27.2918 22.4207 27.2918H27.335C28.3037 27.2918 28.7065 28.5314 27.9228 29.1008L23.947 31.9894C23.5966 32.244 23.4499 32.6954 23.5838 33.1074L25.1024 37.7812C25.4017 38.7025 24.3472 39.4686 23.5635 38.8992L19.5878 36.0106C19.2373 35.756 18.7627 35.756 18.4122 36.0106L14.4365 38.8992C13.6528 39.4686 12.5983 38.7025 12.8976 37.7812L14.4162 33.1074C14.5501 32.6954 14.4034 32.244 14.053 31.9894L10.0772 29.1008C9.29351 28.5314 9.69628 27.2918 10.665 27.2918H15.5793C16.0125 27.2918 16.3965 27.0128 16.5303 26.6008L18.0489 21.9271Z" fill="black" fill-opacity="0.2"/>
<path d="M32.0001 27.5014C32.0001 26.1207 33.1194 25.0014 34.5001 25.0014H69.5001C70.8808 25.0014 72.0001 26.1207 72.0001 27.5014C72.0001 28.8821 70.8808 30.0014 69.5001 30.0014H34.5001C33.1194 30.0014 32.0001 28.8821 32.0001 27.5014Z" fill="white" fill-opacity="0.7"/>
<path d="M32.0001 37.5014C32.0001 36.1207 33.1194 35.0014 34.5001 35.0014H69.5001C70.8808 35.0014 72.0001 36.1207 72.0001 37.5014C72.0001 38.8821 70.8808 40.0014 69.5001 40.0014H34.5001C33.1194 40.0014 32.0001 38.8821 32.0001 37.5014Z" fill="white" fill-opacity="0.7"/>
<path d="M34.5001 45.0014C33.1194 45.0014 32.0001 46.1207 32.0001 47.5014C32.0001 48.8821 33.1194 50.0014 34.5001 50.0014H57.5001C58.8808 50.0014 60.0001 48.8821 60.0001 47.5014C60.0001 46.1207 58.8808 45.0014 57.5001 45.0014H34.5001Z" fill="white" fill-opacity="0.7"/>
</svg>
