<svg width="84" height="84" viewBox="0 0 84 84" fill="none" xmlns="http://www.w3.org/2000/svg">
<path d="M4 45.9766C4 44.872 4.89543 43.9766 6 43.9766H78C79.1046 43.9766 80 44.872 80 45.9766C80 47.0811 79.1046 47.9766 78 47.9766H6C4.89543 47.9766 4 47.0811 4 45.9766Z" fill="black" fill-opacity="0.3"/>
<path d="M4 53.9766C4 52.872 4.89543 51.9766 6 51.9766H78C79.1046 51.9766 80 52.872 80 53.9766C80 55.0811 79.1046 55.9766 78 55.9766H6C4.89543 55.9766 4 55.0811 4 53.9766Z" fill="black" fill-opacity="0.3"/>
<path d="M4 61.9766C4 60.872 4.89543 59.9766 6 59.9766H40C41.1046 59.9766 42 60.872 42 61.9766C42 63.0811 41.1046 63.9766 40 63.9766H6C4.89543 63.9766 4 63.0811 4 61.9766Z" fill="black" fill-opacity="0.3"/>
<path d="M4 26.9851C4 25.8805 4.89543 24.9851 6 24.9851H22C23.1046 24.9851 24 25.8805 24 26.9851C24 28.0897 23.1046 28.9851 22 28.9851H6C4.89543 28.9851 4 28.0897 4 26.9851Z" fill="black" fill-opacity="0.2"/>
<path d="M32 26.946C32 25.8415 32.8954 24.946 34 24.946H50C51.1046 24.946 52 25.8415 52 26.946C52 28.0506 51.1046 28.946 50 28.946H34C32.8954 28.946 32 28.0506 32 26.946Z" fill="white" fill-opacity="0.6"/>
<path d="M60 26.9851C60 25.8805 60.8954 24.9851 62 24.9851H78C79.1046 24.9851 80 25.8805 80 26.9851C80 28.0897 79.1046 28.9851 78 28.9851H62C60.8954 28.9851 60 28.0897 60 26.9851Z" fill="white" fill-opacity="0.6"/>
<path fill-rule="evenodd" clip-rule="evenodd" d="M0 23.9844C0 21.7752 1.79086 19.9844 4 19.9844H24C26.2091 19.9844 28 21.7752 28 23.9844V31.9453H84V33.9432H28V33.9453H0V23.9844ZM4 26.9851C4 25.8805 4.89543 24.9851 6 24.9851H22C23.1046 24.9851 24 25.8805 24 26.9851C24 28.0897 23.1046 28.9851 22 28.9851H6C4.89543 28.9851 4 28.0897 4 26.9851Z" fill="white"/>
</svg>
