<svg width="84" height="84" viewBox="0 0 84 84" fill="none" xmlns="http://www.w3.org/2000/svg">
<path d="M3.59225 16.2898C3.94728 14.6904 5.25378 13.5069 6.87877 13.298C13.3608 12.4646 30.2244 10.4531 42 10.4531C53.7756 10.4531 70.6392 12.4646 77.1212 13.298C78.7462 13.5069 80.0527 14.6904 80.4077 16.2898C81.5715 21.5323 84 33.4925 84 42.0031C84 50.5138 81.5715 62.4739 80.4077 67.7164C80.0527 69.3159 78.7462 70.4993 77.1212 70.7083C70.6392 71.5417 53.7756 73.5531 42 73.5531C30.2244 73.5531 13.3608 71.5417 6.87877 70.7083C5.25378 70.4993 3.94728 69.3158 3.59225 67.7164C2.42854 62.4739 0 50.5138 0 42.0031C0 33.4925 2.42854 21.5323 3.59225 16.2898Z" fill="black" fill-opacity="0.3"/>
<path d="M57.4941 42.0024L34.2522 55.4212V28.5837L57.4941 42.0024Z" fill="white"/>
</svg>
