<svg width="85" height="85" viewBox="0 0 85 85" fill="none" xmlns="http://www.w3.org/2000/svg">
<path fill-rule="evenodd" clip-rule="evenodd" d="M80.7039 4.14844H4.70386V38.1484H80.7039V4.14844ZM4.70386 0.148438C2.49472 0.148438 0.703857 1.9393 0.703857 4.14844V42.1484H84.7039V4.14844C84.7039 1.9393 82.913 0.148438 80.7039 0.148438H4.70386Z" fill="white" fill-opacity="0.6"/>
<path fill-rule="evenodd" clip-rule="evenodd" d="M84.7039 42.1484H0.703857V80.1484C0.703857 82.3576 2.49472 84.1484 4.70386 84.1484H80.7039C82.913 84.1484 84.7039 82.3576 84.7039 80.1484V42.1484ZM13.2888 46.0703C11.1077 46.0703 9.3396 47.8384 9.3396 50.0195C9.3396 52.2006 11.1077 53.9688 13.2888 53.9688H72.1189C74.3 53.9688 76.0681 52.2006 76.0681 50.0195C76.0681 47.8384 74.3 46.0703 72.1189 46.0703H13.2888ZM16.5623 61.457C16.5623 60.1259 17.6413 59.0469 18.9724 59.0469H66.4353C67.7664 59.0469 68.8455 60.1259 68.8455 61.457C68.8455 62.7881 67.7664 63.8672 66.4353 63.8672H18.9724C17.6413 63.8672 16.5623 62.7881 16.5623 61.457ZM26.718 68.9453C24.5963 68.9453 22.8763 70.6653 22.8763 72.7871C22.8763 74.9089 24.5963 76.6289 26.7181 76.6289H58.6897C60.8114 76.6289 62.5315 74.9089 62.5315 72.7871C62.5315 70.6653 60.8114 68.9453 58.6897 68.9453H26.718Z" fill="white" fill-opacity="0.6"/>
<path d="M9.3396 50.0195C9.3396 47.8384 11.1077 46.0703 13.2888 46.0703H72.1189C74.3 46.0703 76.0681 47.8384 76.0681 50.0195C76.0681 52.2006 74.3 53.9688 72.1189 53.9688H13.2888C11.1077 53.9688 9.3396 52.2006 9.3396 50.0195Z" fill="black" fill-opacity="0.3"/>
<path d="M16.5623 61.457C16.5623 60.1259 17.6413 59.0469 18.9724 59.0469H66.4353C67.7664 59.0469 68.8455 60.1259 68.8455 61.457C68.8455 62.7881 67.7664 63.8672 66.4353 63.8672H18.9724C17.6413 63.8672 16.5623 62.7881 16.5623 61.457Z" fill="black" fill-opacity="0.3"/>
<path d="M22.8763 72.7871C22.8763 70.6653 24.5963 68.9453 26.718 68.9453H58.6897C60.8114 68.9453 62.5315 70.6653 62.5315 72.7871C62.5315 74.9089 60.8114 76.6289 58.6897 76.6289H26.7181C24.5963 76.6289 22.8763 74.9089 22.8763 72.7871Z" fill="black" fill-opacity="0.3"/>
</svg>
