<svg width="84" height="84" viewBox="0 0 84 84" fill="none" xmlns="http://www.w3.org/2000/svg">
<path d="M0 3.99219C0 1.78305 1.79086 -0.0078125 4 -0.0078125H62C64.2091 -0.0078125 66 1.78305 66 3.99219C66 6.20133 64.2091 7.99219 62 7.99219H4C1.79086 7.99219 0 6.20133 0 3.99219Z" fill="white" fill-opacity="0.3"/>
<path d="M15.8594 78.0977C15.8594 76.7666 16.9384 75.6875 18.2695 75.6875H65.7324C67.0635 75.6875 68.1426 76.7666 68.1426 78.0977C68.1426 79.4287 67.0635 80.5078 65.7324 80.5078H18.2695C16.9384 80.5078 15.8594 79.4287 15.8594 78.0977Z" fill="white" fill-opacity="0.5"/>
<path d="M0.000976562 76.2188C0.000976562 74.0096 1.79184 72.2188 4.00098 72.2188H7.63166C9.8408 72.2188 11.6317 74.0096 11.6317 76.2188V79.983C11.6317 82.1921 9.8408 83.983 7.63166 83.983H4.00098C1.79184 83.983 0.000976562 82.1921 0.000976562 79.983V76.2188Z" fill="white"/>
<path d="M15.8594 46.9883C15.8594 45.6572 16.9384 44.5781 18.2695 44.5781H65.7324C67.0635 44.5781 68.1426 45.6572 68.1426 46.9883C68.1426 48.3194 67.0635 49.3984 65.7324 49.3984H18.2695C16.9384 49.3984 15.8594 48.3194 15.8594 46.9883Z" fill="white" fill-opacity="0.5"/>
<path d="M0.000976562 45.1094C0.000976562 42.9002 1.79184 41.1094 4.00098 41.1094H7.63166C9.8408 41.1094 11.6317 42.9002 11.6317 45.1094V48.8736C11.6317 51.0827 9.8408 52.8736 7.63166 52.8736H4.00098C1.79184 52.8736 0.000976562 51.0827 0.000976562 48.8736V45.1094Z" fill="white"/>
<path d="M15.8594 62.5448C15.8594 61.2137 16.9384 60.1347 18.2695 60.1347H65.7324C67.0635 60.1347 68.1426 61.2137 68.1426 62.5448C68.1426 63.8759 67.0635 64.955 65.7324 64.955H18.2695C16.9384 64.955 15.8594 63.8759 15.8594 62.5448Z" fill="white" fill-opacity="0.5"/>
<path fill-rule="evenodd" clip-rule="evenodd" d="M4.00098 56.6678C1.79184 56.6678 0.000976562 58.4587 0.000976562 60.6678V64.432C0.000976562 66.6412 1.79184 68.432 4.00098 68.432H7.63166C9.8408 68.432 11.6317 66.6412 11.6317 64.432V60.6678C11.6317 58.4586 9.8408 56.6678 7.63166 56.6678H4.00098ZM8.12315 59.0897L9.67479 60.2617L5.02807 66.5202L3.47643 65.3482L3.50609 65.3074L1.95508 64.1367L3.11676 62.5714L4.6684 63.7422L8.12315 59.0897Z" fill="white"/>
<path d="M0 15.4901C0 14.1094 1.11929 12.9901 2.5 12.9901H81.5C82.8807 12.9901 84 14.1094 84 15.4901C84 16.8709 82.8807 17.9901 81.5 17.9901H2.5C1.11929 17.9901 0 16.8709 0 15.4901Z" fill="white" fill-opacity="0.7"/>
<path d="M0 25.4901C0 24.1094 1.11929 22.9901 2.5 22.9901H53.5C54.8807 22.9901 56 24.1094 56 25.4901C56 26.8709 54.8807 27.9901 53.5 27.9901H2.5C1.11929 27.9901 0 26.8709 0 25.4901Z" fill="white" fill-opacity="0.7"/>
</svg>
