<svg width="84" height="84" viewBox="0 0 84 84" fill="none" xmlns="http://www.w3.org/2000/svg">
<path d="M-0.000976562 12.8125C-0.000976562 10.6034 1.78988 8.8125 3.99902 8.8125H79.9978C82.2069 8.8125 83.9978 10.6034 83.9978 12.8125V16.2366C83.9978 18.4458 82.2069 20.2366 79.9978 20.2366H3.99902C1.78989 20.2366 -0.000976562 18.4458 -0.000976562 16.2366V12.8125Z" fill="white"/>
<path d="M-0.000976562 3.16361C-0.000976562 1.4164 1.41542 0 3.16263 0H80.8342C82.5814 0 83.9978 1.4164 83.9978 3.16361C83.9978 4.91082 82.5814 6.32722 80.8342 6.32722H3.16264C1.41542 6.32722 -0.000976562 4.91082 -0.000976562 3.16361Z" fill="white" fill-opacity="0.6"/>
<path d="M39.0727 26.7718L35.6723 24.168L32.2718 26.7718H14.2145C12.7871 26.7718 11.6299 27.905 11.6299 29.3027V81.4676C11.6299 82.8653 12.7871 83.9985 14.2145 83.9985H57.1301C58.5574 83.9985 59.7146 82.8653 59.7146 81.4676V29.3027C59.7146 27.905 58.5574 26.7718 57.1301 26.7718H39.0727Z" fill="black" fill-opacity="0.3"/>
</svg>
