<svg width="84" height="84" viewBox="0 0 84 84" fill="none" xmlns="http://www.w3.org/2000/svg">
<path d="M0 38.0097C0 35.8006 1.79086 34.0097 4 34.0097H44C46.2091 34.0097 48 35.8006 48 38.0097V42.0097C48 44.2189 46.2091 46.0097 44 46.0097H4C1.79086 46.0097 0 44.2189 0 42.0097V38.0097Z" fill="white"/>
<path d="M0 22.0097C0 19.8006 1.79086 18.0097 4 18.0097H32C34.2091 18.0097 36 19.8006 36 22.0097C36 24.2189 34.2091 26.0097 32 26.0097H4C1.79086 26.0097 0 24.2189 0 22.0097Z" fill="white" fill-opacity="0.3"/>
<path d="M0 60.0097C0 56.696 2.68629 54.0097 6 54.0097H58C61.3137 54.0097 64 56.696 64 60.0097C64 63.3234 61.3137 66.0097 58 66.0097H6C2.68629 66.0097 0 63.3234 0 60.0097Z" fill="black" fill-opacity="0.6"/>
</svg>
