<svg clip-rule="evenodd" fill-rule="evenodd" viewBox="0 0 84 84" xmlns="http://www.w3.org/2000/svg"><path d="m0 36.732c0-1.105.895-2 2-2h60c1.105 0 2 .895 2 2v8.067c0 1.104-.895 2-2 2h-60c-1.105 0-2-.896-2-2z" fill-opacity=".2" fill-rule="nonzero"/><path d="m0 59.072c0-1.145.895-2.072 2-2.072h60c1.105 0 2 .927 2 2.072v22.856c0 1.145-.895 2.072-2 2.072h-60c-1.105 0-2-.927-2-2.072z" fill-opacity=".2" fill-rule="nonzero"/><g fill="#fff"><path d="m4.999 37.672c-1.105 0-2 .896-2 2v1.882c0 1.105.895 2 2 2h38c1.105 0 2-.895 2-2v-1.882c0-1.104-.895-2-2-2zm33.702 2.05 1.535 2.024 1.534-2.024z" fill-opacity=".5"/><path d="m10.914 78.224c0-.664.538-1.203 1.202-1.203h23.682c.665 0 1.203.539 1.203 1.203s-.538 1.202-1.203 1.202h-23.682c-.664 0-1.202-.538-1.202-1.202z" fill-opacity=".5" fill-rule="nonzero"/><path d="m3.001 77.286c0-1.102.894-1.996 1.996-1.996h1.811c1.103 0 1.996.894 1.996 1.996v1.878c0 1.103-.893 1.996-1.996 1.996h-1.811c-1.102 0-1.996-.893-1.996-1.996z" fill-rule="nonzero"/><path d="m10.914 62.701c0-.664.538-1.202 1.202-1.202h33.682c.665 0 1.203.538 1.203 1.202 0 .665-.538 1.203-1.203 1.203h-33.682c-.664 0-1.202-.538-1.202-1.203z" fill-opacity=".5" fill-rule="nonzero"/><path d="m3.001 61.764c0-1.102.894-1.996 1.996-1.996h1.811c1.103 0 1.996.894 1.996 1.996v1.878c0 1.102-.893 1.996-1.996 1.996h-1.811c-1.102 0-1.996-.894-1.996-1.996z" fill-rule="nonzero"/><path d="m10.914 70.463c0-.664.538-1.202 1.202-1.202h23.682c.665 0 1.203.538 1.203 1.202 0 .665-.538 1.203-1.203 1.203h-23.682c-.664 0-1.202-.538-1.202-1.203z" fill-opacity=".5" fill-rule="nonzero"/><path d="m4.997 67.531c-1.102 0-1.996.894-1.996 1.996v1.878c0 1.102.894 1.996 1.996 1.996h1.811c1.103 0 1.996-.894 1.996-1.996v-1.878c0-1.102-.893-1.996-1.996-1.996zm2.057 1.208.774.585-2.319 3.123-.774-.585.015-.02-.774-.584.58-.781.774.584z"/></g><path d="m0 2c0-1.105.895-2 2-2h60c1.105 0 2 .895 2 2v1.833c0 1.105-.895 2-2 2h-60c-1.105 0-2-.895-2-2z" fill-opacity=".4" fill-rule="nonzero"/><path d="m0 9.232c0-1.105.895-2 2-2h60c1.105 0 2 .895 2 2v13.067c0 1.104-.895 2-2 2h-60c-1.105 0-2-.896-2-2z" fill-opacity=".2" fill-rule="nonzero"/><path d="m0 29.5c0-1.105.895-2 2-2h60c1.105 0 2 .895 2 2v1.833c0 1.105-.895 2-2 2h-60c-1.105 0-2-.895-2-2z" fill-opacity=".4" fill-rule="nonzero"/><path d="m0 51.768c0-1.105.895-2 2-2h60c1.105 0 2 .895 2 2v1.833c0 1.105-.895 2-2 2h-60c-1.105 0-2-.895-2-2z" fill-opacity=".4" fill-rule="nonzero"/><path d="m6.783 20.13c0 1.057-.848 1.903-1.88 1.903-1.033 0-1.881-.846-1.881-1.903 0-1.056.848-1.902 1.881-1.902 1.032 0 1.88.846 1.88 1.902z" fill="none" stroke="#fff" stroke-opacity=".7" stroke-width="1.5"/><ellipse cx="4.903" cy="12.367" fill="#fff" fill-opacity=".5" rx="2.631" ry="2.652"/><path d="m9.914 12.366c0-.665.538-1.203 1.202-1.203h33.682c.665 0 1.203.538 1.203 1.203 0 .664-.538 1.202-1.203 1.202h-33.682c-.664 0-1.202-.538-1.202-1.202z" fill="#fff" fill-opacity=".6" fill-rule="nonzero"/><path d="m9.914 20.128c0-.664.538-1.203 1.202-1.203h23.682c.665 0 1.203.539 1.203 1.203s-.538 1.202-1.203 1.202h-23.682c-.664 0-1.202-.538-1.202-1.202z" fill="#fff" fill-opacity=".6" fill-rule="nonzero"/></svg>