<svg width="84" height="84" viewBox="0 0 84 84" fill="none" xmlns="http://www.w3.org/2000/svg">
<path fill-rule="evenodd" clip-rule="evenodd" d="M83.9955 74H-0.000976562V80C-0.000976562 82.2091 1.78988 84 3.99902 84H79.9955C82.2047 84 83.9955 82.2091 83.9955 80V74ZM9.99902 78C8.89445 78 7.99902 78.8954 7.99902 80C7.99902 81.1046 8.89445 82 9.99902 82C11.1036 82 11.999 81.1046 11.999 80C11.999 78.8954 11.1036 78 9.99902 78ZM65 79C64.4477 79 64 79.4477 64 80C64 80.5523 64.4477 81 65 81H75C75.5523 81 76 80.5523 76 80C76 79.4477 75.5523 79 75 79H65Z" fill="black" fill-opacity="0.6"/>
<path fill-rule="evenodd" clip-rule="evenodd" d="M3.99902 48.8594C1.78988 48.8594 -0.000976562 50.6502 -0.000976562 52.8594V74H83.9955V52.8594C83.9955 50.6502 82.2047 48.8594 79.9955 48.8594H3.99902ZM8.49707 56C7.94479 56 7.49707 56.4477 7.49707 57C7.49707 57.5523 7.94479 58 8.49707 58H18.4971C19.0494 58 19.4971 57.5523 19.4971 57C19.4971 56.4477 19.0494 56 18.4971 56H8.49707ZM7.49707 63C7.49707 62.4477 7.94479 62 8.49707 62H18.4971C19.0494 62 19.4971 62.4477 19.4971 63C19.4971 63.5523 19.0494 64 18.4971 64H8.49707C7.94479 64 7.49707 63.5523 7.49707 63ZM7.49707 69C7.49707 68.4477 7.94479 68 8.49707 68H18.4971C19.0494 68 19.4971 68.4477 19.4971 69C19.4971 69.5523 19.0494 70 18.4971 70H8.49707C7.94479 70 7.49707 69.5523 7.49707 69ZM35.9971 69C35.9971 68.4477 36.4448 68 36.9971 68H46.9971C47.5494 68 47.9971 68.4477 47.9971 69C47.9971 69.5523 47.5494 70 46.9971 70H36.9971C36.4448 70 35.9971 69.5523 35.9971 69ZM65 68C64.4477 68 64 68.4477 64 69C64 69.5523 64.4477 70 65 70H75C75.5523 70 76 69.5523 76 69C76 68.4477 75.5523 68 75 68H65ZM36.9971 62C36.4448 62 35.9971 62.4477 35.9971 63C35.9971 63.5523 36.4448 64 36.9971 64H46.9971C47.5494 64 47.9971 63.5523 47.9971 63C47.9971 62.4477 47.5494 62 46.9971 62H36.9971ZM64 63C64 62.4477 64.4477 62 65 62H75C75.5523 62 76 62.4477 76 63C76 63.5523 75.5523 64 75 64H65C64.4477 64 64 63.5523 64 63ZM35.9971 57C35.9971 56.4477 36.4448 56 36.9971 56H46.9971C47.5494 56 47.9971 56.4477 47.9971 57C47.9971 57.5523 47.5494 58 46.9971 58H36.9971C36.4448 58 35.9971 57.5523 35.9971 57ZM65 56C64.4477 56 64 56.4477 64 57C64 57.5523 64.4477 58 65 58H75C75.5523 58 76 57.5523 76 57C76 56.4477 75.5523 56 75 56H65Z" fill="black" fill-opacity="0.4"/>
<path d="M7.49707 69C7.49707 68.4477 7.94479 68 8.49707 68H18.4971C19.0494 68 19.4971 68.4477 19.4971 69C19.4971 69.5523 19.0494 70 18.4971 70H8.49707C7.94479 70 7.49707 69.5523 7.49707 69Z" fill="white" fill-opacity="0.6"/>
<path d="M35.9971 69C35.9971 68.4477 36.4448 68 36.9971 68H46.9971C47.5494 68 47.9971 68.4477 47.9971 69C47.9971 69.5523 47.5494 70 46.9971 70H36.9971C36.4448 70 35.9971 69.5523 35.9971 69Z" fill="white" fill-opacity="0.2"/>
<path d="M64 69C64 68.4477 64.4477 68 65 68H75C75.5523 68 76 68.4477 76 69C76 69.5523 75.5523 70 75 70H65C64.4477 70 64 69.5523 64 69Z" fill="white" fill-opacity="0.5"/>
<path d="M7.49707 63C7.49707 62.4477 7.94479 62 8.49707 62H18.4971C19.0494 62 19.4971 62.4477 19.4971 63C19.4971 63.5523 19.0494 64 18.4971 64H8.49707C7.94479 64 7.49707 63.5523 7.49707 63Z" fill="white" fill-opacity="0.3"/>
<path d="M35.9971 63C35.9971 62.4477 36.4448 62 36.9971 62H46.9971C47.5494 62 47.9971 62.4477 47.9971 63C47.9971 63.5523 47.5494 64 46.9971 64H36.9971C36.4448 64 35.9971 63.5523 35.9971 63Z" fill="white" fill-opacity="0.5"/>
<path d="M64 63C64 62.4477 64.4477 62 65 62H75C75.5523 62 76 62.4477 76 63C76 63.5523 75.5523 64 75 64H65C64.4477 64 64 63.5523 64 63Z" fill="white" fill-opacity="0.39"/>
<path d="M7.49707 57C7.49707 56.4477 7.94479 56 8.49707 56H18.4971C19.0494 56 19.4971 56.4477 19.4971 57C19.4971 57.5523 19.0494 58 18.4971 58H8.49707C7.94479 58 7.49707 57.5523 7.49707 57Z" fill="white" fill-opacity="0.6"/>
<path d="M35.9971 57C35.9971 56.4477 36.4448 56 36.9971 56H46.9971C47.5494 56 47.9971 56.4477 47.9971 57C47.9971 57.5523 47.5494 58 46.9971 58H36.9971C36.4448 58 35.9971 57.5523 35.9971 57Z" fill="white" fill-opacity="0.2"/>
<path d="M64 57C64 56.4477 64.4477 56 65 56H75C75.5523 56 76 56.4477 76 57C76 57.5523 75.5523 58 75 58H65C64.4477 58 64 57.5523 64 57Z" fill="white" fill-opacity="0.3"/>
<path d="M7.99902 80C7.99902 78.8954 8.89445 78 9.99902 78C11.1036 78 11.999 78.8954 11.999 80C11.999 81.1046 11.1036 82 9.99902 82C8.89445 82 7.99902 81.1046 7.99902 80Z" fill="white"/>
<path d="M64 80C64 79.4477 64.4477 79 65 79H75C75.5523 79 76 79.4477 76 80C76 80.5523 75.5523 81 75 81H65C64.4477 81 64 80.5523 64 80Z" fill="white" fill-opacity="0.2"/>
</svg>
