<svg width="84" height="84" viewBox="0 0 84 84" fill="none" xmlns="http://www.w3.org/2000/svg">
<path d="M0 4C0 1.79086 1.79086 0 4 0H79.9994C82.2086 0 83.9994 1.79086 83.9994 4V7.66659C83.9994 9.87573 82.2086 11.6666 79.9994 11.6666H4C1.79086 11.6666 0 9.87573 0 7.66659V4Z" fill="white" fill-opacity="0.6"/>
<path d="M0 18.4639C0 16.2547 1.79086 14.4639 4 14.4639H79.9994C82.2086 14.4639 83.9994 16.2547 83.9994 18.4639V36.597C83.9994 38.8062 82.2086 40.597 79.9994 40.597H4C1.79086 40.597 0 38.8062 0 36.597V18.4639Z" fill="white"/>
<path d="M0 47.3998C0 45.1907 1.79086 43.3998 4 43.3998H79.9994C82.2086 43.3998 83.9994 45.1907 83.9994 47.3998V51.0664C83.9994 53.2755 82.2086 55.0664 79.9994 55.0664H4C1.79086 55.0664 0 53.2755 0 51.0664V47.3998Z" fill="white" fill-opacity="0.5"/>
<path d="M0 61.8637C0 59.6545 1.79086 57.8637 4 57.8637H79.9994C82.2086 57.8637 83.9994 59.6545 83.9994 61.8637V65.5303C83.9994 67.7394 82.2086 69.5303 79.9994 69.5303H4C1.79086 69.5303 0 67.7394 0 65.5303V61.8637Z" fill="white" fill-opacity="0.3"/>
<path d="M0 76.3316C0 74.1225 1.79086 72.3316 4 72.3316H79.9994C82.2086 72.3316 83.9994 74.1225 83.9994 76.3316V79.9982C83.9994 82.2074 82.2086 83.9982 79.9994 83.9982H4C1.79086 83.9982 0 82.2074 0 79.9982V76.3316Z" fill="white" fill-opacity="0.1"/>
</svg>
