<svg width="84" height="84" viewBox="0 0 84 84" fill="none" xmlns="http://www.w3.org/2000/svg">
<path fill-rule="evenodd" clip-rule="evenodd" d="M4 8.70312C1.79086 8.70312 0 10.494 0 12.7031V36.7031C0 38.9123 1.79086 40.7031 4 40.7031H22C24.2091 40.7031 26 38.9123 26 36.7031V12.7031C26 10.494 24.2091 8.70312 22 8.70312H4ZM3.25 17.2847C3.25 16.0056 4.28687 14.9688 5.56591 14.9688H20.4341C21.7131 14.9688 22.75 16.0056 22.75 17.2847C22.75 18.5637 21.7131 19.6006 20.4341 19.6006H5.56591C4.28687 19.6006 3.25 18.5637 3.25 17.2847ZM3.25 23.9128C3.25 23.2733 3.76843 22.7548 4.40795 22.7548H17.1602C17.7997 22.7548 18.3182 23.2733 18.3182 23.9128C18.3182 24.5523 17.7997 25.0707 17.1602 25.0707H4.40796C3.76844 25.0707 3.25 24.5523 3.25 23.9128ZM5.56591 28.5443C4.28687 28.5443 3.25 29.5811 3.25 30.8602C3.25 32.1392 4.28687 33.1761 5.56591 33.1761H11.5705C12.8495 33.1761 13.8864 32.1392 13.8864 30.8602C13.8864 29.5811 12.8495 28.5443 11.5705 28.5443H5.56591Z" fill="white"/>
<path d="M3.25 17.2847C3.25 16.0056 4.28687 14.9688 5.56591 14.9688H20.4341C21.7131 14.9688 22.75 16.0056 22.75 17.2847C22.75 18.5637 21.7131 19.6006 20.4341 19.6006H5.56591C4.28687 19.6006 3.25 18.5637 3.25 17.2847Z" fill="white" fill-opacity="0.2"/>
<path d="M3.25 23.9128C3.25 23.2733 3.76843 22.7548 4.40795 22.7548H17.1602C17.7997 22.7548 18.3182 23.2733 18.3182 23.9128C18.3182 24.5523 17.7997 25.0707 17.1602 25.0707H4.40796C3.76844 25.0707 3.25 24.5523 3.25 23.9128Z" fill="white" fill-opacity="0.4"/>
<path d="M3.25 30.8602C3.25 29.5811 4.28687 28.5443 5.56591 28.5443H11.5705C12.8495 28.5443 13.8864 29.5811 13.8864 30.8602C13.8864 32.1392 12.8495 33.1761 11.5705 33.1761H5.56591C4.28687 33.1761 3.25 32.1392 3.25 30.8602Z" fill="black" fill-opacity="0.4"/>
<path fill-rule="evenodd" clip-rule="evenodd" d="M29 12.7031C29 10.494 30.7909 8.70312 33 8.70312H51C53.2091 8.70312 55 10.494 55 12.7031V36.7031C55 38.9123 53.2091 40.7031 51 40.7031H33C30.7909 40.7031 29 38.9123 29 36.7031V12.7031ZM32.25 17.2768C32.25 15.9978 33.2869 14.9609 34.5659 14.9609H49.4341C50.7131 14.9609 51.75 15.9978 51.75 17.2768C51.75 18.5559 50.7131 19.5928 49.4341 19.5928H34.5659C33.2869 19.5928 32.25 18.5559 32.25 17.2768ZM38.0034 35.0896L46.9932 29.8994L38.0034 24.7092V35.0896Z" fill="white"/>
<path d="M32.25 17.2844C32.25 16.0053 33.2869 14.9685 34.5659 14.9685H49.4341C50.7131 14.9685 51.75 16.0053 51.75 17.2844C51.75 18.5634 50.7131 19.6003 49.4341 19.6003H34.5659C33.2869 19.6003 32.25 18.5634 32.25 17.2844Z" fill="white" fill-opacity="0.2"/>
<path d="M46.9932 29.9069L38.0034 35.0972V24.7167L46.9932 29.9069Z" fill="black" fill-opacity="0.2"/>
<path fill-rule="evenodd" clip-rule="evenodd" d="M58 12.7031C58 10.494 59.7909 8.70312 62 8.70312H80C82.2091 8.70312 84 10.494 84 12.7031V36.7031C84 38.9123 82.2091 40.7031 80 40.7031H62C59.7909 40.7031 58 38.9123 58 36.7031V12.7031ZM61.25 17.2806C61.25 16.0016 62.2869 14.9647 63.5659 14.9647H78.4341C79.7131 14.9647 80.75 16.0016 80.75 17.2806C80.75 18.5597 79.7131 19.5965 78.4341 19.5965H63.5659C62.2869 19.5965 61.25 18.5597 61.25 17.2806ZM75.1621 25.6053H66.5684V34.1991H75.1621V25.6053Z" fill="white"/>
<path d="M61.25 17.2844C61.25 16.0053 62.2869 14.9685 63.5659 14.9685H78.4341C79.7131 14.9685 80.75 16.0053 80.75 17.2844C80.75 18.5634 79.7131 19.6003 78.4341 19.6003H63.5659C62.2869 19.6003 61.25 18.5634 61.25 17.2844Z" fill="white" fill-opacity="0.2"/>
<path d="M66.5682 25.6101H75.1619V34.2038H66.5682V25.6101Z" fill="black" fill-opacity="0.2"/>
<path d="M13.0004 64.1285L10.8928 67.7789H15.1079L13.0004 64.1285Z" fill="white"/>
<path fill-rule="evenodd" clip-rule="evenodd" d="M0 47.2966C0 45.0875 1.79086 43.2966 4 43.2966H22C24.2091 43.2966 26 45.0875 26 47.2966V71.2966C26 73.5057 24.2091 75.2966 22 75.2966H4C1.79086 75.2966 0 73.5057 0 71.2966V47.2966ZM3.25 51.8741C3.25 50.5951 4.28687 49.5582 5.56591 49.5582H20.4341C21.7131 49.5582 22.75 50.5951 22.75 51.8741C22.75 53.1531 21.7131 54.19 20.4341 54.19H5.56591C4.28687 54.19 3.25 53.1531 3.25 51.8741ZM15.5 59.3004C15.5 60.3733 14.8241 61.2884 13.8748 61.643L17.2445 67.4796C17.5699 67.3246 17.934 67.2379 18.3184 67.2379C19.6991 67.2379 20.8184 68.3572 20.8184 69.7379C20.8184 71.1186 19.6991 72.2379 18.3184 72.2379C16.9513 72.2379 15.8406 71.1407 15.8187 69.7789H10.4997C10.4778 71.1407 9.36701 72.2379 8 72.2379C6.61929 72.2379 5.5 71.1186 5.5 69.7379C5.5 68.3572 6.61929 67.2379 8 67.2379C8.28608 67.2379 8.56094 67.2859 8.81694 67.3744L12.1258 61.6433C11.1762 61.2888 10.5 60.3736 10.5 59.3004C10.5 57.9197 11.6193 56.8004 13 56.8004C14.3807 56.8004 15.5 57.9197 15.5 59.3004Z" fill="white"/>
<path d="M3.25 51.8779C3.25 50.5988 4.28687 49.562 5.56591 49.562H20.4341C21.7131 49.562 22.75 50.5988 22.75 51.8779C22.75 53.1569 21.7131 54.1938 20.4341 54.1938H5.56591C4.28687 54.1938 3.25 53.1569 3.25 51.8779Z" fill="white" fill-opacity="0.2"/>
<path fill-rule="evenodd" clip-rule="evenodd" d="M13.8748 61.6468C14.8241 61.2922 15.5 60.3771 15.5 59.3041C15.5 57.9234 14.3807 56.8041 13 56.8041C11.6193 56.8041 10.5 57.9234 10.5 59.3041C10.5 60.3773 11.1762 61.2926 12.1258 61.647L8.81694 67.3782C8.56094 67.2897 8.28608 67.2416 8 67.2416C6.61929 67.2416 5.5 68.3609 5.5 69.7416C5.5 71.1223 6.61929 72.2416 8 72.2416C9.36701 72.2416 10.4778 71.1444 10.4997 69.7827H15.8187C15.8406 71.1444 16.9513 72.2416 18.3184 72.2416C19.6991 72.2416 20.8184 71.1223 20.8184 69.7416C20.8184 68.3609 19.6991 67.2416 18.3184 67.2416C17.934 67.2416 17.5699 67.3284 17.2445 67.4834L13.8748 61.6468ZM10.8928 67.7827L13.0004 64.1323L15.1079 67.7827H10.8928Z" fill="black" fill-opacity="0.2"/>
<path fill-rule="evenodd" clip-rule="evenodd" d="M29 47.2969C29 45.0877 30.7909 43.2969 33 43.2969H51C53.2091 43.2969 55 45.0877 55 47.2969V71.2969C55 73.506 53.2091 75.2969 51 75.2969H33C30.7909 75.2969 29 73.506 29 71.2969V47.2969ZM36.3434 58.3275C35.5623 59.1086 35.5623 60.3749 36.3434 61.1559L39.1718 63.9844L36.3434 66.8128C35.5623 67.5939 35.5623 68.8602 36.3434 69.6412C37.1244 70.4223 38.3908 70.4223 39.1718 69.6412L42.0002 66.8128L44.8287 69.6412C45.6097 70.4223 46.876 70.4223 47.6571 69.6412C48.4381 68.8602 48.4381 67.5939 47.6571 66.8128L44.8287 63.9844L47.6571 61.1559C48.4381 60.3749 48.4381 59.1086 47.6571 58.3275C46.876 57.5465 45.6097 57.5465 44.8287 58.3275L42.0002 61.1559L39.1718 58.3275C38.3908 57.5465 37.1244 57.5465 36.3434 58.3275ZM34.5659 49.5585C33.2869 49.5585 32.25 50.5953 32.25 51.8744C32.25 53.1534 33.2869 54.1903 34.5659 54.1903H49.4341C50.7131 54.1903 51.75 53.1534 51.75 51.8744C51.75 50.5953 50.7131 49.5585 49.4341 49.5585H34.5659Z" fill="white"/>
<path d="M32.25 51.8781C32.25 50.5991 33.2869 49.5622 34.5659 49.5622H49.4341C50.7131 49.5622 51.75 50.5991 51.75 51.8781C51.75 53.1572 50.7131 54.194 49.4341 54.194H34.5659C33.2869 54.194 32.25 53.1572 32.25 51.8781Z" fill="white" fill-opacity="0.2"/>
<path d="M36.3434 58.3351C35.5623 59.1161 35.5623 60.3824 36.3434 61.1635L39.1718 63.9919L36.3434 66.8203C35.5623 67.6014 35.5623 68.8677 36.3434 69.6488C37.1244 70.4298 38.3908 70.4298 39.1718 69.6488L42.0002 66.8203L44.8287 69.6488C45.6097 70.4298 46.876 70.4298 47.6571 69.6488C48.4381 68.8677 48.4381 67.6014 47.6571 66.8203L44.8287 63.9919L47.6571 61.1635C48.4381 60.3824 48.4381 59.1161 47.6571 58.3351C46.876 57.554 45.6097 57.554 44.8287 58.3351L42.0002 61.1635L39.1718 58.3351C38.3908 57.554 37.1244 57.554 36.3434 58.3351Z" fill="black" fill-opacity="0.2"/>
<path fill-rule="evenodd" clip-rule="evenodd" d="M58 47.2969C58 45.0877 59.7909 43.2969 62 43.2969H80C82.2091 43.2969 84 45.0877 84 47.2969V71.2969C84 73.506 82.2091 75.2969 80 75.2969H62C59.7909 75.2969 58 73.506 58 71.2969V47.2969ZM69.9143 58.4739C70.2137 57.5526 71.5171 57.5526 71.8164 58.4739L72.6536 61.0506C72.7875 61.4626 73.1715 61.7415 73.6047 61.7415H76.3139C77.2827 61.7415 77.6854 62.9812 76.9017 63.5506L74.7099 65.143C74.3594 65.3976 74.2128 65.849 74.3466 66.261L75.1838 68.8377C75.4832 69.759 74.4287 70.5251 73.645 69.9557L71.4532 68.3633C71.1027 68.1086 70.6281 68.1086 70.2776 68.3633L68.0858 69.9557C67.3021 70.5251 66.2476 69.759 66.547 68.8377L67.3841 66.261C67.518 65.849 67.3714 65.3976 67.0209 65.143L64.8291 63.5506C64.0453 62.9812 64.4481 61.7415 65.4169 61.7415H68.1261C68.5593 61.7415 68.9433 61.4626 69.0771 61.0506L69.9143 58.4739ZM63.5659 49.5585C62.2869 49.5585 61.25 50.5953 61.25 51.8744C61.25 53.1534 62.2869 54.1903 63.5659 54.1903H78.4341C79.7131 54.1903 80.75 53.1534 80.75 51.8744C80.75 50.5953 79.7131 49.5585 78.4341 49.5585H63.5659Z" fill="white"/>
<path d="M61.25 51.8781C61.25 50.5991 62.2869 49.5622 63.5659 49.5622H78.4341C79.7131 49.5622 80.75 50.5991 80.75 51.8781C80.75 53.1572 79.7131 54.194 78.4341 54.194H63.5659C62.2869 54.194 61.25 53.1572 61.25 51.8781Z" fill="white" fill-opacity="0.2"/>
<path d="M69.9143 58.4815C70.2137 57.5601 71.5171 57.5601 71.8164 58.4815L72.6536 61.0581C72.7875 61.4701 73.1715 61.7491 73.6047 61.7491H76.3139C77.2827 61.7491 77.6854 62.9887 76.9017 63.5581L74.7099 65.1505C74.3594 65.4052 74.2128 65.8565 74.3466 66.2686L75.1838 68.8452C75.4832 69.7665 74.4287 70.5326 73.645 69.9632L71.4532 68.3708C71.1027 68.1161 70.6281 68.1161 70.2776 68.3708L68.0858 69.9632C67.3021 70.5326 66.2476 69.7665 66.547 68.8452L67.3841 66.2686C67.518 65.8565 67.3714 65.4052 67.0209 65.1505L64.8291 63.5581C64.0453 62.9887 64.4481 61.7491 65.4169 61.7491H68.1261C68.5593 61.7491 68.9433 61.4701 69.0771 61.0581L69.9143 58.4815Z" fill="black" fill-opacity="0.2"/>
</svg>
