<svg width="85" height="84" viewBox="0 0 85 84" fill="none" xmlns="http://www.w3.org/2000/svg">
<path d="M53.084 21.0014C51.159 21.0014 49.5111 20.316 48.1402 18.9451C46.7694 17.5743 46.084 15.9264 46.084 14.0014C46.084 12.0764 46.7694 10.4285 48.1402 9.05762C49.5111 7.68679 51.159 7.00137 53.084 7.00137C55.009 7.00137 56.6569 7.68679 58.0277 9.05762C59.3986 10.4285 60.084 12.0764 60.084 14.0014C60.084 15.9264 59.3986 17.5743 58.0277 18.9451C56.6569 20.316 55.009 21.0014 53.084 21.0014ZM46.084 77.0014C44.151 77.0014 42.584 75.4344 42.584 73.5014V35.5014C42.584 33.2922 40.7931 31.5014 38.584 31.5014H25.084C23.151 31.5014 21.584 29.9344 21.584 28.0014C21.584 26.0684 23.151 24.5014 25.084 24.5014H81.084C83.017 24.5014 84.584 26.0684 84.584 28.0014C84.584 29.9344 83.017 31.5014 81.084 31.5014H67.584C65.3748 31.5014 63.584 33.2922 63.584 35.5014V73.5014C63.584 75.4344 62.017 77.0014 60.084 77.0014C58.151 77.0014 56.584 75.4344 56.584 73.5014V59.5014C56.584 57.5684 55.017 56.0014 53.084 56.0014C51.151 56.0014 49.584 57.5684 49.584 59.5014V73.5014C49.584 75.4344 48.017 77.0014 46.084 77.0014Z" fill="black" fill-opacity="0.3"/>
<path d="M32.084 21.0014C30.159 21.0014 28.5111 20.316 27.1402 18.9451C25.7694 17.5743 25.084 15.9264 25.084 14.0014C25.084 12.0764 25.7694 10.4285 27.1402 9.05762C28.5111 7.68679 30.159 7.00137 32.084 7.00137C34.009 7.00137 35.6569 7.68679 37.0277 9.05762C38.3986 10.4285 39.084 12.0764 39.084 14.0014C39.084 15.9264 38.3986 17.5743 37.0277 18.9451C35.6569 20.316 34.009 21.0014 32.084 21.0014ZM25.084 77.0014C23.151 77.0014 21.584 75.4344 21.584 73.5014V35.5014C21.584 33.2922 19.7931 31.5014 17.584 31.5014H4.08398C2.15099 31.5014 0.583984 29.9344 0.583984 28.0014C0.583984 26.0684 2.15099 24.5014 4.08398 24.5014H60.084C62.017 24.5014 63.584 26.0684 63.584 28.0014C63.584 29.9344 62.017 31.5014 60.084 31.5014H46.584C44.3748 31.5014 42.584 33.2922 42.584 35.5014V73.5014C42.584 75.4344 41.017 77.0014 39.084 77.0014C37.151 77.0014 35.584 75.4344 35.584 73.5014V59.5014C35.584 57.5684 34.017 56.0014 32.084 56.0014C30.151 56.0014 28.584 57.5684 28.584 59.5014V73.5014C28.584 75.4344 27.017 77.0014 25.084 77.0014Z" fill="white"/>
</svg>
