<svg viewBox="0 0 130 130" fill="none" xmlns="http://www.w3.org/2000/svg">
<ellipse cx="14.3899" cy="14.2956" rx="14.0237" ry="13.8972" fill="white"/>
<ellipse opacity="0.9" cx="14.3899" cy="82.4323" rx="14.0237" ry="13.8972" fill="white"/>
<ellipse cx="14.3899" cy="48.362" rx="14.0237" ry="13.8972" fill="black" fill-opacity="0.3"/>
<ellipse cx="14.3899" cy="116.503" rx="14.0237" ry="13.8972" fill="black" fill-opacity="0.3"/>
<ellipse opacity="0.3" cx="48.3743" cy="14.2956" rx="14.0237" ry="13.8972" fill="white"/>
<ellipse cx="48.3743" cy="82.4323" rx="14.0237" ry="13.8972" fill="white" fill-opacity="0.3"/>
<ellipse cx="48.3743" cy="48.362" rx="14.0237" ry="13.8972" fill="white" fill-opacity="0.9"/>
<ellipse cx="48.3743" cy="116.503" rx="14.0237" ry="13.8972" fill="white"/>
<ellipse opacity="0.6" cx="82.3582" cy="14.2956" rx="14.0237" ry="13.8972" fill="white"/>
<ellipse cx="82.3582" cy="82.4323" rx="14.0237" ry="13.8972" fill="black" fill-opacity="0.6"/>
<ellipse cx="82.3582" cy="48.362" rx="14.0237" ry="13.8972" fill="white" fill-opacity="0.6"/>
<ellipse cx="82.3582" cy="116.503" rx="14.0237" ry="13.8972" fill="white" fill-opacity="0.6"/>
<ellipse opacity="0.9" cx="116.343" cy="14.2956" rx="14.0237" ry="13.8972" fill="white"/>
<ellipse cx="116.343" cy="82.4323" rx="14.0237" ry="13.8972" fill="black" fill-opacity="0.3"/>
<ellipse cx="116.343" cy="48.362" rx="14.0237" ry="13.8972" fill="black" fill-opacity="0.6"/>
<ellipse cx="116.343" cy="116.503" rx="14.0237" ry="13.8972" fill="white" fill-opacity="0.3"/>
</svg>
