<svg width="85" height="84" viewBox="0 0 85 84" fill="none" xmlns="http://www.w3.org/2000/svg">
<path fill-rule="evenodd" clip-rule="evenodd" d="M84.5821 20.4779C84.5821 18.2688 82.7912 16.4779 80.5821 16.4779L25.5836 16.4779C23.3744 16.4779 21.5836 18.2688 21.5836 20.4779V52.9407C21.5836 55.1498 23.3744 56.9407 25.5836 56.9407H44.3941V60.9467H37.1148C36.336 60.9467 35.7047 61.578 35.7047 62.3568C35.7047 63.1357 36.336 63.767 37.1148 63.767H69.0523C69.8311 63.767 70.4624 63.1357 70.4624 62.3568C70.4624 61.578 69.8311 60.9467 69.0523 60.9467H61.773V56.9407H80.5821C82.7912 56.9407 84.5821 55.1498 84.5821 52.9407V20.4779ZM81.962 19.5119H24.7072V53.8557H81.962V19.5119Z" fill="black" fill-opacity="0.6"/>
<path d="M24.7073 19.5096H81.9621V53.8534H24.7073V19.5096Z" fill="black" fill-opacity="0.3"/>
<path fill-rule="evenodd" clip-rule="evenodd" d="M0.583984 37.0781C0.583984 34.869 2.37485 33.0781 4.58398 33.0781H19.4082C21.6173 33.0781 23.4082 34.869 23.4082 37.0781V68.5546C23.4082 70.7638 21.6173 72.5546 19.4082 72.5546H4.58398C2.37485 72.5546 0.583984 70.7638 0.583984 68.5546V37.0781ZM2.47618 36H21.3982V66H2.47618V36ZM12.084 71C12.9124 71 13.584 70.3284 13.584 69.5C13.584 68.6716 12.9124 68 12.084 68C11.2556 68 10.584 68.6716 10.584 69.5C10.584 70.3284 11.2556 71 12.084 71Z" fill="white"/>
<path d="M2.47618 36H21.3982V66H2.47618V36Z" fill="black" fill-opacity="0.6"/>
</svg>
