<svg width="85" height="84" viewBox="0 0 85 84" fill="none" xmlns="http://www.w3.org/2000/svg">
<rect x="0.583984" width="84" height="84" rx="4" fill="black" fill-opacity="0.2"/>
<path fill-rule="evenodd" clip-rule="evenodd" d="M84.5825 20C84.5825 17.7909 82.7916 16 80.5825 16L24.9814 16C22.7723 16 20.9814 17.7909 20.9814 20V52.8498C20.9814 55.0589 22.7723 56.8498 24.9814 56.8498H44.0094V60.8908H38.0108C36.4788 60.8908 35.2368 62.1327 35.2368 63.6647C35.2368 65.1967 36.4788 66.4387 38.0108 66.4387H67.5531C69.0851 66.4387 70.3271 65.1967 70.3271 63.6647C70.3271 62.1327 69.0851 60.8908 67.5531 60.8908H61.5545V56.8498H80.5825C82.7916 56.8498 84.5825 55.0589 84.5825 52.8498V20ZM80.6014 20.1978H24.7074V52.8088H80.6014V20.1978Z" fill="black" fill-opacity="0.6"/>
<rect x="24.708" y="20.1953" width="55.894" height="32.611" fill="black" fill-opacity="0.3"/>
<path fill-rule="evenodd" clip-rule="evenodd" d="M0.583984 37.0781C0.583984 34.869 2.37485 33.0781 4.58398 33.0781H20.7085C22.9176 33.0781 24.7085 34.869 24.7085 37.0781V68.5546C24.7085 70.7638 22.9177 72.5546 20.7085 72.5546H4.58399C2.37485 72.5546 0.583984 70.7638 0.583984 68.5546V37.0781ZM3.58398 37H21.584V65H3.58398V37ZM12.584 71C13.6886 71 14.584 70.1046 14.584 69C14.584 67.8954 13.6886 67 12.584 67C11.4794 67 10.584 67.8954 10.584 69C10.584 70.1046 11.4794 71 12.584 71Z" fill="white"/>
<rect x="3.58398" y="37" width="18" height="28" fill="black" fill-opacity="0.2"/>
</svg>
