<svg width="84" height="84" viewBox="0 0 84 84" fill="none" xmlns="http://www.w3.org/2000/svg">
<path fill-rule="evenodd" clip-rule="evenodd" d="M0 4C0 1.79086 1.79086 0 4 0H80C82.2091 0 84 1.79086 84 4V80C84 82.2091 82.2091 84 80 84H4C1.79086 84 0 82.2091 0 80V4ZM11.333 25.8027C11.333 23.9269 12.8537 22.4062 14.7295 22.4062H77.2699C79.1457 22.4062 80.6663 23.9269 80.6663 25.8027C80.6663 27.6786 79.1457 29.1992 77.2699 29.1992H14.7295C12.8537 29.1992 11.333 27.6786 11.333 25.8027ZM5.33333 29.1992C7.17428 29.1992 8.66667 27.6786 8.66667 25.8027C8.66667 23.9269 7.17428 22.4062 5.33333 22.4062C3.49238 22.4062 2 23.9269 2 25.8027C2 27.6786 3.49238 29.1992 5.33333 29.1992ZM11.333 36.5918C11.333 34.716 12.8537 33.1953 14.7295 33.1953H47.9365C49.8124 33.1953 51.333 34.716 51.333 36.5918C51.333 38.4676 49.8124 39.9883 47.9365 39.9883H14.7295C12.8537 39.9883 11.333 38.4676 11.333 36.5918ZM5.33333 39.9883C7.17428 39.9883 8.66667 38.4676 8.66667 36.5918C8.66667 34.716 7.17428 33.1953 5.33333 33.1953C3.49238 33.1953 2 34.716 2 36.5918C2 38.4676 3.49238 39.9883 5.33333 39.9883ZM11.333 58.1855C11.333 56.3097 12.8537 54.7891 14.7295 54.7891H47.9365C49.8124 54.7891 51.333 56.3097 51.333 58.1855C51.333 60.0614 49.8124 61.582 47.9365 61.582H14.7295C12.8537 61.582 11.333 60.0614 11.333 58.1855ZM5.33333 61.582C7.17428 61.582 8.66667 60.0614 8.66667 58.1855C8.66667 56.3097 7.17428 54.7891 5.33333 54.7891C3.49238 54.7891 2 56.3097 2 58.1855C2 60.0614 3.49238 61.582 5.33333 61.582ZM11.333 47.3887C11.333 45.5128 12.8537 43.9922 14.7295 43.9922H71.9365C73.8123 43.9922 75.333 45.5128 75.333 47.3887C75.333 49.2645 73.8123 50.7852 71.9365 50.7852H14.7295C12.8537 50.7852 11.333 49.2645 11.333 47.3887ZM5.33333 50.7852C7.17428 50.7852 8.66667 49.2645 8.66667 47.3887C8.66667 45.5128 7.17428 43.9922 5.33333 43.9922C3.49238 43.9922 2 45.5128 2 47.3887C2 49.2645 3.49238 50.7852 5.33333 50.7852Z" fill="black" fill-opacity="0.2"/>
<path d="M11.333 25.8066C11.333 23.9308 12.8537 22.4102 14.7295 22.4102H77.2699C79.1457 22.4102 80.6663 23.9308 80.6663 25.8066C80.6663 27.6825 79.1457 29.2031 77.2699 29.2031H14.7295C12.8537 29.2031 11.333 27.6825 11.333 25.8066Z" fill="white" fill-opacity="0.6"/>
<path d="M8.66667 25.8066C8.66667 27.6825 7.17428 29.2031 5.33333 29.2031C3.49238 29.2031 2 27.6825 2 25.8066C2 23.9308 3.49238 22.4102 5.33333 22.4102C7.17428 22.4102 8.66667 23.9308 8.66667 25.8066Z" fill="white"/>
<path d="M11.333 36.5957C11.333 34.7199 12.8537 33.1992 14.7295 33.1992H47.9365C49.8123 33.1992 51.333 34.7199 51.333 36.5957C51.333 38.4715 49.8123 39.9922 47.9365 39.9922H14.7295C12.8537 39.9922 11.333 38.4715 11.333 36.5957Z" fill="white" fill-opacity="0.6"/>
<path d="M8.66667 36.5957C8.66667 38.4715 7.17428 39.9922 5.33333 39.9922C3.49238 39.9922 2 38.4715 2 36.5957C2 34.7199 3.49238 33.1992 5.33333 33.1992C7.17428 33.1992 8.66667 34.7199 8.66667 36.5957Z" fill="white"/>
<path d="M11.333 58.1895C11.333 56.3136 12.8537 54.793 14.7295 54.793H47.9365C49.8123 54.793 51.333 56.3136 51.333 58.1895C51.333 60.0653 49.8123 61.5859 47.9365 61.5859H14.7295C12.8537 61.5859 11.333 60.0653 11.333 58.1895Z" fill="white" fill-opacity="0.6"/>
<path d="M8.66667 58.1895C8.66667 60.0653 7.17428 61.5859 5.33333 61.5859C3.49238 61.5859 2 60.0653 2 58.1895C2 56.3136 3.49238 54.793 5.33333 54.793C7.17428 54.793 8.66667 56.3136 8.66667 58.1895Z" fill="white"/>
<path d="M11.333 47.3926C11.333 45.5168 12.8537 43.9961 14.7295 43.9961H71.9365C73.8123 43.9961 75.333 45.5168 75.333 47.3926C75.333 49.2684 73.8123 50.7891 71.9365 50.7891H14.7295C12.8537 50.7891 11.333 49.2684 11.333 47.3926Z" fill="white" fill-opacity="0.6"/>
<path d="M8.66667 47.3926C8.66667 49.2684 7.17428 50.7891 5.33333 50.7891C3.49238 50.7891 2 49.2684 2 47.3926C2 45.5168 3.49238 43.9961 5.33333 43.9961C7.17428 43.9961 8.66667 45.5168 8.66667 47.3926Z" fill="white"/>
</svg>
