<svg width="84" height="84" viewBox="0 0 84 84" fill="none" xmlns="http://www.w3.org/2000/svg">
<path d="M18.1227 8.97961C18.1227 13.9389 14.0658 17.9592 9.06136 17.9592C4.05691 17.9592 0 13.9389 0 8.97961C0 4.02031 4.05691 0 9.06136 0C14.0658 0 18.1227 4.02031 18.1227 8.97961Z" fill="white"/>
<path d="M18.1227 53.006C18.1227 57.9653 14.0658 61.9856 9.06136 61.9856C4.05691 61.9856 0 57.9653 0 53.006C0 48.0467 4.05691 44.0263 9.06136 44.0263C14.0658 44.0263 18.1227 48.0467 18.1227 53.006Z" fill="white"/>
<path d="M18.1227 30.9915C18.1227 35.9508 14.0658 39.9711 9.06136 39.9711C4.05691 39.9711 0 35.9508 0 30.9915C0 26.0322 4.05691 22.0119 9.06136 22.0119C14.0658 22.0119 18.1227 26.0322 18.1227 30.9915Z" fill="black" fill-opacity="0.3"/>
<path d="M18.1227 75.0204C18.1227 79.9797 14.0658 84 9.06136 84C4.05691 84 0 79.9797 0 75.0204C0 70.0611 4.05691 66.0408 9.06136 66.0408C14.0658 66.0408 18.1227 70.0611 18.1227 75.0204Z" fill="black" fill-opacity="0.3"/>
<path d="M40.0816 8.97961C40.0816 13.9389 36.0247 17.9592 31.0203 17.9592C26.0158 17.9592 21.9589 13.9389 21.9589 8.97961C21.9589 4.02031 26.0158 0 31.0203 0C36.0247 0 40.0816 4.02031 40.0816 8.97961Z" fill="white"/>
<path d="M40.0816 53.006C40.0816 57.9653 36.0247 61.9856 31.0203 61.9856C26.0158 61.9856 21.9589 57.9653 21.9589 53.006C21.9589 48.0467 26.0158 44.0263 31.0203 44.0263C36.0247 44.0263 40.0816 48.0467 40.0816 53.006Z" fill="white" fill-opacity="0.3"/>
<path d="M40.0816 30.9915C40.0816 35.9508 36.0247 39.9711 31.0203 39.9711C26.0158 39.9711 21.9589 35.9508 21.9589 30.9915C21.9589 26.0322 26.0158 22.0119 31.0203 22.0119C36.0247 22.0119 40.0816 26.0322 40.0816 30.9915Z" fill="white" fill-opacity="0.9"/>
<path d="M40.0816 75.0204C40.0816 79.9797 36.0247 84 31.0203 84C26.0158 84 21.9589 79.9797 21.9589 75.0204C21.9589 70.0611 26.0158 66.0408 31.0203 66.0408C36.0247 66.0408 40.0816 70.0611 40.0816 75.0204Z" fill="white"/>
<path d="M62.0399 8.97961C62.0399 13.9389 57.983 17.9592 52.9785 17.9592C47.9741 17.9592 43.9172 13.9389 43.9172 8.97961C43.9172 4.02031 47.9741 0 52.9785 0C57.983 0 62.0399 4.02031 62.0399 8.97961Z" fill="white"/>
<path d="M62.0399 53.006C62.0399 57.9653 57.983 61.9856 52.9785 61.9856C47.9741 61.9856 43.9172 57.9653 43.9172 53.006C43.9172 48.0467 47.9741 44.0263 52.9785 44.0263C57.983 44.0263 62.0399 48.0467 62.0399 53.006Z" fill="black" fill-opacity="0.6"/>
<path d="M62.0399 30.9915C62.0399 35.9508 57.983 39.9711 52.9785 39.9711C47.9741 39.9711 43.9172 35.9508 43.9172 30.9915C43.9172 26.0322 47.9741 22.0119 52.9785 22.0119C57.983 22.0119 62.0399 26.0322 62.0399 30.9915Z" fill="white" fill-opacity="0.6"/>
<path d="M62.0399 75.0204C62.0399 79.9797 57.983 84 52.9785 84C47.9741 84 43.9172 79.9797 43.9172 75.0204C43.9172 70.0611 47.9741 66.0408 52.9785 66.0408C57.983 66.0408 62.0399 70.0611 62.0399 75.0204Z" fill="white" fill-opacity="0.6"/>
<path d="M83.9988 8.97961C83.9988 13.9389 79.9419 17.9592 74.9375 17.9592C69.933 17.9592 65.8761 13.9389 65.8761 8.97961C65.8761 4.02031 69.933 0 74.9375 0C79.9419 0 83.9988 4.02031 83.9988 8.97961Z" fill="white"/>
<path d="M83.9988 53.006C83.9988 57.9653 79.9419 61.9856 74.9375 61.9856C69.933 61.9856 65.8761 57.9653 65.8761 53.006C65.8761 48.0467 69.933 44.0263 74.9375 44.0263C79.9419 44.0263 83.9988 48.0467 83.9988 53.006Z" fill="black" fill-opacity="0.3"/>
<path d="M83.9988 30.9915C83.9988 35.9508 79.9419 39.9711 74.9375 39.9711C69.933 39.9711 65.8761 35.9508 65.8761 30.9915C65.8761 26.0322 69.933 22.0119 74.9375 22.0119C79.9419 22.0119 83.9988 26.0322 83.9988 30.9915Z" fill="black" fill-opacity="0.6"/>
<path d="M83.9988 75.0204C83.9988 79.9797 79.9419 84 74.9375 84C69.933 84 65.8761 79.9797 65.8761 75.0204C65.8761 70.0611 69.933 66.0408 74.9375 66.0408C79.9419 66.0408 83.9988 70.0611 83.9988 75.0204Z" fill="white" fill-opacity="0.3"/>
</svg>
