<svg width="84" height="84" viewBox="0 0 84 84" fill="none" xmlns="http://www.w3.org/2000/svg">
<path d="M20.5934 82.4925V75.3537L29.8278 73.7673V8.44188H11.1324L9.48949 19.8866H1.1049V0H69.6546V19.8866H61.3833L59.6838 8.44188H40.9884V73.7673L50.2228 75.3537V82.4925H20.5934Z" fill="white"/>
<path d="M63.4573 84.0001C59.6945 84.0001 56.7 82.9026 54.4737 80.7075C52.2787 78.481 51.1813 74.9374 51.1813 70.0768V39.1728H43.1383V32.3052H51.1813V20.0282H60.4471V32.3052H71.5002V39.1728H60.4471V70.0768C60.4471 72.5228 60.9331 74.3259 61.9052 75.4862C62.8772 76.6465 64.1785 77.2266 65.809 77.2266C66.9065 77.2266 68.1294 77.1326 69.4777 76.9444C70.8261 76.7249 71.8765 76.5367 72.6291 76.3799L73.899 82.4479C72.5507 82.8555 70.8888 83.2162 68.9133 83.5297C66.9692 83.8433 65.1505 84.0001 63.4573 84.0001Z" fill="black" fill-opacity="0.3"/>
<path fill-rule="evenodd" clip-rule="evenodd" d="M0 32.9761C0 32.4238 0.447715 31.9761 1 31.9761H6.125C6.67728 31.9761 7.125 32.4238 7.125 32.9761C7.125 33.5284 6.67728 33.9761 6.125 33.9761H1C0.447715 33.9761 0 33.5284 0 32.9761ZM15.375 32.9761C15.375 32.4238 15.8227 31.9761 16.375 31.9761H26.625C27.1773 31.9761 27.625 32.4238 27.625 32.9761C27.625 33.5284 27.1773 33.9761 26.625 33.9761H16.375C15.8227 33.9761 15.375 33.5284 15.375 32.9761ZM35.875 32.9761C35.875 32.4238 36.3227 31.9761 36.875 31.9761H47.125C47.6773 31.9761 48.125 32.4238 48.125 32.9761C48.125 33.5284 47.6773 33.9761 47.125 33.9761H36.875C36.3227 33.9761 35.875 33.5284 35.875 32.9761ZM56.375 32.9761C56.375 32.4238 56.8227 31.9761 57.375 31.9761H67.625C68.1773 31.9761 68.625 32.4238 68.625 32.9761C68.625 33.5284 68.1773 33.9761 67.625 33.9761H57.375C56.8227 33.9761 56.375 33.5284 56.375 32.9761ZM76.875 32.9761C76.875 32.4238 77.3227 31.9761 77.875 31.9761H83C83.5523 31.9761 84 32.4238 84 32.9761C84 33.5284 83.5523 33.9761 83 33.9761H77.875C77.3227 33.9761 76.875 33.5284 76.875 32.9761Z" fill="black" fill-opacity="0.3"/>
<path fill-rule="evenodd" clip-rule="evenodd" d="M0 19.0282C0 18.476 0.447715 18.0282 1 18.0282H6.125C6.67728 18.0282 7.125 18.476 7.125 19.0282C7.125 19.5805 6.67728 20.0282 6.125 20.0282H1C0.447715 20.0282 0 19.5805 0 19.0282ZM15.375 19.0282C15.375 18.476 15.8227 18.0282 16.375 18.0282H26.625C27.1773 18.0282 27.625 18.476 27.625 19.0282C27.625 19.5805 27.1773 20.0282 26.625 20.0282H16.375C15.8227 20.0282 15.375 19.5805 15.375 19.0282ZM35.875 19.0282C35.875 18.476 36.3227 18.0282 36.875 18.0282H47.125C47.6773 18.0282 48.125 18.476 48.125 19.0282C48.125 19.5805 47.6773 20.0282 47.125 20.0282H36.875C36.3227 20.0282 35.875 19.5805 35.875 19.0282ZM56.375 19.0282C56.375 18.476 56.8227 18.0282 57.375 18.0282H67.625C68.1773 18.0282 68.625 18.476 68.625 19.0282C68.625 19.5805 68.1773 20.0282 67.625 20.0282H57.375C56.8227 20.0282 56.375 19.5805 56.375 19.0282ZM76.875 19.0282C76.875 18.476 77.3227 18.0282 77.875 18.0282H83C83.5523 18.0282 84 18.476 84 19.0282C84 19.5805 83.5523 20.0282 83 20.0282H77.875C77.3227 20.0282 76.875 19.5805 76.875 19.0282Z" fill="black" fill-opacity="0.3"/>
<path fill-rule="evenodd" clip-rule="evenodd" d="M0 81.4931C0 80.9409 0.447715 80.4931 1 80.4931H6.125C6.67728 80.4931 7.125 80.9409 7.125 81.4931C7.125 82.0454 6.67728 82.4931 6.125 82.4931H1C0.447715 82.4931 0 82.0454 0 81.4931ZM15.375 81.4931C15.375 80.9409 15.8227 80.4931 16.375 80.4931H26.625C27.1773 80.4931 27.625 80.9409 27.625 81.4931C27.625 82.0454 27.1773 82.4931 26.625 82.4931H16.375C15.8227 82.4931 15.375 82.0454 15.375 81.4931ZM35.875 81.4931C35.875 80.9409 36.3227 80.4931 36.875 80.4931H47.125C47.6773 80.4931 48.125 80.9409 48.125 81.4931C48.125 82.0454 47.6773 82.4931 47.125 82.4931H36.875C36.3227 82.4931 35.875 82.0454 35.875 81.4931ZM56.375 81.4931C56.375 80.9409 56.8227 80.4931 57.375 80.4931H67.625C68.1773 80.4931 68.625 80.9409 68.625 81.4931C68.625 82.0454 68.1773 82.4931 67.625 82.4931H57.375C56.8227 82.4931 56.375 82.0454 56.375 81.4931ZM76.875 81.4931C76.875 80.9409 77.3227 80.4931 77.875 80.4931H83C83.5523 80.4931 84 80.9409 84 81.4931C84 82.0454 83.5523 82.4931 83 82.4931H77.875C77.3227 82.4931 76.875 82.0454 76.875 81.4931Z" fill="black" fill-opacity="0.3"/>
</svg>
