<svg viewBox="0 0 130 130" fill="none" xmlns="http://www.w3.org/2000/svg">
<path d="M32.5197 128.526V117.478L46.811 115.023V13.9242H17.8777L15.335 31.6362H2.35889V0.859375H108.448V31.6362H95.6469L93.0166 13.9242H64.0833V115.023L78.3746 117.478V128.526H32.5197Z" fill="white"/>
<path d="M98.8562 130.86C93.0328 130.86 88.3984 129.161 84.953 125.764C81.556 122.318 79.8575 116.834 79.8575 109.312V61.4839H67.4102V50.8555H79.8575V31.8555H94.1975V50.8555H111.304V61.4839H94.1975V109.312C94.1975 113.097 94.9497 115.888 96.454 117.683C97.9584 119.479 99.9723 120.377 102.496 120.377C104.194 120.377 106.087 120.231 108.174 119.94C110.26 119.6 111.886 119.309 113.051 119.066L115.016 128.457C112.929 129.088 110.357 129.646 107.3 130.132C104.291 130.617 101.477 130.86 98.8562 130.86Z" fill="black" fill-opacity="0.3"/>
<line x1="1.64844" y1="52.4414" x2="129.648" y2="52.4414" stroke="black" stroke-opacity="0.3" stroke-width="2" stroke-linecap="round" stroke-dasharray="10 10"/>
<line x1="1.64844" y1="30.8555" x2="129.648" y2="30.8555" stroke="black" stroke-opacity="0.3" stroke-width="2" stroke-linecap="round" stroke-dasharray="10 10"/>
<line x1="1.64844" y1="127.527" x2="129.648" y2="127.527" stroke="black" stroke-opacity="0.3" stroke-width="2" stroke-linecap="round" stroke-dasharray="10 10"/>
</svg>
