<svg width="84" height="84" viewBox="0 0 84 84" fill="none" xmlns="http://www.w3.org/2000/svg">
<path fill-rule="evenodd" clip-rule="evenodd" d="M29.0645 72.1473C37.0103 75.4452 45.9469 75.4705 53.9115 72.2177L55.4263 75.329C46.501 79.0396 36.4492 79.0142 27.543 75.2587L29.0645 72.1473ZM72.754 51.444L76.1201 52.2226C73.4006 61.4875 67.0627 69.2814 58.5237 73.8615L57.0089 70.7535C64.614 66.638 70.2742 59.6965 72.754 51.444ZM10.3779 51.405C12.8346 59.6124 18.4367 66.5294 25.9748 70.6626L24.46 73.7706C15.9821 69.1706 9.69921 61.3951 7.00501 52.1687L10.3779 51.405ZM70.8933 21.1672C75.252 27.2745 77.5877 34.5823 77.5751 42.0726C77.5759 44.3601 77.3601 46.6426 76.9305 48.8898L73.5644 48.1128C73.9371 46.1208 74.1241 44.0988 74.1231 42.0726C74.1356 35.3723 72.0683 28.8315 68.2038 23.3442L70.8933 21.1672ZM12.1761 21.271L14.869 23.448C11.0533 28.9151 9.01376 35.4148 9.02543 42.0709C9.02432 44.0823 9.20855 46.0896 9.57579 48.0675L6.20967 48.8429C5.78466 46.6109 5.56998 44.3443 5.56842 42.0726C5.55479 34.6255 7.86346 27.3576 12.1761 21.271ZM39.7573 6.09375V9.55342C30.9479 10.0415 22.7194 14.0824 16.972 20.7429L14.2791 18.566C20.6845 11.0967 29.9012 6.58487 39.7573 6.09375ZM43.1876 6.09375C53.0681 6.53631 62.3258 11.0206 68.7701 18.4856L66.0772 20.6625C60.2874 14.0065 52.014 9.99532 43.1775 9.56011L43.1876 6.09375Z" fill="white" fill-opacity="0.5"/>
<path fill-rule="evenodd" clip-rule="evenodd" d="M57.3232 42.1708C57.2815 50.8601 50.2109 57.8743 41.5215 57.8466C32.8321 57.8188 25.8065 50.7595 25.8203 42.0701C25.8342 33.3807 32.8822 26.3439 41.5716 26.3438C45.7594 26.3533 49.7717 28.0263 52.7258 30.9945C55.6799 33.9628 57.3337 37.9831 57.3232 42.1708Z" fill="white"/>
</svg>
